<svg width="700pt" height="700pt" version="1.1" viewBox="0 0 700 700" xmlns="http://www.w3.org/2000/svg" xmlns:xlink="http://www.w3.org/1999/xlink">
 <g>
  <path d="m141.23 50.414c-9.0547 0.039063-16.945 4.2227-22.75 9.9766-5.7188 7.7891-9.4336 15.531-9.2734 23.098 4.5703 133.91 46.898 241.01 123.38 314.29 76.578 73.379 186.68 112.06 324.27 111.82 8.8516-1.2266 17.441-5.0469 22.926-10.324 5.8125-5.7266 10.285-13.461 10.324-22.574 0.23047-31.898 0.47266-63.848 0.69922-95.723-0.25781-8.9219-4.6523-16.32-10.5-21.875-5.8477-5.5547-13.664-9.6992-22.75-9.625-29.992 0.11719-70.07-10.348-102.38-18.375-3.668-0.92188-7.7773 0.17188-10.5 2.8008l-56.699 54.949c-68.984-41.027-99.109-70.285-141.22-137.2l56.348-54.598c2.8594-2.7891 4.0469-7.1758 2.9766-11.023-8.6172-32.262-23.449-75.23-21-107.1-0.46484-8.6367-7.8906-16.402-13.477-20.648-5.8945-4.4141-13.727-8.1172-22.926-7.875h-107.45zm0 22.398h107.97c2.5039-0.09375 5.8867 1.2266 8.9258 3.5 2.707 2.0273 4.4219 4.5039 4.8984 5.25-1.5703 36.273 11.398 74.824 19.602 103.95l-58.098 56.523c-3.668 3.5234-4.4375 9.6797-1.75 14 47.633 77.211 81.812 110.31 161.17 156.62 4.1797 2.4727 9.9766 1.7969 13.477-1.5742l58.449-56.871c31.016 7.8008 68.785 17.805 101.85 17.676 1.7617 0 4.8359 1.1055 7.1758 3.3242s3.4648 5.1445 3.5 6.3008l-0.69922 95.023c-0.003906 1.4375-1.0938 4.457-3.5 6.8242s-5.8711 3.7227-8.0508 3.8477c-133.04 0.09375-236.44-37.125-308-105.7-71.688-68.695-112.22-169.53-116.55-299.42 0.10156-2.5781 1.8711-4.2227 2.8008-5.7734 1.8516-2.0898 4.6797-2.6289 6.8242-3.5z"/>
 </g>
</svg>