<svg width="700pt" height="700pt" version="1.1" viewBox="0 0 700 700" xmlns="http://www.w3.org/2000/svg">
 <g>
  <path d="m615.26 433.56c-2.6094-21.086-14.934-39.73-33.305-50.402l-34.043-20.336c-12.758-7.7266-27.539-11.449-42.434-10.688-14.895 0.76563-29.219 5.9766-41.121 14.961l-29.473 21.809-0.003907 0.003906c-9.75 7.3242-21.469 11.574-33.648 12.203s-24.273-2.3867-34.73-8.668c-53.062-31.961-97.488-76.438-129.39-129.54-6.2812-10.457-9.2969-22.551-8.668-34.73 0.62891-12.18 4.8789-23.898 12.203-33.648l21.664-29.473v-0.003907c9.0039-11.918 14.234-26.258 15.023-41.176 0.78906-14.914-2.9062-29.727-10.602-42.527l-19.895-33.453c-10.566-17.988-28.945-29.988-49.664-32.422-22.23-2.6211-44.414 5.2812-59.98 21.371l-13.852 13.852c-29.094 29.305-42.879 70.492-37.285 111.41 13.992 96.281 58.727 185.46 127.54 254.25 68.809 68.781 158.01 113.48 254.29 127.44 6.1016 0.88672 12.258 1.332 18.422 1.3281 34.969-0.070313 68.496-13.949 93.285-38.613l16.211-16.062h-0.003906c14.98-14.902 22.168-35.93 19.453-56.883z"/>
  <path d="m350 169.47c29.312 0 57.426 11.645 78.152 32.375 20.73 20.727 32.375 48.84 32.375 78.152 0 5.2656 2.8086 10.129 7.3672 12.762 4.5586 2.6328 10.176 2.6328 14.738 0 4.5586-2.6328 7.3672-7.4961 7.3672-12.762-0.039062-37.117-14.801-72.707-41.047-98.953s-61.836-41.008-98.953-41.047c-5.2656 0-10.129 2.8086-12.762 7.3672-2.6328 4.5625-2.6328 10.18 0 14.738 2.6328 4.5586 7.4961 7.3672 12.762 7.3672z"/>
  <path d="m350 106.84c45.914 0.039062 89.934 18.293 122.4 50.758 32.465 32.465 50.719 76.484 50.758 122.4 0 5.2656 2.8086 10.129 7.3711 12.762 4.5586 2.6328 10.176 2.6328 14.734 0 4.5625-2.6328 7.3711-7.4961 7.3711-12.762-0.078124-53.719-21.453-105.21-59.438-143.2-37.984-37.984-89.477-59.359-143.2-59.438-5.2656 0-10.129 2.8086-12.762 7.3711-2.6328 4.5586-2.6328 10.176 0 14.734 2.6328 4.5625 7.4961 7.3711 12.762 7.3711z"/>
  <path d="m350 44.211c41.391 0 82.051 10.895 117.89 31.59 35.844 20.695 65.609 50.461 86.305 86.305 20.695 35.844 31.59 76.504 31.59 117.89 0 5.2656 2.8086 10.129 7.3672 12.762 4.5625 2.6328 10.18 2.6328 14.738 0 4.5586-2.6328 7.3672-7.4961 7.3672-12.762 0-70.352-27.945-137.82-77.691-187.57-49.746-49.746-117.22-77.691-187.57-77.691-5.2656 0-10.129 2.8086-12.762 7.3672-2.6328 4.5586-2.6328 10.176 0 14.738 2.6328 4.5586 7.4961 7.3672 12.762 7.3672z"/>
 </g>
</svg>
