<svg width="34" height="34" viewBox="0 0 34 34" fill="none" xmlns="http://www.w3.org/2000/svg">
<path d="M1 17C1 8.16344 8.16344 1 17 1C25.8366 1 33 8.16344 33 17C33 25.8366 25.8366 33 17 33C8.16344 33 1 25.8366 1 17Z" fill="white" stroke="#DDDDDD"/>
<path d="M16.9999 12.7475C18.3019 12.7475 19.1801 13.3099 19.6808 13.7798L21.6376 11.8693C20.4358 10.7523 18.8719 10.0667 16.9999 10.0667C14.2882 10.0667 11.9463 11.6228 10.8062 13.8877L13.0479 15.6287C13.6103 13.957 15.1664 12.7475 16.9999 12.7475V12.7475Z" fill="#EA4335"/>
<path d="M23.656 17.1541C23.656 16.584 23.6098 16.168 23.5096 15.7366H17V18.3096H20.821C20.744 18.949 20.328 19.912 19.4036 20.5591L21.5914 22.2539C22.901 21.0444 23.656 19.2649 23.656 17.1541V17.1541Z" fill="#4285F4"/>
<path d="M13.0554 18.3713C12.9091 17.9398 12.8243 17.4776 12.8243 17C12.8243 16.5224 12.9091 16.0601 13.0477 15.6287L10.806 13.8877C10.336 14.8275 10.0664 15.883 10.0664 17C10.0664 18.117 10.336 19.1724 10.806 20.1123L13.0554 18.3713V18.3713Z" fill="#FBBC05"/>
<path d="M16.9996 23.9334C18.8716 23.9334 20.4431 23.3171 21.591 22.254L19.4031 20.5592C18.8176 20.9675 18.0318 21.2525 16.9996 21.2525C15.1661 21.2525 13.6099 20.043 13.0553 18.3713L10.8135 20.1124C11.9536 22.3773 14.2878 23.9334 16.9996 23.9334V23.9334Z" fill="#34A853"/>
</svg>
