<svg width="700pt" height="700pt" version="1.1" viewBox="0 0 700 700" xmlns="http://www.w3.org/2000/svg">
 <path d="m407.57 289.89h-250.07c-7.2461 0-13.125-5.8789-13.125-13.125 0-7.2461 5.8789-13.125 13.125-13.125h255.24l-59.852-59.762c-2.1875-2.3438-3.5156-5.4766-3.5156-8.9414 0-7.2461 5.8789-13.125 13.125-13.125 3.4648 0 6.6133 1.3477 8.9609 3.5352l79.449 79.449c2.3438 2.3633 3.7969 5.6367 3.7969 9.2227s-1.4531 6.8594-3.7969 9.2383l-79.449 80.414c-2.3438 2.2031-5.5117 3.5703-8.9961 3.5703-7.2461 0-13.125-5.8789-13.125-13.125 0-3.4492 1.3281-6.5781 3.5-8.9062zm98.09-130.55c-30.871-30.887-73.535-49.98-120.66-49.98s-89.793 19.109-120.66 49.98c-2.1875 2.3438-3.5156 5.4766-3.5156 8.9414 0 7.2461 5.8789 13.125 13.125 13.125 3.4648 0 6.6133-1.3477 8.9609-3.5352 26.129-26.129 62.23-42.297 102.09-42.297 79.73 0 144.38 64.645 144.38 144.38 0 79.73-64.645 144.38-144.38 144.38-39.883 0-75.984-16.172-102.11-42.297-2.3438-2.1875-5.4766-3.5156-8.9414-3.5156-7.2461 0-13.125 5.8789-13.125 13.125 0 3.4648 1.3477 6.6133 3.5352 8.9609 31.012 31.797 74.289 51.504 122.17 51.504 94.238 0 170.62-76.387 170.62-170.62 0-47.863-19.703-91.105-51.434-122.1z"/>
</svg>