<svg width="32" height="32" viewBox="0 0 32 32" fill="none" xmlns="http://www.w3.org/2000/svg">
    <path d="M0 16C0 7.16344 7.16344 0 16 0C24.8366 0 32 7.16344 32 16C32 24.8366 24.8366 32 16 32C7.16344 32 0 24.8366 0 16Z" fill="#005FF9"/>
    <path fill-rule="evenodd" clip-rule="evenodd" d="M6.6665 15.9736C6.6665 10.8418 10.8533 6.66675 15.9997 6.66675C21.1461 6.66675 25.333 10.8418 25.333 15.9736C25.333 16.7006 25.2723 17.2891 25.1363 17.8799L25.1344 17.8897C25.134 17.8914 25.0666 18.1637 25.0293 18.2825C24.7986 19.0182 24.381 19.6309 23.8215 20.0544C23.2789 20.4652 22.6061 20.6915 21.9272 20.6915C21.8433 20.6915 21.7588 20.6881 21.6761 20.6814C20.712 20.6043 19.8642 20.0983 19.3444 19.2916C18.4503 20.1881 17.2641 20.6813 15.9997 20.6813C13.3966 20.6813 11.2788 18.5694 11.2788 15.9736C11.2788 13.3778 13.3966 11.266 15.9997 11.266C18.6028 11.266 20.7206 13.3778 20.7206 15.9736V17.4911C20.7245 18.3766 21.3204 18.7385 21.8294 18.7795C22.3359 18.8185 23.0099 18.5243 23.2448 17.5641C23.3606 17.0375 23.4194 16.5023 23.4194 15.9736C23.4194 11.8939 20.0909 8.57483 15.9997 8.57483C11.9085 8.57483 8.58004 11.8939 8.58004 15.9736C8.58004 20.0533 11.9085 23.3724 15.9997 23.3724C17.4238 23.3724 18.8089 22.9668 20.0051 22.1995L20.0265 22.1857L21.2839 23.6434L21.2569 23.6618C19.7031 24.7208 17.8852 25.2806 15.9997 25.2806C10.8533 25.2806 6.6665 21.1055 6.6665 15.9736ZM15.9998 18.7731C17.5477 18.7731 18.8071 17.5172 18.8071 15.9736C18.8071 14.43 17.5477 13.1742 15.9998 13.1742C14.4517 13.1742 13.1924 14.43 13.1924 15.9736C13.1924 17.5172 14.4517 18.7731 15.9998 18.7731Z" fill="#FF9E00"/>
</svg>
