<svg width="700pt" height="700pt" version="1.1" viewBox="0 0 700 700" xmlns="http://www.w3.org/2000/svg">
 <path d="m610.99 520.06-139.12-138.97h0.003906c37.934-43.328 57.543-99.703 54.684-157.22-2.8594-57.516-27.965-111.67-70.016-151.02-42.047-39.352-97.742-60.816-155.32-59.863-57.578 0.95312-112.54 24.254-153.26 64.973-40.719 40.723-64.02 95.68-64.973 153.26-0.95312 57.582 20.512 113.28 59.863 155.32 39.348 42.051 93.504 67.156 151.02 70.016 57.52 2.8594 113.89-16.75 157.22-54.684l138.97 139.12v-0.003907c2.7695 2.793 6.5352 4.3594 10.465 4.3594 3.9297 0 7.6953-1.5664 10.461-4.3594 2.793-2.7656 4.3594-6.5312 4.3594-10.461 0-3.9297-1.5664-7.6953-4.3594-10.465zm-496.78-284.27c0-50.809 20.184-99.539 56.113-135.46 35.926-35.93 84.656-56.113 135.46-56.113 50.809 0 99.539 20.184 135.47 56.113 35.926 35.926 56.109 84.656 56.109 135.46 0 50.809-20.184 99.539-56.109 135.47-35.93 35.926-84.66 56.109-135.47 56.109-50.809 0-99.539-20.184-135.46-56.109-35.93-35.93-56.113-84.66-56.113-135.47z"/>
</svg>