<svg width="32" height="32" viewBox="0 0 32 32" fill="none" xmlns="http://www.w3.org/2000/svg">
<path d="M0 16C0 7.16344 7.16344 0 16 0C24.8366 0 32 7.16344 32 16C32 24.8366 24.8366 32 16 32C7.16344 32 0 24.8366 0 16Z" fill="#4C6C91"/>
<path d="M16.8371 21.2508C16.8371 21.2508 17.1451 21.2172 17.3029 21.0509C17.4473 20.8985 17.4423 20.6109 17.4423 20.6109C17.4423 20.6109 17.4231 19.2679 18.0583 19.0696C18.6844 18.8746 19.4882 20.3683 20.3413 20.9427C20.9857 21.377 21.4749 21.2819 21.4749 21.2819L23.7545 21.2508C23.7545 21.2508 24.9465 21.1787 24.3814 20.2585C24.3347 20.1831 24.0517 19.5776 22.6869 18.3338C21.257 17.0319 21.449 17.2424 23.1702 14.99C24.2186 13.6184 24.6377 12.781 24.5066 12.4229C24.3822 12.0804 23.6109 12.1714 23.6109 12.1714L21.045 12.1869C21.045 12.1869 20.8547 12.1615 20.7136 12.2443C20.5759 12.3254 20.4865 12.5147 20.4865 12.5147C20.4865 12.5147 20.0809 13.5758 19.5391 14.4787C18.3964 16.3829 17.9398 16.4837 17.7528 16.3657C17.3179 16.0896 17.4264 15.2579 17.4264 14.6672C17.4264 12.8211 17.7119 12.0517 16.8713 11.8526C16.5925 11.7862 16.3872 11.7428 15.6735 11.7354C14.7578 11.7264 13.9832 11.7387 13.5441 11.9493C13.2519 12.0894 13.0266 12.4024 13.1643 12.4204C13.3337 12.4426 13.7177 12.522 13.9214 12.7941C14.1843 13.1456 14.1751 13.9338 14.1751 13.9338C14.1751 13.9338 14.3262 16.1068 13.8221 16.3764C13.4765 16.5615 13.0023 16.1838 11.9831 14.4558C11.4614 13.5708 11.0674 12.5925 11.0674 12.5925C11.0674 12.5925 10.9915 12.4098 10.8554 12.3115C10.691 12.1927 10.4614 12.1558 10.4614 12.1558L8.02318 12.1714C8.02318 12.1714 7.65673 12.1812 7.52234 12.3377C7.40297 12.4762 7.51316 12.7638 7.51316 12.7638C7.51316 12.7638 9.42219 17.1482 11.5841 19.358C13.5666 21.3835 15.8171 21.2508 15.8171 21.2508H16.8371Z" fill="white"/>
</svg>
