<svg width="34" height="34" viewBox="0 0 34 34" fill="none" xmlns="http://www.w3.org/2000/svg">
<path d="M1 17C1 8.16344 8.16344 1 17 1C25.8366 1 33 8.16344 33 17C33 25.8366 25.8366 33 17 33C8.16344 33 1 25.8366 1 17Z" fill="white" stroke="#DDDDDD"/>
<path d="M18.2773 19.0633C17.8903 19.0633 17.5266 19.0633 17.1628 19.0633C16.6965 19.9286 16.2303 20.7894 15.7686 21.6502C15.2697 22.582 14.7754 23.5093 14.2811 24.4411C14.2718 24.4589 14.2532 24.4766 14.2485 24.4988C14.1039 24.9159 13.8008 25.0357 13.3579 24.9913C13.0035 24.9558 12.6444 24.9869 12.2854 24.9824C12.0196 24.978 11.9263 24.8271 12.0616 24.6008C12.4906 23.8643 12.9242 23.1277 13.3532 22.3912C13.9314 21.3973 14.5003 20.3945 15.0738 19.4006C15.1904 19.2009 15.307 19.0057 15.4375 18.7882C15.2464 18.6862 15.0692 18.5886 14.892 18.491C13.8008 17.9008 13.1294 16.9912 12.789 15.8642C12.6025 15.2386 12.5791 14.5907 12.6118 13.9341C12.6398 13.3129 12.7424 12.7094 12.9429 12.1148C13.232 11.254 13.7029 10.5131 14.4443 9.93623C15.279 9.27954 16.2536 9 17.3214 9C18.1048 9 18.8881 9 19.6762 9C19.928 9 19.9933 9.05768 19.9979 9.29729C20.0026 9.48364 19.9979 9.66557 19.9979 9.85192C19.9979 14.7416 19.9979 19.6357 19.9979 24.5254C19.9979 24.6053 19.9933 24.6896 19.9979 24.7695C20.0026 24.907 19.9373 24.978 19.7928 24.978C19.3591 24.978 18.9208 24.9869 18.4871 24.9691C18.4172 24.9647 18.3332 24.8582 18.2866 24.7828C18.254 24.734 18.2773 24.6541 18.2773 24.5875C18.2773 22.8349 18.2773 21.0867 18.2773 19.334C18.2773 19.2497 18.2773 19.161 18.2773 19.0633ZM18.2633 10.3711C17.8157 10.3711 17.382 10.34 16.953 10.3799C16.3002 10.4376 15.75 10.7083 15.3256 11.2052C14.892 11.7111 14.6728 12.2923 14.5469 12.9224C14.3977 13.6678 14.3884 14.4177 14.5283 15.1676C14.6588 15.8598 14.9293 16.4898 15.4655 17.0001C16.2536 17.75 17.2421 17.7544 18.2633 17.6878C18.2633 15.243 18.2633 12.8159 18.2633 10.3711Z" fill="#EC1A23"/>
</svg>
