<svg width="700pt" height="700pt" version="1.1" viewBox="0 0 700 700" xmlns="http://www.w3.org/2000/svg" xmlns:xlink="http://www.w3.org/1999/xlink">
    <g>
        <path d="m97.18 32.648v13.234 35.984 53.266 64.969 71.148 71.859 66.992 56.602 40.578c0 6.4531-0.10938 12.906 0 19.359v0.82031c0 2.9531 2.5156 5.4688 5.4688 5.4688h52.609 41.07 55.18 46.867 44.734 50.586 51.078 41.617 54.523 50.039 6.3984c7.0547 0 7.0547-10.938 0-10.938h-53.102-40.141-56.438-48.453-38.773-59.227-46.211-41.016-55.836-49-6.5078l5.4688 5.4688v-13.234-35.984-53.266-64.969-71.148-71.859-66.992-56.602-40.578c0-6.4531 0.10937-12.906 0-19.359v-0.82031c0-7.0547-10.938-7.0547-10.938 0z"/>
        <path d="m246.64 295.48v22.969 55.508 66.883 57.805 19.086c0 2.9531-0.27344 6.125 0 9.0781v0.38281c1.8047-1.8047 3.6641-3.6641 5.4688-5.4688h-31.992-50.75-11.812c1.8047 1.8047 3.6641 3.6641 5.4688 5.4688v-41.234-87.719-79.953-20.453c0-1.1484-0.27344-2.8984 0.4375-3.7734 1.3125-1.75 5.7969-0.92969 7.7109-0.92969h41.016c10.5 0 21.164-0.4375 31.664 0 1.4219 0.054688 2.7344 0.65625 2.7891 2.3516 0.32812 7 11.266 7.0547 10.938 0-0.32812-7.0547-5.3594-12.688-12.523-13.234-0.92969-0.054688-1.9141-0.054688-2.8438-0.054688h-14.93-45.391-14.656c-1.4219 0-2.6797 0-4.1016 0.21875-6.4531 1.0391-10.828 6.6172-11.102 13.07-0.16406 3.9922 0 8.0391 0 12.086v74.539 92.148c0 17.391-0.38281 34.781 0 52.117v0.76562c0 2.9531 2.5156 5.4688 5.4688 5.4688h31.992 50.75 11.812c2.9531 0 5.4688-2.5156 5.4688-5.4688v-22.969-55.508-66.883-57.805c0-9.3516 0.38281-18.812 0-28.164v-0.38281c0.054687-7-10.883-7-10.883 0.054687z"/>
        <path d="m397.03 168.6v35.602 85.586 103.58 89.578 29.531c0 4.6484-0.27344 9.4062 0 14.055v0.65625l5.4688-5.4688h-31.992-50.75-11.812c1.8047 1.8047 3.6641 3.6641 5.4688 5.4688v-14.602-38.609-54.688-63.492-64.422-57.695-43.203c0-7-0.054687-14 0-21 0-0.27344-0.054687-0.76562-0.054687-0.92969 0.32812-2.4609 2.4062-2.3516 4.3203-2.3516h22.148 53.375c1.75 0.054688 3.7188 0.10938 3.8281 2.4062 0.32812 7 11.266 7.0547 10.938 0-0.38281-7.6016-6.0156-13.07-13.562-13.289-2.0234-0.054688-4.1016 0-6.125 0h-27.891-30.953-10.336c-2.2422 0-4.4844-0.10938-6.6719 0.4375-11.484 2.7344-10.008 14.766-10.008 23.625v36.531 54.523 64.094 65.734 59.445 44.625c0 7.2734-0.10938 14.602 0 21.93v0.98438c0 2.9531 2.5156 5.4688 5.4688 5.4688h31.992 50.75 11.812c2.9531 0 5.4688-2.5156 5.4688-5.4688v-35.602-85.586-103.58-89.578c0-14.547 0.38281-29.094 0-43.641v-0.65625c0.054688-7.0547-10.883-7.0547-10.883 0z"/>
        <path d="m547.97 223.29v30.297 72.734 87.664 75.797 25.156c0 3.8828-0.27344 7.875 0 11.758v0.49219l5.4688-5.4688h-31.992-50.75-11.812c1.8047 1.8047 3.6641 3.6641 5.4688 5.4688v-13.234-34.672-48.891-56.219-55.836-48.727-33.961-9.3516c0-1.2578-0.32812-3.3359 0.4375-4.375 0.875-1.2031 2.2969-0.98438 3.6094-0.98438h7.2734 24.555c14.82 0 29.641-0.10938 44.461 0 1.5859 0 3.1719 0.38281 3.2812 2.3516 0.32812 7 11.266 7.0547 10.938 0-0.32812-7.4922-5.8516-13.016-13.398-13.289-1.3672-0.054688-2.7891 0-4.1562 0h-22.094-49.492c-1.3125 0-2.5703-0.054688-3.8828 0.054688-7.1641 0.54687-12.25 6.2344-12.523 13.289-0.054687 1.3672 0 2.7891 0 4.1562v26.961 44.953 55.398 58.078 53.047 40.359c0 6.6719-0.10938 13.344 0 20.016v0.875c0 2.9531 2.5156 5.4688 5.4688 5.4688h31.992 50.75 11.812c2.9531 0 5.4688-2.5156 5.4688-5.4688v-30.297-72.734-87.664-75.797c0-12.305 0.38281-24.664 0-36.969v-0.49219c0.054688-7-10.883-7-10.883 0.054687z"/>
    </g>
</svg>