<svg width="40" height="40" viewBox="0 0 40 40" fill="none" xmlns="http://www.w3.org/2000/svg">
<g clip-path="url(#clip0_1578_36450)">
<path d="M39.6085 20.4607C39.6085 19.1011 39.4982 17.7342 39.2631 16.3967H20.3984V24.0984H31.2013C30.753 26.5823 29.3127 28.7796 27.2035 30.1759V35.1731H33.6485C37.4332 31.6898 39.6085 26.5455 39.6085 20.4607Z" fill="#4285F4"/>
<path d="M20.4037 40.0014C25.7978 40.0014 30.3468 38.2303 33.6611 35.1731L27.2162 30.1759C25.423 31.3958 23.1081 32.0866 20.4111 32.0866C15.1934 32.0866 10.7694 28.5665 9.18199 23.8338H2.53125V28.9854C5.92644 35.739 12.8417 40.0014 20.4037 40.0014Z" fill="#34A853"/>
<path d="M9.16934 23.8338C8.33156 21.3499 8.33156 18.6602 9.16934 16.1763V11.0247H2.52594C-0.31073 16.676 -0.31073 23.3341 2.52594 28.9854L9.16934 23.8338Z" fill="#FBBC04"/>
<path d="M20.4037 7.9161C23.2551 7.87201 26.0109 8.94494 28.076 10.9144L33.7861 5.20436C30.1704 1.80917 25.3716 -0.0574433 20.4037 0.00134778C12.8417 0.00134778 5.92644 4.2637 2.53125 11.0247L9.17464 16.1762C10.7547 11.4362 15.186 7.9161 20.4037 7.9161Z" fill="#EA4335"/>
</g>
<defs>
<clipPath id="clip0_1578_36450">
<rect width="40" height="40" fill="white"/>
</clipPath>
</defs>
</svg>
