<?xml version="1.0" standalone="no"?>
<!DOCTYPE svg PUBLIC "-//W3C//DTD SVG 1.1//EN" "http://www.w3.org/Graphics/SVG/1.1/DTD/svg11.dtd" >
<svg xmlns="http://www.w3.org/2000/svg" xmlns:xlink="http://www.w3.org/1999/xlink" version="1.1">
<metadata>
Created by FontForge 20200427 at Thu Dec  6 19:39:31 2012
 By www
Copyright (c) 1997 - 2010 Linotype GmbH, www.linotype.com. All rights reserved. This font software may not be reproduced, modified, disclosed or transferred without the express written approval of Linotype GmbH. Univers is a trademark of Linotype Corp. registered in the U.S. Patent and Trademark Office and may be registered in certain other jurisdictions in the name of Linotype Corp. or its licensee Linotype GmbH. This typeface is original artwork of Adrian Frutiger and Linotype Design Studio. The design may be protected in certain jurisdictions.
</metadata>
<defs>
<font id="UniversNextW04-330Light" horiz-adv-x="560" >
  <font-face 
    font-family="UniversNextW04-330Light"
    font-weight="300"
    font-stretch="normal"
    units-per-em="1000"
    panose-1="2 11 4 3 3 2 2 2 2 3"
    ascent="750"
    descent="-250"
    x-height="505"
    cap-height="723"
    bbox="-199 -218 1052 937"
    underline-thickness="50"
    underline-position="-100"
    unicode-range="U+000D-FB04"
  />
<missing-glyph horiz-adv-x="512" 
d="M222 117v67h56v-67h-56zM223 234v17q0 27 3 46.5t10 35t18 29t28 29.5q16 16 26 28t15 22t7 19t2 20q0 36 -22.5 57.5t-53.5 21.5t-53.5 -22t-28.5 -73l-50 8q7 72 44 104.5t91 32.5q27 0 49.5 -9t39 -25t26 -39.5t9.5 -51.5q0 -17 -2.5 -32.5t-9.5 -30.5t-19.5 -30
t-31.5 -33q-16 -14 -25.5 -25t-15 -22t-7 -23.5t-1.5 -29.5v-24h-48zM462 50v617h-412v-617h412zM512 718v-718h-512v718h512z" />
    <glyph glyph-name="IJ" unicode="IJ" horiz-adv-x="769" 
d="M105 0v723h65v-723h-65zM680 210q0 -37 -5.5 -73.5t-27.5 -67.5q-30 -42 -76.5 -59.5t-96.5 -17.5q-38 0 -72 11t-60.5 32t-42 52t-15.5 72v8t1 8h66q0 -3 -0.5 -6t-0.5 -6q0 -27 10 -49t27 -37t40.5 -23t49.5 -8q39 0 65.5 13t42.5 36t23 53.5t7 65.5v509h65v-513z" />
    <glyph glyph-name="ij" unicode="ij" horiz-adv-x="470" 
d="M81 647v76h73v-76h-73zM87 0v505h61v-505h-61zM316 647v76h73v-76h-73zM383 -71q0 -34 -6 -56t-20.5 -34.5t-37.5 -17t-56 -4.5q-11 0 -21 0.5t-21 1.5v49q19 -3 39 -3q22 0 34.5 5.5t18.5 16t7.5 25t1.5 33.5v560h61v-576z" />
    <glyph glyph-name="napostrophe" unicode="&#x20;n" horiz-adv-x="574" 
d="M429 0v285q0 35 -3.5 66.5t-16.5 55.5t-38.5 38t-68.5 14t-72.5 -15.5t-47.5 -42t-26 -61t-8 -71.5v-269h-61v362q0 36 -1.5 71.5t-1.5 71.5h60l4 -84q31 46 70 67.5t95 21.5q51 0 85.5 -14t54.5 -40t28.5 -63t8.5 -84v-309h-61zM54 723l-57 -189h-50l31 189h76z" />
    <glyph glyph-name="uniFB00" unicode="ff" horiz-adv-x="636" 
d="M301 680q-7 1 -16.5 1.5t-18.5 0.5q-28 0 -45 -5.5t-26 -17t-12 -30t-3 -44.5v-80h112v-45h-112v-460h-61v460h-102v45h102v75q0 30 3.5 57t16 47.5t36 33t63.5 12.5q31 0 63 -3v-47zM619 680q-7 1 -16.5 1.5t-18.5 0.5q-28 0 -45 -5.5t-26 -17t-12 -30t-3 -44.5v-80h112
v-45h-112v-460h-61v460h-102v45h102v75q0 30 3.5 57t16 47.5t36 33t63.5 12.5q31 0 63 -3v-47z" />
    <glyph glyph-name="uniFB01" unicode="fi" horiz-adv-x="549" 
d="M301 680q-7 1 -16.5 1.5t-18.5 0.5q-28 0 -45 -5.5t-26 -17t-12 -30t-3 -44.5v-80h112v-45h-112v-460h-61v460h-102v45h102v75q0 30 3.5 57t16 47.5t36 33t63.5 12.5q31 0 63 -3v-47zM396 647v76h73v-76h-73zM402 0v505h61v-505h-61z" />
    <glyph glyph-name="uniFB02" unicode="fl" horiz-adv-x="549" 
d="M301 680q-7 1 -16.5 1.5t-18.5 0.5q-28 0 -45 -5.5t-26 -17t-12 -30t-3 -44.5v-80h112v-45h-112v-460h-61v460h-102v45h102v75q0 30 3.5 57t16 47.5t36 33t63.5 12.5q31 0 63 -3v-47zM402 0v723h61v-723h-61z" />
    <glyph glyph-name="uniFB03" unicode="ffi" horiz-adv-x="867" 
d="M301 680q-7 1 -16.5 1.5t-18.5 0.5q-28 0 -45 -5.5t-26 -17t-12 -30t-3 -44.5v-80h112v-45h-112v-460h-61v460h-102v45h102v75q0 30 3.5 57t16 47.5t36 33t63.5 12.5q31 0 63 -3v-47zM619 680q-7 1 -16.5 1.5t-18.5 0.5q-28 0 -45 -5.5t-26 -17t-12 -30t-3 -44.5v-80h112
v-45h-112v-460h-61v460h-102v45h102v75q0 30 3.5 57t16 47.5t36 33t63.5 12.5q31 0 63 -3v-47zM714 647v76h73v-76h-73zM720 0v505h61v-505h-61z" />
    <glyph glyph-name="uniFB04" unicode="ffl" horiz-adv-x="867" 
d="M301 680q-7 1 -16.5 1.5t-18.5 0.5q-28 0 -45 -5.5t-26 -17t-12 -30t-3 -44.5v-80h112v-45h-112v-460h-61v460h-102v45h102v75q0 30 3.5 57t16 47.5t36 33t63.5 12.5q31 0 63 -3v-47zM619 680q-7 1 -16.5 1.5t-18.5 0.5q-28 0 -45 -5.5t-26 -17t-12 -30t-3 -44.5v-80h112
v-45h-112v-460h-61v460h-102v45h102v75q0 30 3.5 57t16 47.5t36 33t63.5 12.5q31 0 63 -3v-47zM720 0v723h61v-723h-61z" />
    <glyph glyph-name=".notdef" horiz-adv-x="512" 
d="M222 117v67h56v-67h-56zM223 234v17q0 27 3 46.5t10 35t18 29t28 29.5q16 16 26 28t15 22t7 19t2 20q0 36 -22.5 57.5t-53.5 21.5t-53.5 -22t-28.5 -73l-50 8q7 72 44 104.5t91 32.5q27 0 49.5 -9t39 -25t26 -39.5t9.5 -51.5q0 -17 -2.5 -32.5t-9.5 -30.5t-19.5 -30
t-31.5 -33q-16 -14 -25.5 -25t-15 -22t-7 -23.5t-1.5 -29.5v-24h-48zM462 50v617h-412v-617h412zM512 718v-718h-512v718h512z" />
    <glyph glyph-name="glyph1" horiz-adv-x="567" 
 />
    <glyph glyph-name="glyph1" horiz-adv-x="567" 
 />
    <glyph glyph-name="uni000D" unicode="&#xd;" horiz-adv-x="0" 
 />
    <glyph glyph-name="space" unicode=" " horiz-adv-x="280" 
 />
    <glyph glyph-name="exclam" unicode="!" horiz-adv-x="320" 
d="M188 169h-56l-12 554h80zM120 0v86h80v-86h-80z" />
    <glyph glyph-name="quotedbl" unicode="&#x22;" horiz-adv-x="358" 
d="M280 493h-50l-8 230h66zM128 493h-49l-9 230h67z" />
    <glyph glyph-name="numbersign" unicode="#" 
d="M425 449l-32 -178h113v-48h-122l-40 -223h-54l40 223h-149l-40 -223h-54l40 223h-114v48h123l32 178h-114v48h123l40 226h54l-40 -226h149l40 226h54l-41 -226h115v-48h-123zM222 449l-33 -178h150l32 178h-149z" />
    <glyph glyph-name="dollar" unicode="$" 
d="M516 186q0 -48 -17.5 -82t-47 -57t-67 -35t-77.5 -16v-82h-44v81q-45 1 -85.5 10.5t-70.5 31.5t-47.5 58t-17.5 89h68q0 -38 11.5 -63.5t32 -41.5t48.5 -23.5t61 -8.5v288q-38 12 -75 26t-66.5 36.5t-47.5 55.5t-18 82q0 45 18 79t47 57t66 35t76 15v81h44v-82
q39 -3 73 -12.5t60.5 -28.5t43 -49.5t20.5 -74.5h-68q-2 30 -13 50t-28 32.5t-40 19t-48 9.5v-281q39 -12 76.5 -25.5t67 -35.5t47.5 -54.5t18 -83.5zM263 666q-27 -2 -52.5 -10.5t-45 -24t-31 -39.5t-11.5 -55q0 -32 12.5 -54.5t32.5 -38.5t45 -26.5t50 -17.5v266zM448 185
q0 33 -13 55t-33 37t-45 25t-50 18v-272q27 3 52.5 13t45 26.5t31.5 40.5t12 57z" />
    <glyph glyph-name="percent" unicode="%" horiz-adv-x="915" 
d="M879 183q0 -37 -9 -71t-28.5 -60.5t-49.5 -42t-71 -15.5q-40 0 -70 15.5t-49.5 42t-29 60.5t-9.5 70t10 70.5t29.5 61.5t49.5 43t70 16q42 0 71.5 -15.5t48.5 -42t28 -61t9 -71.5zM262 -25h-58l442 776h56zM352 546q0 -37 -9 -71t-28.5 -60.5t-49.5 -42t-71 -15.5
q-40 0 -70 15.5t-49.5 42t-29 60.5t-9.5 70t10 70.5t29.5 61.5t49.5 43t70 16q42 0 71.5 -15.5t48.5 -42t28 -61t9 -71.5zM822 184q0 23 -4.5 48t-15.5 46t-30 35t-47 14q-30 0 -50 -13.5t-32 -34.5t-17 -47t-5 -51q0 -24 5 -49.5t17 -46t31.5 -34t48.5 -13.5t48 14t30.5 35
t16 47t4.5 50zM295 547q0 23 -4.5 48t-15.5 46t-30 35t-47 14q-30 0 -50 -13.5t-32 -34.5t-17 -47t-5 -51q0 -24 5 -49.5t17 -46t31.5 -34t48.5 -13.5t48 14t30.5 35t16 47t4.5 50z" />
    <glyph glyph-name="ampersand" unicode="&#x26;" horiz-adv-x="693" 
d="M554 360v-360h-223q-61 0 -113 11t-90 35t-59.5 62t-21.5 92q0 43 14 75t38 54.5t55.5 36.5t66.5 20v3q-33 8 -59 20.5t-44 32.5t-27.5 47.5t-9.5 65.5q0 49 22.5 83.5t57 56.5t76.5 32t82 10q33 0 66 -4.5t65 -10.5v-61q-32 9 -63.5 15t-64.5 6q-36 0 -67.5 -8
t-55.5 -24.5t-37.5 -43t-13.5 -62.5q0 -38 16.5 -63.5t45.5 -41t69 -22t87 -6.5h125v165h63v-165h128v-51h-128zM491 360h-137q-115 0 -176.5 -34t-61.5 -116q0 -84 58 -119t176 -35h141v304z" />
    <glyph glyph-name="quotesingle" unicode="'" horiz-adv-x="207" 
d="M128 493h-49l-9 230h67z" />
    <glyph glyph-name="parenleft" unicode="(" horiz-adv-x="292" 
d="M190 -147q-21 54 -41.5 108t-36.5 108.5t-26 109t-10 108.5t9.5 107.5t25.5 107.5t36.5 109t43.5 112h43q-38 -119 -65.5 -226t-27.5 -210q0 -49 8 -103.5t20.5 -111t29.5 -112t35 -107.5h-44z" />
    <glyph glyph-name="parenright" unicode=")" horiz-adv-x="292" 
d="M58 -147q18 52 35 107.5t29.5 112t20.5 111t8 103.5q0 103 -27.5 210t-65.5 226h43q22 -57 43 -112t37 -109t25.5 -107.5t9.5 -107.5t-10 -108.5t-26 -109t-36.5 -108.5t-41.5 -108h-44z" />
    <glyph glyph-name="asterisk" unicode="*" horiz-adv-x="439" 
d="M251 530l86 -130l-52 -26l-65 137l-68 -140l-50 29l87 129l-153 -11v58l154 -11l-90 126l52 29l68 -137l67 137l51 -28l-88 -127l153 11v-58z" />
    <glyph glyph-name="plus" unicode="+" horiz-adv-x="676" 
d="M368 217v-217h-60v217h-220v54h220v216h60v-216h220v-54h-220z" />
    <glyph glyph-name="comma" unicode="," horiz-adv-x="280" 
d="M108 -120h-54l51 206h83z" />
    <glyph glyph-name="hyphen" unicode="-" horiz-adv-x="329" 
d="M38 241v53h253v-53h-253z" />
    <glyph glyph-name="period" unicode="." horiz-adv-x="280" 
d="M100 0v86h80v-86h-80z" />
    <glyph glyph-name="slash" unicode="/" horiz-adv-x="293" 
d="M60 -11h-63l237 747h62z" />
    <glyph glyph-name="zero" unicode="0" 
d="M509 372q0 -59 -9 -126t-34.5 -124t-70.5 -94.5t-117 -37.5q-50 0 -86 17.5t-61.5 47t-41 68.5t-24.5 82t-12 87t-3 84q0 55 10 118t36 117t71 89.5t116 35.5t115 -35t69 -89t33.5 -118t8.5 -122zM442 361q0 27 -2 61.5t-7.5 70.5t-16.5 70t-28.5 60.5t-43 43t-61.5 16.5
q-56 0 -88.5 -34t-50 -83.5t-22.5 -104.5t-5 -98q0 -26 2 -60.5t8 -70t16.5 -70t28.5 -61t43.5 -43t60.5 -16.5q36 0 62.5 16t45 42t30 59.5t18 69t8.5 70t2 62.5z" />
    <glyph glyph-name="one" unicode="1" 
d="M279 0v652q-19 -17 -35 -29.5t-34 -23.5t-39 -23l-49 -28v62q48 21 86 48.5t75 64.5h58v-723h-62z" />
    <glyph glyph-name="two" unicode="2" 
d="M52 0v69q38 35 86.5 82t96 99t88.5 104t65 97q23 43 23 93q0 65 -38.5 101t-99.5 36q-65 0 -105.5 -40.5t-39.5 -109.5h-68q1 49 17 87t44.5 64.5t67.5 40t85 13.5q43 0 80.5 -11.5t65.5 -35t43.5 -58.5t15.5 -81q0 -39 -12.5 -75t-32.5 -69t-44.5 -63.5t-47.5 -58.5
q-50 -60 -107.5 -116.5t-112.5 -110.5h366v-57h-436z" />
    <glyph glyph-name="three" unicode="3" 
d="M505 194q0 -52 -21 -90.5t-55.5 -64t-77.5 -38t-88 -12.5q-47 0 -86.5 12.5t-69.5 38t-48 63t-21 88.5h67q0 -35 14 -62.5t36.5 -46.5t52 -29t60.5 -10q33 0 63 10.5t53.5 30t37 48.5t13.5 66t-13.5 65.5t-36.5 47.5t-53 29t-63 10q-20 0 -39 -3v59q19 -3 40 -3
q30 0 57.5 9t48 26.5t33 43t12.5 59.5q0 35 -13 61.5t-34.5 44t-49.5 26.5t-59 9q-135 0 -152 -141h-66q2 48 20 84t48 61t68.5 37.5t81.5 12.5t83 -11.5t71 -35t49.5 -59.5t18.5 -86q0 -65 -38 -107t-95 -59q34 -6 61.5 -22t47.5 -40t31 -55t11 -67z" />
    <glyph glyph-name="four" unicode="4" 
d="M420 162v-162h-65v162h-325v70l309 491h81v-506h111v-55h-111zM356 654l-269 -437h269v437z" />
    <glyph glyph-name="five" unicode="5" 
d="M508 234q0 -54 -16.5 -99t-47 -77.5t-73 -50.5t-94.5 -18q-44 0 -82 11t-67 34t-46.5 58.5t-19.5 84.5h72q1 -32 12.5 -57t31 -42t45 -25.5t55.5 -8.5q40 0 70.5 15t51 41.5t30.5 61.5t10 74q0 37 -9.5 69.5t-28 57t-47 39t-66.5 14.5q-53 0 -93.5 -29t-53.5 -84h-66
l16 422h381v-58h-319l-12 -269q29 38 64 56t86 18t91.5 -18t68 -49.5t42 -75.5t14.5 -95z" />
    <glyph glyph-name="six" unicode="6" 
d="M510 231q0 -50 -16 -93.5t-44.5 -76.5t-68.5 -52t-89 -19q-75 0 -122 31t-73 81.5t-35.5 113.5t-9.5 127q0 73 11 143.5t38.5 126t74.5 89.5t120 34q52 0 90.5 -14.5t64 -40t38.5 -59t13 -71.5h-71q-5 63 -37 96t-98 33q-40 0 -68.5 -15.5t-48 -41.5t-31.5 -60
t-18.5 -70.5t-9 -73.5t-3.5 -68q26 60 73.5 88.5t110.5 28.5q51 0 90 -18.5t65.5 -50.5t40 -75t13.5 -93zM442 233q0 37 -9 70t-27 58t-46 39.5t-66 14.5q-39 0 -69 -14.5t-51 -40t-32 -59t-11 -72.5q0 -36 10.5 -69t31 -58t49.5 -39.5t66 -14.5q39 0 68 14.5t48 40t28.5 59
t9.5 71.5z" />
    <glyph glyph-name="seven" unicode="7" 
d="M221 0h-75l287 666h-383v57h441v-64z" />
    <glyph glyph-name="eight" unicode="8" 
d="M515 201q0 -52 -19.5 -91.5t-52.5 -66.5t-75.5 -40.5t-88.5 -13.5q-45 0 -87.5 11.5t-75 36.5t-52.5 63t-20 91q0 76 41 122t109 63q-61 14 -100.5 54t-39.5 108q0 50 19.5 87t51.5 62t73 37t84 12q41 0 81 -11.5t71.5 -35.5t51 -59.5t19.5 -83.5q0 -71 -38 -111.5
t-101 -57.5q65 -13 107 -59t42 -117zM441 543q0 36 -13 62t-35 43t-51 25t-60 8q-32 0 -61.5 -8.5t-52 -26t-36 -44.5t-13.5 -63q0 -37 13.5 -63t36 -42.5t52 -24t60.5 -7.5q30 0 58.5 9t51 26.5t36.5 44t14 61.5zM447 197q0 39 -14 67.5t-37.5 47t-54.5 28t-64 9.5
t-63.5 -10t-53 -29t-36 -48t-13.5 -66q0 -38 13 -66t35.5 -47.5t52.5 -29t64 -9.5q33 0 64 10t54.5 29t38 47.5t14.5 66.5z" />
    <glyph glyph-name="nine" unicode="9" 
d="M503 398q0 -41 -3 -87t-11.5 -92t-24.5 -88.5t-42.5 -75t-65 -52t-91.5 -19.5q-44 0 -81.5 12t-65 35.5t-44 59.5t-19.5 84h71q3 -65 38 -98.5t100 -33.5q62 0 97 34t53 86.5t23 114.5t7 118q-58 -118 -183 -118q-48 0 -87 17t-67 47.5t-43 72.5t-15 91q0 51 17 93.5
t47 72.5t71.5 46.5t90.5 15.5q64 -1 107.5 -26.5t70.5 -70.5t38.5 -106t11.5 -133zM429 509q0 36 -11 67t-31 54.5t-48.5 36.5t-63.5 13q-36 0 -65.5 -13.5t-50.5 -36.5t-32.5 -55t-11.5 -69q0 -36 10 -67.5t29 -55t47 -36.5t64 -13q37 0 67.5 12.5t52 36t33 55.5t11.5 71z
" />
    <glyph glyph-name="colon" unicode=":" horiz-adv-x="280" 
d="M100 419v86h80v-86h-80zM100 0v86h80v-86h-80z" />
    <glyph glyph-name="semicolon" unicode=";" horiz-adv-x="280" 
d="M97 419v86h80v-86h-80zM110 -120h-54l51 206h83z" />
    <glyph glyph-name="less" unicode="&#x3c;" horiz-adv-x="675" 
d="M88 213v59l499 200v-60l-429 -170l429 -168v-60z" />
    <glyph glyph-name="equal" unicode="=" horiz-adv-x="676" 
d="M88 309v54h500v-54h-500zM88 122v54h500v-54h-500z" />
    <glyph glyph-name="greater" unicode="&#x3e;" horiz-adv-x="675" 
d="M88 14v60l429 168l-429 170v60l499 -200v-59z" />
    <glyph glyph-name="question" unicode="?" horiz-adv-x="485" 
d="M420 555q0 -38 -15 -70.5t-38.5 -61t-51 -53.5t-52.5 -49q-18 -17 -27 -31t-9 -40v-81h-56v73q0 20 0.5 38.5t11.5 36.5q19 32 48 57t56.5 50.5t47 56t19.5 73.5q0 34 -12 58.5t-33 40t-49 22.5t-59 7q-26 0 -51 -4.5t-51 -11.5v57q26 5 51.5 8t51.5 3q44 0 83.5 -9.5
t69.5 -30.5t47.5 -55t17.5 -84zM159 0v86h80v-86h-80z" />
    <glyph glyph-name="at" unicode="@" horiz-adv-x="983" 
d="M929 370q0 -65 -18.5 -115.5t-48.5 -85.5t-69 -53.5t-80 -18.5q-45 0 -74.5 24.5t-31.5 73.5q-19 -42 -61.5 -70t-94.5 -28q-39 0 -68 13t-47.5 35t-27.5 51.5t-9 62.5q0 45 13 91t39 82.5t64.5 59.5t88.5 23q56 0 86 -25.5t43 -64.5l13 80h56l-43 -248q-2 -11 -3 -22.5
t-1 -18.5q0 -14 3 -27t10.5 -23t20 -16t31.5 -6q27 0 55 15t51 43.5t37.5 70.5t14.5 97q0 71 -22.5 130t-67 101t-112 65t-157.5 23q-89 0 -165 -32.5t-131 -88.5t-86 -131.5t-31 -162.5q0 -82 26.5 -148.5t75 -113.5t116.5 -72.5t151 -25.5q67 0 131 16t112 45l23 -39
q-53 -34 -123.5 -51.5t-142.5 -17.5q-93 0 -170.5 28.5t-133 81.5t-86 128t-30.5 169q0 95 35 179t97 146.5t147.5 98.5t186.5 36q99 0 175 -26t127.5 -74t78.5 -115t27 -149zM616 352q0 22 -5.5 43t-18 37t-32.5 26t-48 10q-29 0 -53 -11t-42.5 -30.5t-31.5 -45t-20 -54.5
q-5 -17 -6.5 -34t-1.5 -33q0 -24 6 -45t18.5 -36.5t32.5 -25t48 -9.5q30 0 55 13.5t44 35.5t31.5 50t18.5 57q2 11 3.5 26t1.5 26z" />
    <glyph glyph-name="A" unicode="A" horiz-adv-x="693" 
d="M606 0l-82 202h-366l-78 -202h-69l295 723h69l307 -723h-76zM336 660l-157 -404h322z" />
    <glyph glyph-name="B" unicode="B" horiz-adv-x="656" 
d="M592 201q0 -62 -26 -101.5t-67.5 -61.5t-92.5 -30t-102 -8h-199v723h199q31 0 63.5 -1t62.5 -9q59 -17 95.5 -61.5t36.5 -107.5q0 -68 -35.5 -108.5t-98.5 -57.5q75 -10 119.5 -54.5t44.5 -122.5zM492 539q0 34 -12 58t-32 39t-47.5 22t-57.5 7h-173v-264h154q34 0 65 7
t53.5 23.5t36 42.5t13.5 65zM523 202q0 45 -15 73.5t-41 45t-60 22.5t-71 6h-166v-291h128q39 0 79.5 3t72.5 17.5t52.5 43.5t20.5 80z" />
    <glyph glyph-name="C" unicode="C" horiz-adv-x="664" 
d="M607 178q-17 -91 -83.5 -139.5t-162.5 -48.5q-82 0 -140 29t-95 79t-54 116.5t-17 140.5q0 76 19 144.5t58 120.5t97.5 83t137.5 31q57 0 111 -19t89 -67q16 -22 26 -46.5t11 -51.5h-70q-3 33 -18.5 57t-38.5 39.5t-52 23t-59 7.5q-65 0 -110.5 -28t-74.5 -73t-42.5 -101
t-13.5 -112q0 -58 11.5 -114.5t39.5 -101.5t73.5 -72.5t113.5 -27.5q29 0 58 8.5t53 25t40 41t21 56.5h72v0z" />
    <glyph glyph-name="D" unicode="D" horiz-adv-x="728" 
d="M673 364q0 -73 -17.5 -136t-53.5 -111t-92 -77.5t-133 -36.5q-30 -3 -60.5 -3h-60.5h-151v723h195q37 0 68 -1t58.5 -5.5t53.5 -14t54 -27.5q37 -24 63.5 -57.5t43 -74t24.5 -86t8 -93.5zM605 365q0 37 -5 74t-17 71.5t-33 64.5t-53 53q-21 15 -46 23.5t-51 12t-52.5 4.5
t-51.5 1h-126v-615h147q79 0 133.5 20.5t89 60t50 97.5t15.5 133z" />
    <glyph glyph-name="E" unicode="E" horiz-adv-x="602" 
d="M105 0v723h429v-54h-364v-266h350v-54h-350v-295h379v-54h-444z" />
    <glyph glyph-name="F" unicode="F" horiz-adv-x="555" 
d="M170 669v-266h332v-54h-332v-349h-65v723h411v-54h-346z" />
    <glyph glyph-name="G" unicode="G" horiz-adv-x="715" 
d="M623 34q-59 -17 -116 -28.5t-119 -11.5q-83 0 -145.5 28.5t-104 78.5t-62.5 117.5t-21 146.5q0 74 19.5 141.5t59 118.5t99 81.5t140.5 30.5q46 0 88 -11.5t75 -35t53.5 -60t25.5 -86.5h-70q-12 71 -57.5 104.5t-115.5 33.5q-66 0 -112.5 -27t-76 -71t-43 -99.5
t-13.5 -113.5q0 -63 14.5 -121t46 -102.5t81.5 -71t120 -26.5q43 0 85.5 6t84.5 19v237h-182v54h246v-332v0z" />
    <glyph glyph-name="H" unicode="H" horiz-adv-x="742" 
d="M572 0v345h-402v-345h-65v723h65v-324h402v324h65v-723h-65z" />
    <glyph glyph-name="I" unicode="I" horiz-adv-x="275" 
d="M105 0v723h65v-723h-65z" />
    <glyph glyph-name="J" unicode="J" horiz-adv-x="494" 
d="M405 210q0 -37 -5.5 -73.5t-27.5 -67.5q-30 -42 -76.5 -59.5t-96.5 -17.5q-38 0 -72 11t-60.5 32t-42 52t-15.5 72v8t1 8h66q0 -3 -0.5 -6t-0.5 -6q0 -27 10 -49t27 -37t40.5 -23t49.5 -8q39 0 65.5 13t42.5 36t23 53.5t7 65.5v509h65v-513v0z" />
    <glyph glyph-name="K" unicode="K" horiz-adv-x="621" 
d="M528 0l-354 392l322 331h87l-331 -326l365 -397h-89zM105 0v723h65v-723h-65z" />
    <glyph glyph-name="L" unicode="L" horiz-adv-x="557" 
d="M105 0v723h65v-669h363v-54h-428z" />
    <glyph glyph-name="M" unicode="M" horiz-adv-x="944" 
d="M775 0v669l-272 -669h-64l-273 669v-669h-61v723h107l261 -645l259 645h107v-723h-64z" />
    <glyph glyph-name="N" unicode="N" horiz-adv-x="751" 
d="M558 0l-392 644v-644h-61v723h88l392 -646v646h61v-723h-88z" />
    <glyph glyph-name="O" unicode="O" horiz-adv-x="745" 
d="M690 369q0 -77 -18 -145.5t-56 -121t-98.5 -83t-145.5 -30.5q-84 0 -144 29.5t-98.5 80.5t-56.5 119t-18 145q0 75 19 142.5t58 118.5t98.5 81.5t141.5 30.5q85 0 145.5 -28t98.5 -77t56 -116.5t18 -145.5zM618 363q0 61 -12 118.5t-40.5 101.5t-76 71t-117.5 27
q-68 0 -114.5 -28t-75.5 -73t-42 -102t-13 -115q0 -59 13 -116.5t42 -102.5t75.5 -73t114.5 -28t115 28t76 73t42 102.5t13 116.5z" />
    <glyph glyph-name="P" unicode="P" horiz-adv-x="602" 
d="M565 522q0 -66 -35 -114t-98 -69q-32 -11 -69.5 -14t-75.5 -3h-117v-322h-65v723h203q118 0 176 -37q44 -28 62.5 -68.5t18.5 -95.5zM495 528q0 45 -14.5 72.5t-40 43t-59 20.5t-70.5 5h-141v-293h108q29 0 66.5 2.5t65.5 12.5q42 15 63.5 54.5t21.5 82.5z" />
    <glyph glyph-name="Q" unicode="Q" horiz-adv-x="745" 
d="M714 0q-53 0 -106 1.5t-106 -3.5q-35 -3 -71.5 -6t-71.5 -3q-80 0 -137.5 31.5t-94.5 84t-54.5 120t-17.5 138.5q0 76 19 144t58.5 119t100 80.5t143.5 29.5q82 0 141.5 -28t98 -77t56.5 -115t18 -142q0 -49 -8 -95.5t-25.5 -88.5t-46 -79t-70.5 -65q43 6 86.5 7.5
t87.5 1.5v-55zM618 363q0 61 -12 118.5t-40.5 101.5t-76 71t-117.5 27q-68 0 -114.5 -28t-75.5 -73t-42 -102t-13 -115q0 -59 13 -116t42 -102t75.5 -73t114.5 -28t115 28t76 73t42 102t13 116z" />
    <glyph glyph-name="R" unicode="R" horiz-adv-x="659" 
d="M518 0q-18 39 -21.5 85t-7.5 89q-4 45 -9 78t-19.5 54.5t-42.5 32t-77 10.5h-171v-349h-65v723h243q42 0 83 -8.5t73.5 -29t52 -54t19.5 -82.5q0 -71 -37 -111.5t-102 -60.5q29 -5 54 -19.5t38 -43.5t19 -75.5t10.5 -93.5t11.5 -87.5t23 -57.5h-75zM507 542
q0 40 -14.5 65t-38.5 39t-55.5 18.5t-65.5 4.5h-163v-266h158q36 0 68.5 6t57 21.5t39 42.5t14.5 69z" />
    <glyph glyph-name="S" unicode="S" horiz-adv-x="617" 
d="M558 197q0 -54 -22 -93t-58 -64t-82.5 -37t-94.5 -12q-50 0 -92 11t-73.5 35t-51.5 61.5t-25 89.5h68q1 -39 16 -66t39 -44t55.5 -24.5t66.5 -7.5q33 0 66.5 7.5t60.5 24t44 43.5t17 65q0 29 -11.5 51t-32 39t-49 30t-63.5 24l-53 17q-44 14 -81 30t-64 38t-42.5 52.5
t-15.5 72.5q0 51 20.5 87t54 59.5t76.5 34.5t88 11q41 0 81.5 -8.5t72 -28t51.5 -52t21 -80.5h-67q-3 33 -16.5 55t-34.5 35.5t-48 19t-57 5.5q-31 0 -62.5 -7.5t-56.5 -23t-41 -41t-16 -61.5q0 -53 40.5 -84.5t124.5 -58.5l60 -19q44 -14 78 -29.5t58 -36.5t37 -50t14 -70z
" />
    <glyph glyph-name="T" unicode="T" horiz-adv-x="546" 
d="M305 669v-669h-65v669h-231v54h528v-54h-232z" />
    <glyph glyph-name="U" unicode="U" horiz-adv-x="744" 
d="M649 266q0 -65 -19 -116t-54.5 -87t-87 -55t-116.5 -19q-134 0 -205.5 71.5t-71.5 205.5v457h68v-434q0 -42 4.5 -84t28.5 -78q29 -44 77.5 -63.5t98.5 -19.5q60 0 112 26t78 83q14 31 16.5 67t2.5 69v434h68v-457v0z" />
    <glyph glyph-name="V" unicode="V" horiz-adv-x="650" 
d="M364 0h-74l-279 723h71l247 -659l245 659h65z" />
    <glyph glyph-name="W" unicode="W" horiz-adv-x="1020" 
d="M811 0h-89l-215 655l-208 -655h-91l-189 723h69l169 -666l212 666h79l221 -666l168 666h64z" />
    <glyph glyph-name="X" unicode="X" horiz-adv-x="638" 
d="M545 0l-231 329l-226 -329h-74l262 376l-253 347h82l212 -306l210 306h74l-245 -348l268 -375h-79z" />
    <glyph glyph-name="Y" unicode="Y" horiz-adv-x="613" 
d="M339 310v-310h-65v312l-280 413h78l238 -355l235 355h74z" />
    <glyph glyph-name="Z" unicode="Z" horiz-adv-x="565" 
d="M23 0v67l432 601h-403v55h479v-58l-442 -610h453v-55h-519z" />
    <glyph glyph-name="bracketleft" unicode="[" horiz-adv-x="291" 
d="M83 -147v870h146v-42h-90v-786h90v-42h-146z" />
    <glyph glyph-name="backslash" unicode="\" horiz-adv-x="293" 
d="M234 -11l-237 747h63l236 -747h-62z" />
    <glyph glyph-name="bracketright" unicode="]" horiz-adv-x="291" 
d="M62 -147v42h90v786h-90v42h146v-870h-146z" />
    <glyph glyph-name="asciicircum" unicode="^" horiz-adv-x="675" 
d="M502 307l-167 352l-165 -352h-61l201 416h51l201 -416h-60z" />
    <glyph glyph-name="underscore" unicode="_" horiz-adv-x="514" 
d="M7 -125v50h500v-50h-500z" />
    <glyph glyph-name="grave" unicode="`" horiz-adv-x="293" 
d="M157 592l-126 144h80l90 -144h-44z" />
    <glyph glyph-name="a" unicode="a" horiz-adv-x="536" 
d="M403 0q-2 18 -4 36.5t-4 36.5q-32 -48 -72 -66t-97 -18q-35 0 -66.5 9t-56 27t-39 46t-14.5 66q0 40 14.5 68t39 46.5t56 29t66.5 15.5t70 6t66 1h26q1 9 1 17.5v17.5q0 65 -28 97.5t-95 32.5q-49 0 -80 -19.5t-37 -73.5h-60q0 38 15.5 64.5t40 43t56.5 24t65 7.5
q94 0 138.5 -41.5t44.5 -135.5v-150q0 -48 2.5 -93.5t7.5 -93.5h-56zM390 258q-13 1 -25 1.5t-25 0.5q-32 0 -71.5 -2.5t-74 -14.5t-58.5 -36.5t-24 -67.5q0 -26 10.5 -46t28 -33.5t40 -20t46.5 -6.5q54 0 84.5 19.5t46 51.5t19 72t3.5 82z" />
    <glyph glyph-name="b" unicode="b" horiz-adv-x="581" 
d="M532 260q0 -51 -14 -99.5t-41.5 -86t-69.5 -60t-98 -22.5q-57 0 -93.5 23t-67.5 69l-5 -84h-60q2 38 3 75.5t1 75.5v572h61v-312q56 103 174 103q55 0 94.5 -21t65 -56.5t38 -81.5t12.5 -95zM467 253q0 37 -7.5 74.5t-25 68.5t-47 50.5t-73.5 19.5q-45 0 -77 -19
t-51.5 -49.5t-28.5 -69t-9 -77.5q0 -38 7.5 -75.5t25.5 -67.5t47.5 -48.5t73.5 -18.5q46 0 77.5 18.5t51 48.5t28 68t8.5 77z" />
    <glyph glyph-name="c" unicode="c" horiz-adv-x="522" 
d="M484 163q-8 -85 -61.5 -129.5t-137.5 -44.5q-59 0 -103 19.5t-73.5 54t-44.5 81.5t-15 103q0 57 15 106.5t45 86t75 58t106 21.5q83 0 135 -43t59 -128h-59q-5 59 -40 91t-94 32q-49 0 -82.5 -18.5t-54.5 -49t-30.5 -70.5t-9.5 -83q0 -40 10 -78.5t31 -69t53.5 -49
t77.5 -18.5q58 0 97 34.5t44 93.5h57v0z" />
    <glyph glyph-name="d" unicode="d" horiz-adv-x="581" 
d="M438 0l-5 84q-32 -48 -69.5 -70t-95.5 -22q-57 0 -98.5 22.5t-68 59.5t-39.5 85t-13 99q0 49 13 95t39.5 82t67 57.5t94.5 21.5q60 0 100.5 -23t69.5 -76v308h61v-572q0 -38 0.5 -75.5t3.5 -75.5h-60zM433 251q0 39 -9 77.5t-28.5 69t-51 49.5t-76.5 19
q-44 0 -73.5 -19.5t-47.5 -50t-25.5 -68.5t-7.5 -75q0 -39 8.5 -77t28 -68t51 -48.5t77.5 -18.5q44 0 73.5 18.5t47.5 48.5t25.5 67.5t7.5 75.5z" />
    <glyph glyph-name="e" unicode="e" horiz-adv-x="532" 
d="M111 243v-12q0 -38 10.5 -73.5t31.5 -63t52.5 -44t73.5 -16.5q60 0 96.5 34.5t46.5 91.5h58q-16 -85 -69.5 -128t-139.5 -43q-58 0 -100 20t-69 54.5t-40 81t-13 99.5q0 54 13.5 103t42 86t71.5 58.5t103 21.5t99.5 -23t63 -61t32.5 -86.5t9 -99.5h-372zM421 298
q0 33 -9.5 63.5t-27.5 54t-45.5 37t-63.5 13.5q-38 0 -67 -15t-49 -39.5t-31.5 -57t-14.5 -66.5h308v10z" />
    <glyph glyph-name="f" unicode="f" horiz-adv-x="318" 
d="M301 680q-7 1 -16.5 1.5t-18.5 0.5q-28 0 -45 -5.5t-26 -17t-12 -30t-3 -44.5v-80h112v-45h-112v-460h-61v460h-102v45h102v75q0 30 3.5 57t16 47.5t36 33t63.5 12.5q31 0 63 -3v-47v0z" />
    <glyph glyph-name="g" unicode="g" horiz-adv-x="589" 
d="M505 505q-1 -26 -2 -46.5t-1.5 -39.5t-0.5 -37.5v-39.5v-179q0 -66 -2 -131t-21.5 -116.5t-65.5 -84t-133 -32.5q-37 0 -72.5 7t-63.5 23.5t-45.5 45t-17.5 71.5h62q0 -29 11 -48.5t29.5 -31.5t42 -17t49.5 -5q61 0 94.5 22t49 57.5t18.5 81t3 92.5q-30 -48 -71 -71
t-98 -23t-98.5 20t-69 54.5t-40.5 80.5t-13 99q0 50 13.5 96.5t40.5 82t68 57t96 21.5q119 0 174 -102q0 23 0.5 46.5t0.5 46.5h63zM441 262q0 36 -10 72.5t-30 66t-50.5 47.5t-71.5 18q-45 0 -76 -18.5t-50.5 -48.5t-28 -68t-8.5 -77t9 -76t28.5 -66t50 -46.5t74.5 -17.5
q45 0 76.5 18.5t50.5 49t27.5 69t8.5 77.5z" />
    <glyph glyph-name="h" unicode="h" horiz-adv-x="574" 
d="M429 0v285q0 35 -3.5 66.5t-16.5 55.5t-38.5 38t-68.5 14t-72.5 -15.5t-47.5 -42t-26 -61t-8 -71.5v-269h-61v723h61v-302q30 45 70 67t94 22q52 0 86 -13.5t54.5 -39.5t29 -63t8.5 -85v-309h-61z" />
    <glyph glyph-name="i" unicode="i" horiz-adv-x="235" 
d="M81 647v76h73v-76h-73zM87 0v505h61v-505h-61z" />
    <glyph glyph-name="j" unicode="j" horiz-adv-x="235" 
d="M81 647v76h73v-76h-73zM148 -71q0 -34 -6 -56t-20.5 -34.5t-37.5 -17t-56 -4.5q-11 0 -21 0.5t-21 1.5v49q19 -3 39 -3q22 0 34.5 5.5t18.5 16t7.5 25t1.5 33.5v560h61v-576z" />
    <glyph glyph-name="k" unicode="k" horiz-adv-x="513" 
d="M415 0l-261 286l239 219h82l-245 -218l265 -287h-80zM87 0v723h61v-723h-61z" />
    <glyph glyph-name="l" unicode="l" horiz-adv-x="235" 
d="M87 0v723h61v-723h-61z" />
    <glyph glyph-name="m" unicode="m" horiz-adv-x="894" 
d="M749 0v305q0 33 -5.5 61t-20 48.5t-39 32.5t-61.5 12q-43 0 -70.5 -14t-44 -38t-23 -56.5t-6.5 -69.5v-281h-61v298q0 33 -5 62.5t-18.5 51.5t-38 34.5t-63.5 12.5t-66.5 -15t-45 -40t-25.5 -57t-8 -66v-281h-61v384q0 30 -1.5 60.5t-1.5 60.5h60l4 -88q51 93 156 93
q63 0 101 -24.5t61 -83.5q26 57 68.5 82.5t104.5 25.5q55 0 89 -17t52 -47t24 -70.5t6 -86.5v-289h-61z" />
    <glyph glyph-name="n" unicode="n" horiz-adv-x="574" 
d="M429 0v285q0 35 -3.5 66.5t-16.5 55.5t-38.5 38t-68.5 14t-72.5 -15.5t-47.5 -42t-26 -61t-8 -71.5v-269h-61v362q0 36 -1.5 71.5t-1.5 71.5h60l4 -84q31 46 70 67.5t95 21.5q51 0 85.5 -14t54.5 -40t28.5 -63t8.5 -84v-309h-61z" />
    <glyph glyph-name="o" unicode="o" horiz-adv-x="571" 
d="M522 256q0 -53 -15.5 -101.5t-45.5 -85.5t-74 -58.5t-101 -21.5q-59 0 -103.5 21t-74 57t-44.5 84.5t-15 104.5q0 55 15.5 102t45.5 82t74 55t102 20t102.5 -19.5t74 -54.5t44.5 -82.5t15 -102.5zM457 256q0 40 -9.5 78t-30.5 67t-53.5 46.5t-77.5 17.5t-77.5 -17.5
t-53.5 -46.5t-31 -66.5t-10 -78.5q0 -40 9.5 -79.5t30.5 -70.5t53.5 -50.5t78.5 -19.5q45 0 77.5 19.5t53 51t30.5 71t10 78.5z" />
    <glyph glyph-name="p" unicode="p" horiz-adv-x="581" 
d="M532 260q0 -51 -13.5 -99t-41.5 -85.5t-69.5 -60.5t-97.5 -23q-58 0 -94 22.5t-68 69.5v-274h-61v544q0 38 -1 75.5t-3 75.5h62l3 -94q29 54 71 78.5t103 24.5q55 0 94.5 -21t65 -56.5t38 -81.5t12.5 -95zM467 253q0 37 -7.5 74.5t-25 68.5t-47 50.5t-73.5 19.5
q-45 0 -77 -19t-51.5 -49.5t-28.5 -69t-9 -77.5q0 -38 7.5 -75.5t25.5 -67.5t47.5 -48.5t73.5 -18.5q45 0 76.5 18t51 48t28.5 68t9 78z" />
    <glyph glyph-name="q" unicode="q" horiz-adv-x="581" 
d="M498 505q-3 -38 -3.5 -75.5t-0.5 -75.5v-544h-61v274q-32 -47 -68 -69.5t-94 -22.5q-59 0 -101 21.5t-69 58.5t-39.5 85t-12.5 102q0 48 13 94t40 82t67 57.5t94 21.5q61 0 101 -23t69 -76l3 90h62zM433 251q0 39 -9 77.5t-28.5 69t-51 49.5t-76.5 19q-44 0 -73.5 -19.5
t-47.5 -50t-25.5 -68.5t-7.5 -75q0 -40 9 -78t28.5 -68t51 -48t76.5 -18q44 0 73.5 18.5t47.5 48.5t25.5 67.5t7.5 75.5z" />
    <glyph glyph-name="r" unicode="r" horiz-adv-x="345" 
d="M331 445q-19 4 -41 4q-41 0 -68 -11.5t-43.5 -32.5t-23.5 -51.5t-7 -67.5v-286h-61v357q0 37 -1 74l-2 74h60l4 -79q28 44 66 63t89 19q7 0 14 -0.5t14 -1.5v-61v0z" />
    <glyph glyph-name="s" unicode="s" horiz-adv-x="480" 
d="M426 144q0 -41 -16.5 -70t-43 -47.5t-61 -27.5t-70.5 -9q-39 0 -72.5 9t-57.5 28.5t-38 49t-14 71.5h60q0 -57 34.5 -84.5t90.5 -27.5q22 0 45 6t41.5 18t30.5 30.5t12 44.5q0 40 -31 60t-81 34l-53 15q-29 8 -54 19t-43.5 26.5t-29 36.5t-10.5 51q0 37 15.5 63.5
t40 43.5t56 25t64.5 8q37 0 68 -8.5t54.5 -26.5t37 -46t14.5 -67h-61q-3 52 -31.5 75.5t-79.5 23.5q-19 0 -39.5 -4.5t-38 -15t-28.5 -26.5t-11 -39q0 -37 28.5 -56.5t75.5 -32.5l57 -16q72 -20 105.5 -50.5t33.5 -83.5z" />
    <glyph glyph-name="t" unicode="t" horiz-adv-x="325" 
d="M296 1q-18 -2 -35.5 -3.5t-35.5 -1.5q-107 0 -107 108v356h-100v45h100v104l61 27v-131h113v-45h-113v-329q0 -21 2 -37t9.5 -26.5t21.5 -15.5t38 -5q9 0 21.5 2t24.5 4v-52v0z" />
    <glyph glyph-name="u" unicode="u" horiz-adv-x="574" 
d="M430 0l-2 81q-32 -45 -70 -65.5t-94 -20.5q-51 0 -85.5 13.5t-55.5 39.5t-30 63t-9 85v309h61v-285q0 -35 5 -66.5t19.5 -55.5t39.5 -38t65 -14q43 0 72 16.5t47 43.5t25.5 62t7.5 73v264h61v-354q0 -76 3 -151h-60z" />
    <glyph glyph-name="v" unicode="v" horiz-adv-x="512" 
d="M287 0h-61l-208 505h68l177 -439l168 439h63z" />
    <glyph glyph-name="w" unicode="w" horiz-adv-x="820" 
d="M617 0h-55l-151 439l-153 -439h-59l-179 505h69l141 -432l150 432h69l145 -427l144 427h62z" />
    <glyph glyph-name="x" unicode="x" horiz-adv-x="506" 
d="M408 0l-159 220l-161 -220h-69l196 258l-185 247h76l150 -208l153 208h69l-187 -247l196 -258h-79z" />
    <glyph glyph-name="y" unicode="y" horiz-adv-x="507" 
d="M213 -190h-62l80 193l-212 502h73l169 -423l168 423h61z" />
    <glyph glyph-name="z" unicode="z" horiz-adv-x="445" 
d="M40 0v58l301 397h-293v50h350v-59l-294 -396h301v-50h-365z" />
    <glyph glyph-name="braceleft" unicode="{" horiz-adv-x="381" 
d="M351 -147q-57 3 -92.5 18t-55.5 38t-28 52t-10 60.5t-1 63.5t-1 60.5t-9.5 52t-27.5 37.5q-21 15 -48 24t-53 10v38q26 0 53 8.5t48 24.5q26 19 32 52t6 73v49q0 37 4.5 73t23.5 65t56 48.5t103 22.5v-38q-46 -3 -72.5 -18.5t-39.5 -39t-16 -53.5t-3 -63v-39
q0 -32 -3 -62.5t-15 -55.5t-37 -42.5t-68 -23.5q47 -7 72 -27t36.5 -48t13 -62t1 -68.5t2 -67.5t14.5 -59.5t39 -44t76 -20.5v-38v0z" />
    <glyph glyph-name="bar" unicode="|" horiz-adv-x="251" 
d="M89 -213v999h60v-999h-60z" />
    <glyph glyph-name="braceright" unicode="}" horiz-adv-x="381" 
d="M356 269q-26 -1 -52.5 -9.5t-47.5 -24.5q-26 -19 -32 -53.5t-6 -75.5t-1 -84.5t-17.5 -79.5t-55.5 -60.5t-114 -28.5v38q49 3 76 20.5t39.5 43.5t14.5 59t1.5 68t1 69t13 62t37 48t72.5 27q-63 9 -88.5 41t-31.5 74.5t-3.5 90t-4.5 88.5t-34 69.5t-93 33.5v38
q75 -4 114 -28.5t55.5 -61t17.5 -79.5t1 -84.5t6 -76t32 -53.5q21 -15 47.5 -24t52.5 -9v-38v0z" />
    <glyph glyph-name="asciitilde" unicode="~" horiz-adv-x="675" 
d="M599 313q-3 -26 -11 -50t-22.5 -43t-36 -30t-50.5 -11q-32 0 -68 10.5t-73 24.5q-39 14 -75 26.5t-64 12.5q-35 0 -55.5 -24.5t-25.5 -56.5h-42q4 26 12.5 50.5t23 43t36 30t51.5 11.5q31 0 66.5 -10.5t72.5 -24.5q39 -14 75.5 -26t63.5 -12q37 0 56 23t26 56h40v0z" />
    <glyph glyph-name="uni00A0" unicode="&#xa0;" horiz-adv-x="280" 
 />
    <glyph glyph-name="exclamdown" unicode="&#xa1;" horiz-adv-x="320" 
d="M120 430v86h80v-86h-80zM120 -207l12 554h56l12 -554h-80z" />
    <glyph glyph-name="cent" unicode="&#xa2;" 
d="M496 163q0 -32 -10.5 -63t-33.5 -56t-60 -40t-89 -15q-18 0 -34 1.5t-23 3.5l-29 -100l-42 10l28 98q-38 13 -65 39t-44 59t-25 71t-8 76q0 57 15 106.5t45 86t75 58t106 21.5q11 0 23 -1t23 -3l29 95l40 -8l-29 -98q49 -16 78.5 -58t29.5 -98h-59q0 31 -10 52t-21 33
q-14 14 -31 22l-117 -416q10 -2 24 -3t21 -1q27 0 52 7.5t43.5 23.5t29.5 40t11 57h57zM334 468q-5 2 -14 2.5t-17 0.5q-49 0 -82.5 -18.5t-54.5 -49t-30.5 -70.5t-9.5 -83q0 -62 20.5 -116t71.5 -80z" />
    <glyph glyph-name="sterling" unicode="&#xa3;" 
d="M458 597q-2 55 -35 80.5t-85 25.5q-53 0 -83 -19t-45 -51.5t-19 -75t-4 -89.5v-26h162v-54h-162v-330h319v-58h-444v58h58v330h-72v54h72v26q0 34 1.5 69.5t9.5 69.5t24 63t46 50t66 28.5t71 7.5q39 0 73 -9t59.5 -28t40.5 -49t17 -73h-70z" />
    <glyph glyph-name="currency" unicode="&#xa4;" 
d="M520 553l-67 -67q20 -27 30.5 -59.5t10.5 -68.5q0 -37 -10.5 -69.5t-30.5 -58.5l67 -67l-43 -42l-66 67q-27 -20 -60 -31.5t-70 -11.5q-38 0 -71 11.5t-59 31.5l-66 -67l-43 42l67 67q-20 26 -30.5 58.5t-10.5 69.5q0 36 10.5 68.5t30.5 59.5l-67 67l43 42l66 -67
q26 20 59 31.5t71 11.5q37 0 70 -11.5t60 -31.5l66 67zM431 358q0 34 -11.5 62.5t-31.5 49.5t-47.5 32.5t-59.5 11.5t-59.5 -11.5t-47.5 -32.5t-31.5 -49.5t-11.5 -62.5t11.5 -62.5t31.5 -49.5t47.5 -32.5t59.5 -11.5t59.5 11.5t47.5 32.5t31.5 49.5t11.5 62.5z" />
    <glyph glyph-name="yen" unicode="&#xa5;" 
d="M334 346h162v-47h-186v-82h186v-47h-186v-170h-61v170h-185v47h185v82h-185v47h163l-224 377h73l207 -357l208 357h66z" />
    <glyph glyph-name="brokenbar" unicode="&#xa6;" horiz-adv-x="238" 
d="M89 411v250h60v-250h-60zM89 -89v250h60v-250h-60z" />
    <glyph glyph-name="section" unicode="&#xa7;" horiz-adv-x="570" 
d="M451 141q0 -39 -17 -67t-44.5 -46t-61.5 -26.5t-68 -8.5q-37 0 -66 5.5t-64 17.5v54q32 -13 58.5 -19t61.5 -6q22 0 45.5 4t43 14t31.5 28t12 45q0 20 -10 34.5t-27 25t-39 18.5t-45 16q-26 9 -52 19t-46 24t-32.5 34t-12.5 49q0 25 9 44.5t24 34.5t34 26.5t40 21.5
q-40 18 -67 46.5t-27 75.5q0 36 14.5 60.5t38.5 40.5t54 23t61 7q29 0 57 -4.5t56 -11.5v-55q-26 8 -53 13.5t-55 5.5q-18 0 -37 -4t-34.5 -13.5t-25.5 -24.5t-10 -36q0 -18 9.5 -31.5t25.5 -24.5t36.5 -20t42.5 -18q24 -10 48 -21t43 -25t30.5 -32t11.5 -42q0 -23 -9 -42
t-24 -34t-33.5 -27t-37.5 -20q23 -9 43 -20t35 -26t24 -35t9 -47zM376 376q0 31 -29 50.5t-75 37.5q-14 -6 -30 -15t-29 -20t-21.5 -25.5t-8.5 -32.5q0 -30 25 -49.5t75 -36.5q14 6 30 14t30 19.5t23.5 25.5t9.5 32z" />
    <glyph glyph-name="dieresis" unicode="&#xa8;" horiz-adv-x="292" 
d="M195 647v76h73v-76h-73zM24 647v76h73v-76h-73z" />
    <glyph glyph-name="copyright" unicode="&#xa9;" horiz-adv-x="844" 
d="M796 362q0 -80 -28.5 -148t-78.5 -118t-118.5 -78.5t-148.5 -28.5t-148 28t-118 78t-78.5 118.5t-28.5 148.5t28.5 148t78.5 118t118 78t148 28t148.5 -28t118.5 -78t78.5 -118t28.5 -148zM750 362q0 72 -24.5 132.5t-68.5 105t-104 69t-131 24.5t-131 -24.5t-103.5 -69
t-68 -105t-24.5 -132.5t24.5 -133t68 -105t103.5 -69t131 -25t131 25t104 69t68.5 105t24.5 133zM588 266q-5 -28 -20 -49t-36 -35.5t-47.5 -22t-54.5 -7.5q-47 0 -81 15t-56.5 42.5t-33.5 65.5t-11 84q0 45 11.5 83.5t35 67.5t59 45.5t82.5 16.5q25 0 50.5 -7t46.5 -20.5
t35 -35t17 -49.5h-61q-9 35 -31 49.5t-57 14.5q-34 0 -58 -13.5t-39 -36t-22 -52.5t-7 -64q0 -35 6.5 -64t21.5 -50t38 -33t56 -12t58 16t36 51h62z" />
    <glyph glyph-name="ordfeminine" unicode="&#xaa;" horiz-adv-x="315" 
d="M228 421q0 11 -0.5 21t-1.5 21q-20 -24 -43 -36t-55 -12q-20 0 -38.5 5.5t-33 17t-23 28t-8.5 38.5q0 37 20.5 58t51 31t64.5 11.5t61 -0.5v14q0 39 -15.5 55t-54.5 16q-29 0 -46.5 -10.5t-22.5 -40.5h-45q8 48 38 67.5t76 19.5q59 0 87 -23t28 -83q0 -25 -1 -49.5
t-1 -49.5t2 -49.5t5 -49.5h-44zM222 570h-44t-50 -5.5t-41 -19t-17 -40.5q0 -26 19 -40t44 -14q29 0 46.5 9.5t27 26t12.5 38t3 45.5z" />
    <glyph glyph-name="guillemotleft" unicode="&#xab;" horiz-adv-x="471" 
d="M350 65l-102 197l102 192h51l-90 -197l91 -192h-52zM171 65l-102 197l102 192h51l-90 -197l91 -192h-52z" />
    <glyph glyph-name="logicalnot" unicode="&#xac;" horiz-adv-x="676" 
d="M532 122v187h-444v54h500v-241h-56z" />
    <glyph glyph-name="uni00AD" unicode="&#xad;" horiz-adv-x="329" 
d="M38 241v53h253v-53h-253z" />
    <glyph glyph-name="registered" unicode="&#xae;" horiz-adv-x="452" 
d="M412 549q0 -39 -14.5 -73t-40 -59.5t-59 -40t-72.5 -14.5t-72.5 15t-59 40.5t-40 59.5t-14.5 72t14.5 72t40 59.5t59 40.5t72.5 15t72.5 -14.5t59 -40t40 -59.5t14.5 -73zM384 549q0 33 -12.5 61.5t-33.5 50.5t-50 34.5t-62 12.5t-61.5 -12.5t-50 -34.5t-34 -50.5
t-12.5 -61.5t12.5 -61.5t34 -50.5t50 -34.5t61.5 -12.5t62 12.5t50 34.5t33.5 50.5t12.5 61.5zM268 457q-5 10 -5.5 24.5t-2.5 28t-7.5 23t-21.5 9.5h-45v-85h-24v190h67q24 0 42.5 -9t18.5 -38q0 -34 -35 -45q18 -4 23.5 -16t6.5 -27t1.5 -30t8.5 -25h-27zM264 596
q0 20 -13 26t-30 6h-35v-67h27q19 0 35 6t16 29z" />
    <glyph glyph-name="macron" unicode="&#xaf;" horiz-adv-x="293" 
d="M24 643v51h245v-51h-245z" />
    <glyph glyph-name="degree" unicode="&#xb0;" horiz-adv-x="377" 
d="M337 587q0 -31 -11.5 -58t-31.5 -47t-47 -31.5t-58 -11.5t-58 11.5t-47.5 31.5t-32 47t-11.5 58t11.5 58t32 47t47.5 31.5t58 11.5t58 -11.5t47 -31.5t31.5 -47t11.5 -58zM288 587q0 22 -7.5 41t-21 32.5t-31.5 21.5t-39 8q-43 0 -71.5 -29t-28.5 -74t28.5 -74t71.5 -29
q21 0 39 8t31.5 21.5t21 32.5t7.5 41z" />
    <glyph glyph-name="plusminus" unicode="&#xb1;" horiz-adv-x="676" 
d="M368 274v-175h-60v175h-220v54h220v176h60v-176h220v-54h-220zM88 0v54h500v-54h-500z" />
    <glyph glyph-name="uni00B2" unicode="&#xb2;" horiz-adv-x="354" 
d="M40 469v44l90 86q36 35 60.5 60.5t39 45.5t20.5 37.5t6 36.5q0 35 -21 55t-57 20q-40 0 -62 -23.5t-22 -61.5h-50q1 60 38 93t96 33q54 0 91 -28t37 -84q0 -28 -10.5 -53.5t-29.5 -51.5t-46 -53.5t-61 -58.5l-59 -55h213v-42h-273z" />
    <glyph glyph-name="uni00B3" unicode="&#xb3;" horiz-adv-x="354" 
d="M317 584q0 -57 -40.5 -88.5t-104.5 -31.5q-59 0 -97.5 29.5t-40.5 92.5h48q0 -42 27.5 -62t65.5 -20q43 0 68.5 21.5t25.5 61.5q0 21 -7.5 36t-20.5 24.5t-30 14.5t-36 5q-14 0 -27 -3v44q8 -2 14.5 -2h14.5q35 0 60.5 18.5t25.5 56.5q0 39 -25 56.5t-63 17.5t-61 -19.5
t-27 -58.5h-48q2 57 41 87t96 30q28 0 52.5 -7t43 -21t29 -35.5t10.5 -50.5q0 -37 -20 -60t-51 -33q37 -11 57 -36t20 -67z" />
    <glyph glyph-name="acute" unicode="&#xb4;" horiz-adv-x="292" 
d="M135 592h-44l90 144h80z" />
    <glyph glyph-name="uni00B5" unicode="&#xb5;" horiz-adv-x="577" 
d="M431 0v81q-8 -16 -21.5 -31.5t-32 -27.5t-42.5 -19.5t-51 -7.5q-45 0 -79.5 16t-56.5 48v-249h-61v695h61v-285q0 -38 7 -70t22.5 -55t41 -36t63.5 -13q39 0 67 13.5t45.5 38t26 59t8.5 75.5v273h61v-347q0 -33 0.5 -74.5t2.5 -83.5h-62z" />
    <glyph glyph-name="paragraph" unicode="&#xb6;" horiz-adv-x="579" 
d="M415 0v675h-138v-675h-59v342q-98 6 -149.5 48.5t-51.5 134.5q0 55 19 93t53 61t80 33.5t99 10.5h206v-723h-59z" />
    <glyph glyph-name="periodcentered" unicode="&#xb7;" horiz-adv-x="280" 
d="M100 282v86h80v-86h-80z" />
    <glyph glyph-name="cedilla" unicode="&#xb8;" horiz-adv-x="292" 
d="M248 -115q0 -21 -9.5 -34.5t-24 -21.5t-32 -11t-34.5 -3q-28 0 -54 6t-52 17l7 28q22 -10 45.5 -17.5t47.5 -7.5q20 0 35 8t15 31t-14.5 31.5t-35.5 8.5q-16 0 -31 -3l28 88h23l-15 -56q17 0 35 -1.5t32.5 -8t24 -19.5t9.5 -35z" />
    <glyph glyph-name="uni00B9" unicode="&#xb9;" horiz-adv-x="354" 
d="M171 469v366q-23 -19 -45.5 -32.5t-49.5 -25.5v46q16 7 29 14t24 14.5t22 16.5t25 21h43v-420h-48z" />
    <glyph glyph-name="ordmasculine" unicode="&#xba;" horiz-adv-x="348" 
d="M318 572q0 -34 -9 -63t-27 -50t-45 -33t-63 -12q-70 0 -107 44t-37 111q0 34 9 63t27 50t45 32.5t63 11.5q69 0 106.5 -43.5t37.5 -110.5zM271 572q0 23 -5.5 44t-17.5 37t-30.5 25.5t-43.5 9.5q-26 0 -44 -9.5t-30 -25.5t-17.5 -37t-5.5 -44t5.5 -44.5t17.5 -38
t30 -26.5t44 -10q25 0 43.5 10t30.5 26.5t17.5 38t5.5 44.5z" />
    <glyph glyph-name="guillemotright" unicode="&#xbb;" horiz-adv-x="471" 
d="M301 65h-51l90 197l-92 192h53l101 -197zM121 65h-51l90 197l-91 192h52l102 -197z" />
    <glyph glyph-name="onequarter" unicode="&#xbc;" horiz-adv-x="890" 
d="M242 -25h-58l442 776h56zM178 303v366q-23 -19 -45.5 -32.5t-49.5 -25.5v46q16 7 29 14t24 14.5t22 16.5t25 21h43v-420h-48zM792 95v-95h-47v95h-198v45l189 280h56v-286h68v-39h-68zM746 365l-154 -231h154v231z" />
    <glyph glyph-name="onehalf" unicode="&#xbd;" horiz-adv-x="890" 
d="M251 -25h-58l442 776h56zM178 303v366q-23 -19 -45.5 -32.5t-49.5 -25.5v46q16 7 29 14t24 14.5t22 16.5t25 21h43v-420h-48zM564 0v46q48 41 87.5 79t68 72t44 63t15.5 51q0 35 -21.5 54t-55.5 19q-40 0 -61 -23t-21 -61h-52q1 60 38 93t96 33q25 0 48.5 -7t41.5 -21
t28.5 -34.5t10.5 -48.5q0 -31 -17.5 -64.5t-46 -68.5t-65.5 -70t-75 -68h210v-44h-273z" />
    <glyph glyph-name="threequarters" unicode="&#xbe;" horiz-adv-x="890" 
d="M279 -25h-58l442 776h56zM792 95v-95h-47v95h-198v45l189 280h56v-286h68v-39h-68zM746 365l-154 -231h154v231zM322 417q0 -30 -13 -52.5t-34.5 -37.5t-48 -22.5t-53.5 -7.5q-59 0 -99 29.5t-42 92.5h48q0 -21 8 -36t21.5 -25.5t30.5 -15.5t36 -5t36.5 5t31 15.5t22 26
t8.5 36.5t-8.5 36t-22 25t-31 15t-36.5 5q-14 0 -27 -3v44q8 -2 14.5 -2h14.5q17 0 33.5 4.5t29 14t20 23.5t7.5 33t-8 33.5t-21 23.5t-29.5 13.5t-33.5 4.5q-82 0 -91 -79h-48q1 30 12.5 52t31 37t44.5 22t52 7q26 0 51 -7t44.5 -21.5t31.5 -36t12 -50.5q0 -38 -21 -58.5
t-54 -34.5q37 -14 59 -38t22 -66z" />
    <glyph glyph-name="questiondown" unicode="&#xbf;" horiz-adv-x="485" 
d="M225 430v86h80v-86h-80zM364 -207q-26 -5 -51 -8t-51 -3q-44 0 -83.5 9.5t-69.5 30.5t-47.5 55t-17.5 84q0 38 15 70.5t38.5 60.5t51 53.5t52.5 49.5q18 17 27 31t9 40v81h56v-73q0 -20 -0.5 -38.5t-11.5 -36.5q-19 -32 -48 -57t-56.5 -50.5t-47 -56t-19.5 -73.5
q0 -34 12 -58.5t33 -40t49 -22.5t59 -7q26 0 50.5 4.5t50.5 11.5v-57z" />
    <glyph glyph-name="Agrave" unicode="&#xc0;" horiz-adv-x="693" 
d="M606 0l-82 202h-366l-78 -202h-69l295 723h69l307 -723h-76zM336 660l-157 -404h322zM348 777l-126 144h80l90 -144h-44z" />
    <glyph glyph-name="Aacute" unicode="&#xc1;" horiz-adv-x="693" 
d="M606 0l-82 202h-366l-78 -202h-69l295 723h69l307 -723h-76zM336 660l-157 -404h322zM326 777h-44l90 144h80z" />
    <glyph glyph-name="Acircumflex" unicode="&#xc2;" horiz-adv-x="693" 
d="M606 0l-82 202h-366l-78 -202h-69l295 723h69l307 -723h-76zM336 660l-157 -404h322zM427 775l-89 106l-91 -106h-46l101 146h73l98 -146h-46z" />
    <glyph glyph-name="Atilde" unicode="&#xc3;" horiz-adv-x="693" 
d="M606 0l-82 202h-366l-78 -202h-69l295 723h69l307 -723h-76zM336 660l-157 -404h322zM475 897q-3 -16 -10.5 -31t-18 -27t-24.5 -19t-32 -7q-26 0 -51.5 10.5t-51.5 10.5q-35 0 -49 -29h-38q7 35 30 58t60 23q26 0 49 -10.5t49 -10.5q36 0 49 32h38z" />
    <glyph glyph-name="Adieresis" unicode="&#xc4;" horiz-adv-x="693" 
d="M606 0l-82 202h-366l-78 -202h-69l295 723h69l307 -723h-76zM336 660l-157 -404h322zM386 816v76h73v-76h-73zM215 816v76h73v-76h-73z" />
    <glyph glyph-name="Aring" unicode="&#xc5;" horiz-adv-x="693" 
d="M606 0l-82 202h-366l-78 -202h-69l295 723h69l307 -723h-76zM336 660l-157 -404h322zM428 847q0 -38 -26.5 -64t-64.5 -26t-64.5 26t-26.5 64t26.5 64t64.5 26t64.5 -26t26.5 -64zM394 847q0 26 -16 43t-41 17t-41 -17t-16 -43t16 -43t41 -17t41 17t16 43z" />
    <glyph glyph-name="AE" unicode="&#xc6;" horiz-adv-x="983" 
d="M569 0l-34 198h-350l-114 -198h-72l418 723h499v-58h-389l43 -262h331v-58h-322l47 -287h304v-58h-361zM458 666l-239 -414h308z" />
    <glyph glyph-name="Ccedilla" unicode="&#xc7;" horiz-adv-x="664" 
d="M443 -115q0 -21 -9.5 -34.5t-24 -21.5t-32 -11t-34.5 -3q-28 0 -54 6t-52 17l7 28q22 -10 45.5 -17.5t47.5 -7.5q20 0 35 8t15 31t-14.5 31.5t-35.5 8.5q-16 0 -31 -3l23 74q-73 6 -125 37t-85 80t-48.5 112.5t-15.5 134.5q0 76 19 144.5t58 120.5t97.5 83t137.5 31
q57 0 111 -19t89 -67q16 -22 26 -46.5t11 -51.5h-70q-3 33 -18.5 57t-38.5 39.5t-52 23t-59 7.5q-65 0 -110.5 -28t-74.5 -73t-42.5 -101t-13.5 -112q0 -58 11.5 -114.5t39.5 -101.5t73.5 -72.5t113.5 -27.5q29 0 58 8.5t53 25t40 41t21 56.5h72q-17 -91 -83.5 -139.5
t-162.5 -48.5h-8l-11 -41q17 0 35 -1.5t32.5 -8t24 -19.5t9.5 -35z" />
    <glyph glyph-name="Egrave" unicode="&#xc8;" horiz-adv-x="602" 
d="M105 0v723h429v-54h-364v-266h350v-54h-350v-295h379v-54h-444zM331 777l-126 144h80l90 -144h-44z" />
    <glyph glyph-name="Eacute" unicode="&#xc9;" horiz-adv-x="602" 
d="M105 0v723h429v-54h-364v-266h350v-54h-350v-295h379v-54h-444zM309 777h-44l90 144h80z" />
    <glyph glyph-name="Ecircumflex" unicode="&#xca;" horiz-adv-x="602" 
d="M105 0v723h429v-54h-364v-266h350v-54h-350v-295h379v-54h-444zM410 775l-89 106l-91 -106h-46l101 146h73l98 -146h-46z" />
    <glyph glyph-name="Edieresis" unicode="&#xcb;" horiz-adv-x="602" 
d="M105 0v723h429v-54h-364v-266h350v-54h-350v-295h379v-54h-444zM369 816v76h73v-76h-73zM198 816v76h73v-76h-73z" />
    <glyph glyph-name="Igrave" unicode="&#xcc;" horiz-adv-x="275" 
d="M105 0v723h65v-723h-65zM149 777l-126 144h80l90 -144h-44z" />
    <glyph glyph-name="Iacute" unicode="&#xcd;" horiz-adv-x="275" 
d="M105 0v723h65v-723h-65zM127 777h-44l90 144h80z" />
    <glyph glyph-name="Icircumflex" unicode="&#xce;" horiz-adv-x="275" 
d="M105 0v723h65v-723h-65zM228 775l-89 106l-91 -106h-46l101 146h73l98 -146h-46z" />
    <glyph glyph-name="Idieresis" unicode="&#xcf;" horiz-adv-x="275" 
d="M105 0v723h65v-723h-65zM187 816v76h73v-76h-73zM16 816v76h73v-76h-73z" />
    <glyph glyph-name="Eth" unicode="&#xd0;" horiz-adv-x="728" 
d="M317 54q79 0 133.5 20.5t89 60t50 97.5t15.5 133q0 37 -5 74t-17 71.5t-33 64.5t-53 53q-21 15 -46 23.5t-51 12t-52.5 4.5t-51.5 1h-126v-243h206v-49h-206v-323h147zM105 377h-71v49h71v297h195q37 0 68 -1t58.5 -5.5t53.5 -14t54 -27.5q37 -24 63.5 -57.5t43 -74
t24.5 -86t8 -93.5q0 -73 -17.5 -136t-53.5 -111t-92 -77.5t-133 -36.5q-30 -3 -60.5 -3h-60.5h-151v377z" />
    <glyph glyph-name="Ntilde" unicode="&#xd1;" horiz-adv-x="751" 
d="M558 0l-392 644v-644h-61v723h88l392 -646v646h61v-723h-88zM512 897q-3 -16 -10.5 -31t-18 -27t-24.5 -19t-32 -7q-26 0 -51.5 10.5t-51.5 10.5q-35 0 -49 -29h-38q7 35 30 58t60 23q26 0 49 -10.5t49 -10.5q36 0 49 32h38z" />
    <glyph glyph-name="Ograve" unicode="&#xd2;" horiz-adv-x="745" 
d="M690 369q0 -77 -18 -145.5t-56 -121t-98.5 -83t-145.5 -30.5q-84 0 -144 29.5t-98.5 80.5t-56.5 119t-18 145q0 75 19 142.5t58 118.5t98.5 81.5t141.5 30.5q85 0 145.5 -28t98.5 -77t56 -116.5t18 -145.5zM618 363q0 61 -12 118.5t-40.5 101.5t-76 71t-117.5 27
q-68 0 -114.5 -28t-75.5 -73t-42 -102t-13 -115q0 -59 13 -116.5t42 -102.5t75.5 -73t114.5 -28t115 28t76 73t42 102.5t13 116.5zM382 777l-126 144h80l90 -144h-44z" />
    <glyph glyph-name="Oacute" unicode="&#xd3;" horiz-adv-x="745" 
d="M690 369q0 -77 -18 -145.5t-56 -121t-98.5 -83t-145.5 -30.5q-84 0 -144 29.5t-98.5 80.5t-56.5 119t-18 145q0 75 19 142.5t58 118.5t98.5 81.5t141.5 30.5q85 0 145.5 -28t98.5 -77t56 -116.5t18 -145.5zM618 363q0 61 -12 118.5t-40.5 101.5t-76 71t-117.5 27
q-68 0 -114.5 -28t-75.5 -73t-42 -102t-13 -115q0 -59 13 -116.5t42 -102.5t75.5 -73t114.5 -28t115 28t76 73t42 102.5t13 116.5zM360 777h-44l90 144h80z" />
    <glyph glyph-name="Ocircumflex" unicode="&#xd4;" horiz-adv-x="745" 
d="M690 369q0 -77 -18 -145.5t-56 -121t-98.5 -83t-145.5 -30.5q-84 0 -144 29.5t-98.5 80.5t-56.5 119t-18 145q0 75 19 142.5t58 118.5t98.5 81.5t141.5 30.5q85 0 145.5 -28t98.5 -77t56 -116.5t18 -145.5zM618 363q0 61 -12 118.5t-40.5 101.5t-76 71t-117.5 27
q-68 0 -114.5 -28t-75.5 -73t-42 -102t-13 -115q0 -59 13 -116.5t42 -102.5t75.5 -73t114.5 -28t115 28t76 73t42 102.5t13 116.5zM461 775l-89 106l-91 -106h-46l101 146h73l98 -146h-46z" />
    <glyph glyph-name="Otilde" unicode="&#xd5;" horiz-adv-x="745" 
d="M690 369q0 -77 -18 -145.5t-56 -121t-98.5 -83t-145.5 -30.5q-84 0 -144 29.5t-98.5 80.5t-56.5 119t-18 145q0 75 19 142.5t58 118.5t98.5 81.5t141.5 30.5q85 0 145.5 -28t98.5 -77t56 -116.5t18 -145.5zM618 363q0 61 -12 118.5t-40.5 101.5t-76 71t-117.5 27
q-68 0 -114.5 -28t-75.5 -73t-42 -102t-13 -115q0 -59 13 -116.5t42 -102.5t75.5 -73t114.5 -28t115 28t76 73t42 102.5t13 116.5zM509 897q-3 -16 -10.5 -31t-18 -27t-24.5 -19t-32 -7q-26 0 -51.5 10.5t-51.5 10.5q-35 0 -49 -29h-38q7 35 30 58t60 23q26 0 49 -10.5
t49 -10.5q36 0 49 32h38z" />
    <glyph glyph-name="Odieresis" unicode="&#xd6;" horiz-adv-x="745" 
d="M690 369q0 -77 -18 -145.5t-56 -121t-98.5 -83t-145.5 -30.5q-84 0 -144 29.5t-98.5 80.5t-56.5 119t-18 145q0 75 19 142.5t58 118.5t98.5 81.5t141.5 30.5q85 0 145.5 -28t98.5 -77t56 -116.5t18 -145.5zM618 363q0 61 -12 118.5t-40.5 101.5t-76 71t-117.5 27
q-68 0 -114.5 -28t-75.5 -73t-42 -102t-13 -115q0 -59 13 -116.5t42 -102.5t75.5 -73t114.5 -28t115 28t76 73t42 102.5t13 116.5zM420 816v76h73v-76h-73zM249 816v76h73v-76h-73z" />
    <glyph glyph-name="multiply" unicode="&#xd7;" horiz-adv-x="676" 
d="M533 7l-195 195l-195 -194l-41 40l195 195l-195 195l41 41l195 -195l194 194l42 -40l-195 -195l194 -195z" />
    <glyph glyph-name="Oslash" unicode="&#xd8;" horiz-adv-x="745" 
d="M554 599q-29 38 -73.5 60t-108.5 22q-68 0 -114.5 -28t-75.5 -73t-42 -102t-13 -115q0 -52 9.5 -102.5t32.5 -94.5zM193 128q29 -38 73 -61.5t106 -23.5q68 0 115 28t76 73t42 102.5t13 116.5q0 54 -9 105t-31 93zM627 616q32 -48 47.5 -111t15.5 -136q0 -77 -18 -145.5
t-56 -121t-98.5 -83t-145.5 -30.5q-75 0 -130.5 23t-93.5 65l-84 -94l-31 31l88 98q-34 51 -50 115t-16 136q0 75 19 142.5t58 118.5t98.5 81.5t141.5 30.5q77 0 133 -22.5t95 -63.5l78 88l32 -29z" />
    <glyph glyph-name="Ugrave" unicode="&#xd9;" horiz-adv-x="744" 
d="M649 266q0 -65 -19 -116t-54.5 -87t-87 -55t-116.5 -19q-134 0 -205.5 71.5t-71.5 205.5v457h68v-434q0 -42 4.5 -84t28.5 -78q29 -44 77.5 -63.5t98.5 -19.5q60 0 112 26t78 83q14 31 16.5 67t2.5 69v434h68v-457zM384 777l-126 144h80l90 -144h-44z" />
    <glyph glyph-name="Uacute" unicode="&#xda;" horiz-adv-x="744" 
d="M649 266q0 -65 -19 -116t-54.5 -87t-87 -55t-116.5 -19q-134 0 -205.5 71.5t-71.5 205.5v457h68v-434q0 -42 4.5 -84t28.5 -78q29 -44 77.5 -63.5t98.5 -19.5q60 0 112 26t78 83q14 31 16.5 67t2.5 69v434h68v-457zM362 777h-44l90 144h80z" />
    <glyph glyph-name="Ucircumflex" unicode="&#xdb;" horiz-adv-x="744" 
d="M649 266q0 -65 -19 -116t-54.5 -87t-87 -55t-116.5 -19q-134 0 -205.5 71.5t-71.5 205.5v457h68v-434q0 -42 4.5 -84t28.5 -78q29 -44 77.5 -63.5t98.5 -19.5q60 0 112 26t78 83q14 31 16.5 67t2.5 69v434h68v-457zM463 775l-89 106l-91 -106h-46l101 146h73l98 -146h-46
z" />
    <glyph glyph-name="Udieresis" unicode="&#xdc;" horiz-adv-x="744" 
d="M649 266q0 -65 -19 -116t-54.5 -87t-87 -55t-116.5 -19q-134 0 -205.5 71.5t-71.5 205.5v457h68v-434q0 -42 4.5 -84t28.5 -78q29 -44 77.5 -63.5t98.5 -19.5q60 0 112 26t78 83q14 31 16.5 67t2.5 69v434h68v-457zM422 816v76h73v-76h-73zM251 816v76h73v-76h-73z" />
    <glyph glyph-name="Yacute" unicode="&#xdd;" horiz-adv-x="613" 
d="M339 310v-310h-65v312l-280 413h78l238 -355l235 355h74zM297 777h-44l90 144h80z" />
    <glyph glyph-name="Thorn" unicode="&#xde;" horiz-adv-x="602" 
d="M308 582q118 0 176 -37q44 -28 62.5 -68.5t18.5 -95.5q0 -66 -35 -114t-98 -69q-32 -11 -69.5 -14t-77.5 -3h-115v-181h-65v723h65v-141h138zM278 235q29 0 66.5 2.5t65.5 12.5q42 15 63.5 54.5t21.5 82.5q0 45 -14.5 72.5t-40 43t-59 20.5t-70.5 5h-141v-293h108z" />
    <glyph glyph-name="germandbls" unicode="&#xdf;" horiz-adv-x="610" 
d="M574 153q0 -38 -14.5 -68t-38.5 -50.5t-56.5 -31t-68.5 -10.5q-69 0 -112 39t-45 109h62q0 -48 26 -73.5t74 -25.5q22 0 42 7.5t35 21.5t24 33t9 42q0 31 -16 52t-40.5 37.5t-53 30.5t-53 31.5t-40.5 40.5t-16 58q0 31 19 55t41.5 45.5t41.5 42.5t19 46q0 23 -10.5 41
t-27.5 30.5t-38 19t-42 6.5q-41 0 -76.5 -19t-54.5 -57q-10 -20 -13 -52.5t-3 -87.5v-466h-61v451q0 54 2.5 90.5t14.5 71.5q11 30 30.5 52.5t45 37t55 21.5t60.5 7q34 0 65.5 -9t56 -27.5t39.5 -46t15 -64.5q0 -34 -19 -58.5t-41.5 -45t-41 -40t-18.5 -43.5q0 -22 16.5 -38
t41.5 -30.5t53.5 -29t53.5 -34.5t41.5 -47t16.5 -65z" />
    <glyph glyph-name="agrave" unicode="&#xe0;" horiz-adv-x="536" 
d="M403 0q-2 18 -4 36.5t-4 36.5q-32 -48 -72 -66t-97 -18q-35 0 -66.5 9t-56 27t-39 46t-14.5 66q0 40 14.5 68t39 46.5t56 29t66.5 15.5t70 6t66 1h26q1 9 1 17.5v17.5q0 65 -28 97.5t-95 32.5q-49 0 -80 -19.5t-37 -73.5h-60q0 38 15.5 64.5t40 43t56.5 24t65 7.5
q94 0 138.5 -41.5t44.5 -135.5v-150q0 -48 2.5 -93.5t7.5 -93.5h-56zM390 258q-13 1 -25 1.5t-25 0.5q-32 0 -71.5 -2.5t-74 -14.5t-58.5 -36.5t-24 -67.5q0 -26 10.5 -46t28 -33.5t40 -20t46.5 -6.5q54 0 84.5 19.5t46 51.5t19 72t3.5 82zM280 592l-126 144h80l90 -144h-44
z" />
    <glyph glyph-name="aacute" unicode="&#xe1;" horiz-adv-x="536" 
d="M403 0q-2 18 -4 36.5t-4 36.5q-32 -48 -72 -66t-97 -18q-35 0 -66.5 9t-56 27t-39 46t-14.5 66q0 40 14.5 68t39 46.5t56 29t66.5 15.5t70 6t66 1h26q1 9 1 17.5v17.5q0 65 -28 97.5t-95 32.5q-49 0 -80 -19.5t-37 -73.5h-60q0 38 15.5 64.5t40 43t56.5 24t65 7.5
q94 0 138.5 -41.5t44.5 -135.5v-150q0 -48 2.5 -93.5t7.5 -93.5h-56zM390 258q-13 1 -25 1.5t-25 0.5q-32 0 -71.5 -2.5t-74 -14.5t-58.5 -36.5t-24 -67.5q0 -26 10.5 -46t28 -33.5t40 -20t46.5 -6.5q54 0 84.5 19.5t46 51.5t19 72t3.5 82zM258 592h-44l90 144h80z" />
    <glyph glyph-name="acircumflex" unicode="&#xe2;" horiz-adv-x="536" 
d="M403 0q-2 18 -4 36.5t-4 36.5q-32 -48 -72 -66t-97 -18q-35 0 -66.5 9t-56 27t-39 46t-14.5 66q0 40 14.5 68t39 46.5t56 29t66.5 15.5t70 6t66 1h26q1 9 1 17.5v17.5q0 65 -28 97.5t-95 32.5q-49 0 -80 -19.5t-37 -73.5h-60q0 38 15.5 64.5t40 43t56.5 24t65 7.5
q94 0 138.5 -41.5t44.5 -135.5v-150q0 -48 2.5 -93.5t7.5 -93.5h-56zM390 258q-13 1 -25 1.5t-25 0.5q-32 0 -71.5 -2.5t-74 -14.5t-58.5 -36.5t-24 -67.5q0 -26 10.5 -46t28 -33.5t40 -20t46.5 -6.5q54 0 84.5 19.5t46 51.5t19 72t3.5 82zM359 592l-89 106l-91 -106h-46
l101 146h73l98 -146h-46z" />
    <glyph glyph-name="atilde" unicode="&#xe3;" horiz-adv-x="536" 
d="M403 0q-2 18 -4 36.5t-4 36.5q-32 -48 -72 -66t-97 -18q-35 0 -66.5 9t-56 27t-39 46t-14.5 66q0 40 14.5 68t39 46.5t56 29t66.5 15.5t70 6t66 1h26q1 9 1 17.5v17.5q0 65 -28 97.5t-95 32.5q-49 0 -80 -19.5t-37 -73.5h-60q0 38 15.5 64.5t40 43t56.5 24t65 7.5
q94 0 138.5 -41.5t44.5 -135.5v-150q0 -48 2.5 -93.5t7.5 -93.5h-56zM390 258q-13 1 -25 1.5t-25 0.5q-32 0 -71.5 -2.5t-74 -14.5t-58.5 -36.5t-24 -67.5q0 -26 10.5 -46t28 -33.5t40 -20t46.5 -6.5q54 0 84.5 19.5t46 51.5t19 72t3.5 82zM407 712q-3 -16 -10.5 -31
t-18 -27t-24.5 -19t-32 -7q-26 0 -51.5 10.5t-51.5 10.5q-35 0 -49 -29h-38q7 35 30 58t60 23q26 0 49 -10.5t49 -10.5q36 0 49 32h38z" />
    <glyph glyph-name="adieresis" unicode="&#xe4;" horiz-adv-x="536" 
d="M403 0q-2 18 -4 36.5t-4 36.5q-32 -48 -72 -66t-97 -18q-35 0 -66.5 9t-56 27t-39 46t-14.5 66q0 40 14.5 68t39 46.5t56 29t66.5 15.5t70 6t66 1h26q1 9 1 17.5v17.5q0 65 -28 97.5t-95 32.5q-49 0 -80 -19.5t-37 -73.5h-60q0 38 15.5 64.5t40 43t56.5 24t65 7.5
q94 0 138.5 -41.5t44.5 -135.5v-150q0 -48 2.5 -93.5t7.5 -93.5h-56zM390 258q-13 1 -25 1.5t-25 0.5q-32 0 -71.5 -2.5t-74 -14.5t-58.5 -36.5t-24 -67.5q0 -26 10.5 -46t28 -33.5t40 -20t46.5 -6.5q54 0 84.5 19.5t46 51.5t19 72t3.5 82zM328 647v76h73v-76h-73zM157 647
v76h73v-76h-73z" />
    <glyph glyph-name="aring" unicode="&#xe5;" horiz-adv-x="536" 
d="M403 0q-2 18 -4 36.5t-4 36.5q-32 -48 -72 -66t-97 -18q-35 0 -66.5 9t-56 27t-39 46t-14.5 66q0 40 14.5 68t39 46.5t56 29t66.5 15.5t70 6t66 1h26q1 9 1 17.5v17.5q0 65 -28 97.5t-95 32.5q-49 0 -80 -19.5t-37 -73.5h-60q0 38 15.5 64.5t40 43t56.5 24t65 7.5
q94 0 138.5 -41.5t44.5 -135.5v-150q0 -48 2.5 -93.5t7.5 -93.5h-56zM390 258q-13 1 -25 1.5t-25 0.5q-32 0 -71.5 -2.5t-74 -14.5t-58.5 -36.5t-24 -67.5q0 -26 10.5 -46t28 -33.5t40 -20t46.5 -6.5q54 0 84.5 19.5t46 51.5t19 72t3.5 82zM365 666q0 -38 -26.5 -64
t-64.5 -26t-64.5 26t-26.5 64t26.5 64t64.5 26t64.5 -26t26.5 -64zM331 666q0 26 -16 43t-41 17t-41 -17t-16 -43t16 -43t41 -17t41 17t16 43z" />
    <glyph glyph-name="ae" unicode="&#xe6;" horiz-adv-x="843" 
d="M443 242q0 -36 6.5 -72t23 -64t44.5 -45.5t71 -17.5q26 0 50.5 7t43.5 21t30.5 35.5t11.5 50.5h64q-13 -81 -63.5 -124t-132.5 -43q-61 0 -107 28.5t-70 85.5q-24 -59 -71.5 -87t-116.5 -28q-33 0 -65 8.5t-56.5 26t-40 45t-15.5 65.5q0 44 23 78.5t61 54.5q32 17 74 21
t85 4h89q0 35 -3.5 66t-16 54.5t-37 37t-66.5 13.5q-48 0 -77.5 -19t-40.5 -68h-64q4 37 19.5 63t39 42t53.5 23.5t65 7.5q59 0 102.5 -20.5t63.5 -79.5q26 54 69 78.5t103 24.5q55 0 93.5 -20.5t62.5 -55t35 -79.5t11 -94v-24h-351zM732 292q-1 33 -9 63.5t-24.5 54
t-43 37.5t-63.5 14q-40 0 -67 -13.5t-44.5 -36.5t-26 -54t-11.5 -65h289zM383 216v13t-1 13h-113q-26 0 -53 -4t-49 -15.5t-36.5 -32t-14.5 -52.5q0 -25 9 -43.5t24.5 -31t36 -19t43.5 -6.5q42 0 71.5 13.5t47.5 37.5t26.5 56.5t8.5 70.5z" />
    <glyph glyph-name="ccedilla" unicode="&#xe7;" horiz-adv-x="522" 
d="M375 -115q0 -21 -9.5 -34.5t-24 -21.5t-32 -11t-34.5 -3q-28 0 -54 6t-52 17l7 28q22 -10 45.5 -17.5t47.5 -7.5q20 0 35 8t15 31t-14.5 31.5t-35.5 8.5q-16 0 -31 -3l23 73q-53 4 -92.5 24.5t-66 54.5t-40 79.5t-13.5 98.5q0 57 15 106.5t45 86t75 58t106 21.5
q83 0 135 -43t59 -128h-59q-5 59 -40 91t-94 32q-49 0 -82.5 -18.5t-54.5 -49t-30.5 -70.5t-9.5 -83q0 -40 10 -78.5t31 -69t53.5 -49t77.5 -18.5q58 0 97 34.5t44 93.5h57q-8 -85 -61 -129.5t-138 -44.5l-11 -40q17 0 35 -1.5t32.5 -8t24 -19.5t9.5 -35z" />
    <glyph glyph-name="egrave" unicode="&#xe8;" horiz-adv-x="532" 
d="M111 243v-12q0 -38 10.5 -73.5t31.5 -63t52.5 -44t73.5 -16.5q60 0 96.5 34.5t46.5 91.5h58q-16 -85 -69.5 -128t-139.5 -43q-58 0 -100 20t-69 54.5t-40 81t-13 99.5q0 54 13.5 103t42 86t71.5 58.5t103 21.5t99.5 -23t63 -61t32.5 -86.5t9 -99.5h-372zM421 298
q0 33 -9.5 63.5t-27.5 54t-45.5 37t-63.5 13.5q-38 0 -67 -15t-49 -39.5t-31.5 -57t-14.5 -66.5h308v10zM284 592l-126 144h80l90 -144h-44z" />
    <glyph glyph-name="eacute" unicode="&#xe9;" horiz-adv-x="532" 
d="M111 243v-12q0 -38 10.5 -73.5t31.5 -63t52.5 -44t73.5 -16.5q60 0 96.5 34.5t46.5 91.5h58q-16 -85 -69.5 -128t-139.5 -43q-58 0 -100 20t-69 54.5t-40 81t-13 99.5q0 54 13.5 103t42 86t71.5 58.5t103 21.5t99.5 -23t63 -61t32.5 -86.5t9 -99.5h-372zM421 298
q0 33 -9.5 63.5t-27.5 54t-45.5 37t-63.5 13.5q-38 0 -67 -15t-49 -39.5t-31.5 -57t-14.5 -66.5h308v10zM262 592h-44l90 144h80z" />
    <glyph glyph-name="ecircumflex" unicode="&#xea;" horiz-adv-x="532" 
d="M111 243v-12q0 -38 10.5 -73.5t31.5 -63t52.5 -44t73.5 -16.5q60 0 96.5 34.5t46.5 91.5h58q-16 -85 -69.5 -128t-139.5 -43q-58 0 -100 20t-69 54.5t-40 81t-13 99.5q0 54 13.5 103t42 86t71.5 58.5t103 21.5t99.5 -23t63 -61t32.5 -86.5t9 -99.5h-372zM421 298
q0 33 -9.5 63.5t-27.5 54t-45.5 37t-63.5 13.5q-38 0 -67 -15t-49 -39.5t-31.5 -57t-14.5 -66.5h308v10zM363 592l-89 106l-91 -106h-46l101 146h73l98 -146h-46z" />
    <glyph glyph-name="edieresis" unicode="&#xeb;" horiz-adv-x="532" 
d="M111 243v-12q0 -38 10.5 -73.5t31.5 -63t52.5 -44t73.5 -16.5q60 0 96.5 34.5t46.5 91.5h58q-16 -85 -69.5 -128t-139.5 -43q-58 0 -100 20t-69 54.5t-40 81t-13 99.5q0 54 13.5 103t42 86t71.5 58.5t103 21.5t99.5 -23t63 -61t32.5 -86.5t9 -99.5h-372zM421 298
q0 33 -9.5 63.5t-27.5 54t-45.5 37t-63.5 13.5q-38 0 -67 -15t-49 -39.5t-31.5 -57t-14.5 -66.5h308v10zM322 647v76h73v-76h-73zM151 647v76h73v-76h-73z" />
    <glyph glyph-name="igrave" unicode="&#xec;" horiz-adv-x="235" 
d="M87 0v505h61v-505h-61zM129 592l-126 144h80l90 -144h-44z" />
    <glyph glyph-name="iacute" unicode="&#xed;" horiz-adv-x="235" 
d="M87 0v505h61v-505h-61zM107 592h-44l90 144h80z" />
    <glyph glyph-name="icircumflex" unicode="&#xee;" horiz-adv-x="235" 
d="M87 0v505h61v-505h-61zM208 592l-89 106l-91 -106h-46l101 146h73l98 -146h-46z" />
    <glyph glyph-name="idieresis" unicode="&#xef;" horiz-adv-x="235" 
d="M87 0v505h61v-505h-61zM167 647v76h73v-76h-73zM-4 647v76h73v-76h-73z" />
    <glyph glyph-name="eth" unicode="&#xf0;" horiz-adv-x="564" 
d="M515 303q0 -57 -12.5 -113t-40 -100.5t-73 -72.5t-111.5 -28q-57 0 -100 20t-71.5 54.5t-43 81.5t-14.5 100q0 50 14.5 95.5t42.5 80t69 55t95 20.5q69 0 116 -33.5t71 -98.5q-11 93 -48 164t-116 124l-93 -57l-29 27l85 52q-23 12 -47 20.5t-50 16.5l18 39
q35 -8 66 -19.5t61 -28.5l94 58l30 -25l-88 -54q49 -30 82.5 -72.5t54 -92t29.5 -104.5t9 -109zM445 256q0 39 -10 73.5t-30.5 61t-52 41.5t-73.5 15q-45 0 -76 -17t-50.5 -45.5t-28 -65.5t-8.5 -77q0 -38 9.5 -74t29 -64t50 -45t73.5 -17q45 0 76.5 19t51.5 49t29.5 68.5
t9.5 77.5z" />
    <glyph glyph-name="ntilde" unicode="&#xf1;" horiz-adv-x="574" 
d="M429 0v285q0 35 -3.5 66.5t-16.5 55.5t-38.5 38t-68.5 14t-72.5 -15.5t-47.5 -42t-26 -61t-8 -71.5v-269h-61v362q0 36 -1.5 71.5t-1.5 71.5h60l4 -84q31 46 70 67.5t95 21.5q51 0 85.5 -14t54.5 -40t28.5 -63t8.5 -84v-309h-61zM435 712q-3 -16 -10.5 -31t-18 -27
t-24.5 -19t-32 -7q-26 0 -51.5 10.5t-51.5 10.5q-35 0 -49 -29h-38q7 35 30 58t60 23q26 0 49 -10.5t49 -10.5q36 0 49 32h38z" />
    <glyph glyph-name="ograve" unicode="&#xf2;" horiz-adv-x="571" 
d="M522 256q0 -53 -15.5 -101.5t-45.5 -85.5t-74 -58.5t-101 -21.5q-59 0 -103.5 21t-74 57t-44.5 84.5t-15 104.5q0 55 15.5 102t45.5 82t74 55t102 20t102.5 -19.5t74 -54.5t44.5 -82.5t15 -102.5zM457 256q0 40 -9.5 78t-30.5 67t-53.5 46.5t-77.5 17.5t-77.5 -17.5
t-53.5 -46.5t-31 -66.5t-10 -78.5q0 -40 9.5 -79.5t30.5 -70.5t53.5 -50.5t78.5 -19.5q45 0 77.5 19.5t53 51t30.5 71t10 78.5zM297 592l-126 144h80l90 -144h-44z" />
    <glyph glyph-name="oacute" unicode="&#xf3;" horiz-adv-x="571" 
d="M522 256q0 -53 -15.5 -101.5t-45.5 -85.5t-74 -58.5t-101 -21.5q-59 0 -103.5 21t-74 57t-44.5 84.5t-15 104.5q0 55 15.5 102t45.5 82t74 55t102 20t102.5 -19.5t74 -54.5t44.5 -82.5t15 -102.5zM457 256q0 40 -9.5 78t-30.5 67t-53.5 46.5t-77.5 17.5t-77.5 -17.5
t-53.5 -46.5t-31 -66.5t-10 -78.5q0 -40 9.5 -79.5t30.5 -70.5t53.5 -50.5t78.5 -19.5q45 0 77.5 19.5t53 51t30.5 71t10 78.5zM275 592h-44l90 144h80z" />
    <glyph glyph-name="ocircumflex" unicode="&#xf4;" horiz-adv-x="571" 
d="M522 256q0 -53 -15.5 -101.5t-45.5 -85.5t-74 -58.5t-101 -21.5q-59 0 -103.5 21t-74 57t-44.5 84.5t-15 104.5q0 55 15.5 102t45.5 82t74 55t102 20t102.5 -19.5t74 -54.5t44.5 -82.5t15 -102.5zM457 256q0 40 -9.5 78t-30.5 67t-53.5 46.5t-77.5 17.5t-77.5 -17.5
t-53.5 -46.5t-31 -66.5t-10 -78.5q0 -40 9.5 -79.5t30.5 -70.5t53.5 -50.5t78.5 -19.5q45 0 77.5 19.5t53 51t30.5 71t10 78.5zM376 592l-89 106l-91 -106h-46l101 146h73l98 -146h-46z" />
    <glyph glyph-name="otilde" unicode="&#xf5;" horiz-adv-x="571" 
d="M522 256q0 -53 -15.5 -101.5t-45.5 -85.5t-74 -58.5t-101 -21.5q-59 0 -103.5 21t-74 57t-44.5 84.5t-15 104.5q0 55 15.5 102t45.5 82t74 55t102 20t102.5 -19.5t74 -54.5t44.5 -82.5t15 -102.5zM457 256q0 40 -9.5 78t-30.5 67t-53.5 46.5t-77.5 17.5t-77.5 -17.5
t-53.5 -46.5t-31 -66.5t-10 -78.5q0 -40 9.5 -79.5t30.5 -70.5t53.5 -50.5t78.5 -19.5q45 0 77.5 19.5t53 51t30.5 71t10 78.5zM424 712q-3 -16 -10.5 -31t-18 -27t-24.5 -19t-32 -7q-26 0 -51.5 10.5t-51.5 10.5q-35 0 -49 -29h-38q7 35 30 58t60 23q26 0 49 -10.5
t49 -10.5q36 0 49 32h38z" />
    <glyph glyph-name="odieresis" unicode="&#xf6;" horiz-adv-x="571" 
d="M522 256q0 -53 -15.5 -101.5t-45.5 -85.5t-74 -58.5t-101 -21.5q-59 0 -103.5 21t-74 57t-44.5 84.5t-15 104.5q0 55 15.5 102t45.5 82t74 55t102 20t102.5 -19.5t74 -54.5t44.5 -82.5t15 -102.5zM457 256q0 40 -9.5 78t-30.5 67t-53.5 46.5t-77.5 17.5t-77.5 -17.5
t-53.5 -46.5t-31 -66.5t-10 -78.5q0 -40 9.5 -79.5t30.5 -70.5t53.5 -50.5t78.5 -19.5q45 0 77.5 19.5t53 51t30.5 71t10 78.5zM335 647v76h73v-76h-73zM164 647v76h73v-76h-73z" />
    <glyph glyph-name="divide" unicode="&#xf7;" horiz-adv-x="676" 
d="M300 369v103h76v-103h-76zM88 216v54h500v-54h-500zM300 13v103h76v-103h-76z" />
    <glyph glyph-name="oslash" unicode="&#xf8;" horiz-adv-x="571" 
d="M522 256q0 -53 -15.5 -101.5t-45.5 -85.5t-74 -58.5t-101 -21.5q-53 0 -93.5 16.5t-69.5 45.5l-68 -72l-31 28l72 76q-23 35 -35 79t-12 94q0 55 15.5 102t45.5 82t74 55t102 20q52 0 93 -15.5t70 -43.5l68 72l30 -28l-71 -76q46 -67 46 -168zM408 413q-21 24 -51 38
t-71 14q-45 0 -77.5 -17.5t-53.5 -46.5t-31 -66.5t-10 -78.5q0 -33 6 -65t20 -61zM457 256q0 33 -6 64t-20 57l-268 -284q21 -26 51 -41.5t72 -15.5q45 0 77.5 19.5t53 51t30.5 71t10 78.5z" />
    <glyph glyph-name="ugrave" unicode="&#xf9;" horiz-adv-x="574" 
d="M430 0l-2 81q-32 -45 -70 -65.5t-94 -20.5q-51 0 -85.5 13.5t-55.5 39.5t-30 63t-9 85v309h61v-285q0 -35 5 -66.5t19.5 -55.5t39.5 -38t65 -14q43 0 72 16.5t47 43.5t25.5 62t7.5 73v264h61v-354q0 -76 3 -151h-60zM296 592l-126 144h80l90 -144h-44z" />
    <glyph glyph-name="uacute" unicode="&#xfa;" horiz-adv-x="574" 
d="M430 0l-2 81q-32 -45 -70 -65.5t-94 -20.5q-51 0 -85.5 13.5t-55.5 39.5t-30 63t-9 85v309h61v-285q0 -35 5 -66.5t19.5 -55.5t39.5 -38t65 -14q43 0 72 16.5t47 43.5t25.5 62t7.5 73v264h61v-354q0 -76 3 -151h-60zM274 592h-44l90 144h80z" />
    <glyph glyph-name="ucircumflex" unicode="&#xfb;" horiz-adv-x="574" 
d="M430 0l-2 81q-32 -45 -70 -65.5t-94 -20.5q-51 0 -85.5 13.5t-55.5 39.5t-30 63t-9 85v309h61v-285q0 -35 5 -66.5t19.5 -55.5t39.5 -38t65 -14q43 0 72 16.5t47 43.5t25.5 62t7.5 73v264h61v-354q0 -76 3 -151h-60zM375 592l-89 106l-91 -106h-46l101 146h73l98 -146
h-46z" />
    <glyph glyph-name="udieresis" unicode="&#xfc;" horiz-adv-x="574" 
d="M430 0l-2 81q-32 -45 -70 -65.5t-94 -20.5q-51 0 -85.5 13.5t-55.5 39.5t-30 63t-9 85v309h61v-285q0 -35 5 -66.5t19.5 -55.5t39.5 -38t65 -14q43 0 72 16.5t47 43.5t25.5 62t7.5 73v264h61v-354q0 -76 3 -151h-60zM334 647v76h73v-76h-73zM163 647v76h73v-76h-73z" />
    <glyph glyph-name="yacute" unicode="&#xfd;" horiz-adv-x="507" 
d="M213 -190h-62l80 193l-212 502h73l169 -423l168 423h61zM250 592h-44l90 144h80z" />
    <glyph glyph-name="thorn" unicode="&#xfe;" horiz-adv-x="582" 
d="M533 260q0 -51 -13.5 -99t-41.5 -85.5t-69.5 -60.5t-97.5 -23q-29 0 -52 5.5t-42.5 17t-36 29t-32.5 41.5v-275h-61v913h61v-312q32 54 72 78.5t103 24.5q55 0 94.5 -21.5t65 -56.5t38 -81t12.5 -95zM468 253q0 37 -7.5 74.5t-25 68.5t-47 50.5t-73.5 19.5q-45 0 -77 -19
t-51.5 -49.5t-28.5 -69t-9 -77.5q0 -38 7.5 -75.5t25.5 -67.5t47.5 -48.5t73.5 -18.5q45 0 76.5 18t51 48t28.5 68t9 78z" />
    <glyph glyph-name="ydieresis" unicode="&#xff;" horiz-adv-x="507" 
d="M213 -190h-62l80 193l-212 502h73l169 -423l168 423h61zM310 647v76h73v-76h-73zM139 647v76h73v-76h-73z" />
    <glyph glyph-name="Amacron" unicode="&#x100;" horiz-adv-x="693" 
d="M606 0l-82 202h-366l-78 -202h-69l295 723h69l307 -723h-76zM336 660l-157 -404h322zM215 818v51h245v-51h-245z" />
    <glyph glyph-name="amacron" unicode="&#x101;" horiz-adv-x="536" 
d="M403 0q-2 18 -4 36.5t-4 36.5q-32 -48 -72 -66t-97 -18q-35 0 -66.5 9t-56 27t-39 46t-14.5 66q0 40 14.5 68t39 46.5t56 29t66.5 15.5t70 6t66 1h26q1 9 1 17.5v17.5q0 65 -28 97.5t-95 32.5q-49 0 -80 -19.5t-37 -73.5h-60q0 38 15.5 64.5t40 43t56.5 24t65 7.5
q94 0 138.5 -41.5t44.5 -135.5v-150q0 -48 2.5 -93.5t7.5 -93.5h-56zM390 258q-13 1 -25 1.5t-25 0.5q-32 0 -71.5 -2.5t-74 -14.5t-58.5 -36.5t-24 -67.5q0 -26 10.5 -46t28 -33.5t40 -20t46.5 -6.5q54 0 84.5 19.5t46 51.5t19 72t3.5 82zM147 643v51h245v-51h-245z" />
    <glyph glyph-name="Abreve" unicode="&#x102;" horiz-adv-x="693" 
d="M606 0l-82 202h-366l-78 -202h-69l295 723h69l307 -723h-76zM336 660l-157 -404h322zM479 902q-6 -54 -44 -86t-100 -32q-59 0 -100 31.5t-43 86.5h38q3 -18 14 -31t26 -22t32 -13.5t33 -4.5q35 0 65 17t43 54h36z" />
    <glyph glyph-name="abreve" unicode="&#x103;" horiz-adv-x="536" 
d="M403 0q-2 18 -4 36.5t-4 36.5q-32 -48 -72 -66t-97 -18q-35 0 -66.5 9t-56 27t-39 46t-14.5 66q0 40 14.5 68t39 46.5t56 29t66.5 15.5t70 6t66 1h26q1 9 1 17.5v17.5q0 65 -28 97.5t-95 32.5q-49 0 -80 -19.5t-37 -73.5h-60q0 38 15.5 64.5t40 43t56.5 24t65 7.5
q94 0 138.5 -41.5t44.5 -135.5v-150q0 -48 2.5 -93.5t7.5 -93.5h-56zM390 258q-13 1 -25 1.5t-25 0.5q-32 0 -71.5 -2.5t-74 -14.5t-58.5 -36.5t-24 -67.5q0 -26 10.5 -46t28 -33.5t40 -20t46.5 -6.5q54 0 84.5 19.5t46 51.5t19 72t3.5 82zM411 710q-6 -54 -44 -86t-100 -32
q-59 0 -100 31.5t-43 86.5h38q3 -18 14 -31t26 -22t32 -13.5t33 -4.5q35 0 65 17t43 54h36z" />
    <glyph glyph-name="Aogonek" unicode="&#x104;" horiz-adv-x="693" 
d="M682 0q-63 -16 -93.5 -41.5t-30.5 -54.5q0 -26 19.5 -37.5t42.5 -11.5q12 0 21 2.5t20 7.5l8 -26q-35 -18 -75 -18q-16 0 -32.5 3.5t-30 11.5t-22 21t-8.5 32t10 36t27 31t40 25t49 19h-21l-82 202h-366l-78 -202h-69l295 723h69zM336 660l-157 -404h322z" />
    <glyph glyph-name="aogonek" unicode="&#x105;" horiz-adv-x="536" 
d="M459 0q-60 -22 -88 -44.5t-28 -51.5q0 -26 19.5 -37.5t42.5 -11.5q12 0 21 2.5t20 7.5l8 -26q-35 -18 -75 -18q-16 0 -32.5 3.5t-30 11.5t-22 21t-8.5 32t10 36t27 31t40 25t49 19h-9q-2 18 -4 36.5t-4 36.5q-32 -48 -72 -66t-97 -18q-35 0 -66.5 9t-56 27t-39 46
t-14.5 66q0 40 14.5 68t39 46.5t56 29t66.5 15.5t70 6t66 1h26q1 9 1 17.5v17.5q0 65 -28 97.5t-95 32.5q-49 0 -80 -19.5t-37 -73.5h-60q0 38 15.5 64.5t40 43t56.5 24t65 7.5q94 0 138.5 -41.5t44.5 -135.5v-150q0 -48 2.5 -93.5t7.5 -93.5zM390 258q-13 1 -25 1.5
t-25 0.5q-32 0 -71.5 -2.5t-74 -14.5t-58.5 -36.5t-24 -67.5q0 -26 10.5 -46t28 -33.5t40 -20t46.5 -6.5q54 0 84.5 19.5t46 51.5t19 72t3.5 82z" />
    <glyph glyph-name="Cacute" unicode="&#x106;" horiz-adv-x="664" 
d="M607 178q-17 -91 -83.5 -139.5t-162.5 -48.5q-82 0 -140 29t-95 79t-54 116.5t-17 140.5q0 76 19 144.5t58 120.5t97.5 83t137.5 31q57 0 111 -19t89 -67q16 -22 26 -46.5t11 -51.5h-70q-3 33 -18.5 57t-38.5 39.5t-52 23t-59 7.5q-65 0 -110.5 -28t-74.5 -73t-42.5 -101
t-13.5 -112q0 -58 11.5 -114.5t39.5 -101.5t73.5 -72.5t113.5 -27.5q29 0 58 8.5t53 25t40 41t21 56.5h72zM347 777h-44l90 144h80z" />
    <glyph glyph-name="cacute" unicode="&#x107;" horiz-adv-x="522" 
d="M484 163q-8 -85 -61.5 -129.5t-137.5 -44.5q-59 0 -103 19.5t-73.5 54t-44.5 81.5t-15 103q0 57 15 106.5t45 86t75 58t106 21.5q83 0 135 -43t59 -128h-59q-5 59 -40 91t-94 32q-49 0 -82.5 -18.5t-54.5 -49t-30.5 -70.5t-9.5 -83q0 -40 10 -78.5t31 -69t53.5 -49
t77.5 -18.5q58 0 97 34.5t44 93.5h57zM276 592h-44l90 144h80z" />
    <glyph glyph-name="Ccircumflex" unicode="&#x108;" horiz-adv-x="664" 
d="M607 178q-17 -91 -83.5 -139.5t-162.5 -48.5q-82 0 -140 29t-95 79t-54 116.5t-17 140.5q0 76 19 144.5t58 120.5t97.5 83t137.5 31q57 0 111 -19t89 -67q16 -22 26 -46.5t11 -51.5h-70q-3 33 -18.5 57t-38.5 39.5t-52 23t-59 7.5q-65 0 -110.5 -28t-74.5 -73t-42.5 -101
t-13.5 -112q0 -58 11.5 -114.5t39.5 -101.5t73.5 -72.5t113.5 -27.5q29 0 58 8.5t53 25t40 41t21 56.5h72zM448 775l-89 106l-91 -106h-46l101 146h73l98 -146h-46z" />
    <glyph glyph-name="ccircumflex" unicode="&#x109;" horiz-adv-x="522" 
d="M484 163q-8 -85 -61.5 -129.5t-137.5 -44.5q-59 0 -103 19.5t-73.5 54t-44.5 81.5t-15 103q0 57 15 106.5t45 86t75 58t106 21.5q83 0 135 -43t59 -128h-59q-5 59 -40 91t-94 32q-49 0 -82.5 -18.5t-54.5 -49t-30.5 -70.5t-9.5 -83q0 -40 10 -78.5t31 -69t53.5 -49
t77.5 -18.5q58 0 97 34.5t44 93.5h57zM377 592l-89 106l-91 -106h-46l101 146h73l98 -146h-46z" />
    <glyph glyph-name="Cdotaccent" unicode="&#x10a;" horiz-adv-x="664" 
d="M607 178q-17 -91 -83.5 -139.5t-162.5 -48.5q-82 0 -140 29t-95 79t-54 116.5t-17 140.5q0 76 19 144.5t58 120.5t97.5 83t137.5 31q57 0 111 -19t89 -67q16 -22 26 -46.5t11 -51.5h-70q-3 33 -18.5 57t-38.5 39.5t-52 23t-59 7.5q-65 0 -110.5 -28t-74.5 -73t-42.5 -101
t-13.5 -112q0 -58 11.5 -114.5t39.5 -101.5t73.5 -72.5t113.5 -27.5q29 0 58 8.5t53 25t40 41t21 56.5h72zM322 816v76h73v-76h-73z" />
    <glyph glyph-name="cdotaccent" unicode="&#x10b;" horiz-adv-x="522" 
d="M484 163q-8 -85 -61.5 -129.5t-137.5 -44.5q-59 0 -103 19.5t-73.5 54t-44.5 81.5t-15 103q0 57 15 106.5t45 86t75 58t106 21.5q83 0 135 -43t59 -128h-59q-5 59 -40 91t-94 32q-49 0 -82.5 -18.5t-54.5 -49t-30.5 -70.5t-9.5 -83q0 -40 10 -78.5t31 -69t53.5 -49
t77.5 -18.5q58 0 97 34.5t44 93.5h57zM251 647v76h73v-76h-73z" />
    <glyph glyph-name="Ccaron" unicode="&#x10c;" horiz-adv-x="664" 
d="M607 178q-17 -91 -83.5 -139.5t-162.5 -48.5q-82 0 -140 29t-95 79t-54 116.5t-17 140.5q0 76 19 144.5t58 120.5t97.5 83t137.5 31q57 0 111 -19t89 -67q16 -22 26 -46.5t11 -51.5h-70q-3 33 -18.5 57t-38.5 39.5t-52 23t-59 7.5q-65 0 -110.5 -28t-74.5 -73t-42.5 -101
t-13.5 -112q0 -58 11.5 -114.5t39.5 -101.5t73.5 -72.5t113.5 -27.5q29 0 58 8.5t53 25t40 41t21 56.5h72zM397 777h-80l-98 144h46l93 -106l89 106h46z" />
    <glyph glyph-name="ccaron" unicode="&#x10d;" horiz-adv-x="522" 
d="M484 163q-8 -85 -61.5 -129.5t-137.5 -44.5q-59 0 -103 19.5t-73.5 54t-44.5 81.5t-15 103q0 57 15 106.5t45 86t75 58t106 21.5q83 0 135 -43t59 -128h-59q-5 59 -40 91t-94 32q-49 0 -82.5 -18.5t-54.5 -49t-30.5 -70.5t-9.5 -83q0 -40 10 -78.5t31 -69t53.5 -49
t77.5 -18.5q58 0 97 34.5t44 93.5h57zM328 592h-80l-98 144h46l93 -106l89 106h46z" />
    <glyph glyph-name="Dcaron" unicode="&#x10e;" horiz-adv-x="728" 
d="M673 364q0 -73 -17.5 -136t-53.5 -111t-92 -77.5t-133 -36.5q-30 -3 -60.5 -3h-60.5h-151v723h195q37 0 68 -1t58.5 -5.5t53.5 -14t54 -27.5q37 -24 63.5 -57.5t43 -74t24.5 -86t8 -93.5zM605 365q0 37 -5 74t-17 71.5t-33 64.5t-53 53q-21 15 -46 23.5t-51 12t-52.5 4.5
t-51.5 1h-126v-615h147q79 0 133.5 20.5t89 60t50 97.5t15.5 133zM400 777h-80l-98 144h46l93 -106l89 106h46z" />
    <glyph glyph-name="dcaron" unicode="&#x10f;" horiz-adv-x="581" 
d="M438 0l-5 84q-32 -48 -69.5 -70t-95.5 -22q-57 0 -98.5 22.5t-68 59.5t-39.5 85t-13 99q0 49 13 95t39.5 82t67 57.5t94.5 21.5q60 0 100.5 -23t69.5 -76v308h61v-572q0 -38 0.5 -75.5t3.5 -75.5h-60zM433 251q0 39 -9 77.5t-28.5 69t-51 49.5t-76.5 19
q-44 0 -73.5 -19.5t-47.5 -50t-25.5 -68.5t-7.5 -75q0 -39 8.5 -77t28 -68t51 -48.5t77.5 -18.5q44 0 73.5 18.5t47.5 48.5t25.5 67.5t7.5 75.5zM652 723l-57 -189h-50l31 189h76z" />
    <glyph glyph-name="Dcroat" unicode="&#x110;" horiz-adv-x="728" 
d="M317 54q79 0 133.5 20.5t89 60t50 97.5t15.5 133q0 37 -5 74t-17 71.5t-33 64.5t-53 53q-21 15 -46 23.5t-51 12t-52.5 4.5t-51.5 1h-126v-243h206v-49h-206v-323h147zM105 377h-71v49h71v297h195q37 0 68 -1t58.5 -5.5t53.5 -14t54 -27.5q37 -24 63.5 -57.5t43 -74
t24.5 -86t8 -93.5q0 -73 -17.5 -136t-53.5 -111t-92 -77.5t-133 -36.5q-30 -3 -60.5 -3h-60.5h-151v377z" />
    <glyph glyph-name="dcroat" unicode="&#x111;" horiz-adv-x="581" 
d="M438 0l-5 84q-32 -48 -69.5 -70t-95.5 -22q-57 0 -98.5 22.5t-68 59.5t-39.5 85t-13 99q0 49 13 95t39.5 82t67 57.5t94.5 21.5q60 0 100.5 -23t69.5 -76v165h-244v45h244v98h61v-98h76v-45h-76v-429q0 -38 0.5 -75.5t3.5 -75.5h-60zM433 251q0 39 -9 77.5t-28.5 69
t-51 49.5t-76.5 19q-44 0 -73.5 -19.5t-47.5 -50t-25.5 -68.5t-7.5 -75q0 -39 8.5 -77t28 -68t51 -48.5t77.5 -18.5q44 0 73.5 18.5t47.5 48.5t25.5 67.5t7.5 75.5z" />
    <glyph glyph-name="Emacron" unicode="&#x112;" horiz-adv-x="602" 
d="M105 0v723h429v-54h-364v-266h350v-54h-350v-295h379v-54h-444zM198 818v51h245v-51h-245z" />
    <glyph glyph-name="emacron" unicode="&#x113;" horiz-adv-x="532" 
d="M111 243v-12q0 -38 10.5 -73.5t31.5 -63t52.5 -44t73.5 -16.5q60 0 96.5 34.5t46.5 91.5h58q-16 -85 -69.5 -128t-139.5 -43q-58 0 -100 20t-69 54.5t-40 81t-13 99.5q0 54 13.5 103t42 86t71.5 58.5t103 21.5t99.5 -23t63 -61t32.5 -86.5t9 -99.5h-372zM421 298
q0 33 -9.5 63.5t-27.5 54t-45.5 37t-63.5 13.5q-38 0 -67 -15t-49 -39.5t-31.5 -57t-14.5 -66.5h308v10zM151 643v51h245v-51h-245z" />
    <glyph glyph-name="Ebreve" unicode="&#x114;" horiz-adv-x="602" 
d="M105 0v723h429v-54h-364v-266h350v-54h-350v-295h379v-54h-444zM462 902q-6 -54 -44 -86t-100 -32q-59 0 -100 31.5t-43 86.5h38q3 -18 14 -31t26 -22t32 -13.5t33 -4.5q35 0 65 17t43 54h36z" />
    <glyph glyph-name="ebreve" unicode="&#x115;" horiz-adv-x="532" 
d="M111 243v-12q0 -38 10.5 -73.5t31.5 -63t52.5 -44t73.5 -16.5q60 0 96.5 34.5t46.5 91.5h58q-16 -85 -69.5 -128t-139.5 -43q-58 0 -100 20t-69 54.5t-40 81t-13 99.5q0 54 13.5 103t42 86t71.5 58.5t103 21.5t99.5 -23t63 -61t32.5 -86.5t9 -99.5h-372zM421 298
q0 33 -9.5 63.5t-27.5 54t-45.5 37t-63.5 13.5q-38 0 -67 -15t-49 -39.5t-31.5 -57t-14.5 -66.5h308v10zM415 710q-6 -54 -44 -86t-100 -32q-59 0 -100 31.5t-43 86.5h38q3 -18 14 -31t26 -22t32 -13.5t33 -4.5q35 0 65 17t43 54h36z" />
    <glyph glyph-name="Edotaccent" unicode="&#x116;" horiz-adv-x="602" 
d="M105 0v723h429v-54h-364v-266h350v-54h-350v-295h379v-54h-444zM284 816v76h73v-76h-73z" />
    <glyph glyph-name="edotaccent" unicode="&#x117;" horiz-adv-x="532" 
d="M111 243v-12q0 -38 10.5 -73.5t31.5 -63t52.5 -44t73.5 -16.5q60 0 96.5 34.5t46.5 91.5h58q-16 -85 -69.5 -128t-139.5 -43q-58 0 -100 20t-69 54.5t-40 81t-13 99.5q0 54 13.5 103t42 86t71.5 58.5t103 21.5t99.5 -23t63 -61t32.5 -86.5t9 -99.5h-372zM421 298
q0 33 -9.5 63.5t-27.5 54t-45.5 37t-63.5 13.5q-38 0 -67 -15t-49 -39.5t-31.5 -57t-14.5 -66.5h308v10zM237 647v76h73v-76h-73z" />
    <glyph glyph-name="Eogonek" unicode="&#x118;" horiz-adv-x="602" 
d="M549 0q-63 -21 -91 -44t-28 -52q0 -26 19.5 -37.5t42.5 -11.5q12 0 21 2.5t20 7.5l8 -26q-35 -18 -75 -18q-16 0 -32.5 3.5t-30 11.5t-22 21t-8.5 32t10 36t27 31t40 25t49 19h-394v723h429v-54h-364v-266h350v-54h-350v-295h379v-54v0z" />
    <glyph glyph-name="eogonek" unicode="&#x119;" horiz-adv-x="532" 
d="M111 243v-12q0 -38 10.5 -73.5t31.5 -63t52.5 -44t73.5 -16.5q60 0 96.5 34.5t46.5 91.5h58q-14 -76 -58.5 -118.5t-115.5 -50.5q-46 -20 -67.5 -40.5t-21.5 -46.5t19.5 -37.5t42.5 -11.5q12 0 21 2.5t20 7.5l8 -26q-35 -18 -75 -18q-16 0 -32.5 3.5t-30 11.5t-22 21
t-8.5 32q0 33 26.5 58.5t68.5 42.5q-54 3 -92.5 23.5t-64 54.5t-37.5 79.5t-12 96.5q0 54 13.5 103t42 86t71.5 58.5t103 21.5t99.5 -23t63 -61t32.5 -86.5t9 -99.5h-372zM421 298q0 33 -9.5 63.5t-27.5 54t-45.5 37t-63.5 13.5q-38 0 -67 -15t-49 -39.5t-31.5 -57
t-14.5 -66.5h308v10z" />
    <glyph glyph-name="Ecaron" unicode="&#x11a;" horiz-adv-x="602" 
d="M105 0v723h429v-54h-364v-266h350v-54h-350v-295h379v-54h-444zM359 777h-80l-98 144h46l93 -106l89 106h46z" />
    <glyph glyph-name="ecaron" unicode="&#x11b;" horiz-adv-x="532" 
d="M111 243v-12q0 -38 10.5 -73.5t31.5 -63t52.5 -44t73.5 -16.5q60 0 96.5 34.5t46.5 91.5h58q-16 -85 -69.5 -128t-139.5 -43q-58 0 -100 20t-69 54.5t-40 81t-13 99.5q0 54 13.5 103t42 86t71.5 58.5t103 21.5t99.5 -23t63 -61t32.5 -86.5t9 -99.5h-372zM421 298
q0 33 -9.5 63.5t-27.5 54t-45.5 37t-63.5 13.5q-38 0 -67 -15t-49 -39.5t-31.5 -57t-14.5 -66.5h308v10zM314 592h-80l-98 144h46l93 -106l89 106h46z" />
    <glyph glyph-name="Gcircumflex" unicode="&#x11c;" horiz-adv-x="715" 
d="M623 34q-59 -17 -116 -28.5t-119 -11.5q-83 0 -145.5 28.5t-104 78.5t-62.5 117.5t-21 146.5q0 74 19.5 141.5t59 118.5t99 81.5t140.5 30.5q46 0 88 -11.5t75 -35t53.5 -60t25.5 -86.5h-70q-12 71 -57.5 104.5t-115.5 33.5q-66 0 -112.5 -27t-76 -71t-43 -99.5
t-13.5 -113.5q0 -63 14.5 -121t46 -102.5t81.5 -71t120 -26.5q43 0 85.5 6t84.5 19v237h-182v54h246v-332zM461 775l-89 106l-91 -106h-46l101 146h73l98 -146h-46z" />
    <glyph glyph-name="gcircumflex" unicode="&#x11d;" horiz-adv-x="589" 
d="M505 505q-1 -26 -2 -46.5t-1.5 -39.5t-0.5 -37.5v-39.5v-179q0 -66 -2 -131t-21.5 -116.5t-65.5 -84t-133 -32.5q-37 0 -72.5 7t-63.5 23.5t-45.5 45t-17.5 71.5h62q0 -29 11 -48.5t29.5 -31.5t42 -17t49.5 -5q61 0 94.5 22t49 57.5t18.5 81t3 92.5q-30 -48 -71 -71
t-98 -23t-98.5 20t-69 54.5t-40.5 80.5t-13 99q0 50 13.5 96.5t40.5 82t68 57t96 21.5q119 0 174 -102q0 23 0.5 46.5t0.5 46.5h63zM441 262q0 36 -10 72.5t-30 66t-50.5 47.5t-71.5 18q-45 0 -76 -18.5t-50.5 -48.5t-28 -68t-8.5 -77t9 -76t28.5 -66t50 -46.5t74.5 -17.5
q45 0 76.5 18.5t50.5 49t27.5 69t8.5 77.5zM369 592l-89 106l-91 -106h-46l101 146h73l98 -146h-46z" />
    <glyph glyph-name="Gbreve" unicode="&#x11e;" horiz-adv-x="715" 
d="M623 34q-59 -17 -116 -28.5t-119 -11.5q-83 0 -145.5 28.5t-104 78.5t-62.5 117.5t-21 146.5q0 74 19.5 141.5t59 118.5t99 81.5t140.5 30.5q46 0 88 -11.5t75 -35t53.5 -60t25.5 -86.5h-70q-12 71 -57.5 104.5t-115.5 33.5q-66 0 -112.5 -27t-76 -71t-43 -99.5
t-13.5 -113.5q0 -63 14.5 -121t46 -102.5t81.5 -71t120 -26.5q43 0 85.5 6t84.5 19v237h-182v54h246v-332zM513 902q-6 -54 -44 -86t-100 -32q-59 0 -100 31.5t-43 86.5h38q3 -18 14 -31t26 -22t32 -13.5t33 -4.5q35 0 65 17t43 54h36z" />
    <glyph glyph-name="gbreve" unicode="&#x11f;" horiz-adv-x="589" 
d="M505 505q-1 -26 -2 -46.5t-1.5 -39.5t-0.5 -37.5v-39.5v-179q0 -66 -2 -131t-21.5 -116.5t-65.5 -84t-133 -32.5q-37 0 -72.5 7t-63.5 23.5t-45.5 45t-17.5 71.5h62q0 -29 11 -48.5t29.5 -31.5t42 -17t49.5 -5q61 0 94.5 22t49 57.5t18.5 81t3 92.5q-30 -48 -71 -71
t-98 -23t-98.5 20t-69 54.5t-40.5 80.5t-13 99q0 50 13.5 96.5t40.5 82t68 57t96 21.5q119 0 174 -102q0 23 0.5 46.5t0.5 46.5h63zM441 262q0 36 -10 72.5t-30 66t-50.5 47.5t-71.5 18q-45 0 -76 -18.5t-50.5 -48.5t-28 -68t-8.5 -77t9 -76t28.5 -66t50 -46.5t74.5 -17.5
q45 0 76.5 18.5t50.5 49t27.5 69t8.5 77.5zM421 710q-6 -54 -44 -86t-100 -32q-59 0 -100 31.5t-43 86.5h38q3 -18 14 -31t26 -22t32 -13.5t33 -4.5q35 0 65 17t43 54h36z" />
    <glyph glyph-name="Gdotaccent" unicode="&#x120;" horiz-adv-x="715" 
d="M623 34q-59 -17 -116 -28.5t-119 -11.5q-83 0 -145.5 28.5t-104 78.5t-62.5 117.5t-21 146.5q0 74 19.5 141.5t59 118.5t99 81.5t140.5 30.5q46 0 88 -11.5t75 -35t53.5 -60t25.5 -86.5h-70q-12 71 -57.5 104.5t-115.5 33.5q-66 0 -112.5 -27t-76 -71t-43 -99.5
t-13.5 -113.5q0 -63 14.5 -121t46 -102.5t81.5 -71t120 -26.5q43 0 85.5 6t84.5 19v237h-182v54h246v-332zM335 816v76h73v-76h-73z" />
    <glyph glyph-name="gdotaccent" unicode="&#x121;" horiz-adv-x="589" 
d="M505 505q-1 -26 -2 -46.5t-1.5 -39.5t-0.5 -37.5v-39.5v-179q0 -66 -2 -131t-21.5 -116.5t-65.5 -84t-133 -32.5q-37 0 -72.5 7t-63.5 23.5t-45.5 45t-17.5 71.5h62q0 -29 11 -48.5t29.5 -31.5t42 -17t49.5 -5q61 0 94.5 22t49 57.5t18.5 81t3 92.5q-30 -48 -71 -71
t-98 -23t-98.5 20t-69 54.5t-40.5 80.5t-13 99q0 50 13.5 96.5t40.5 82t68 57t96 21.5q119 0 174 -102q0 23 0.5 46.5t0.5 46.5h63zM441 262q0 36 -10 72.5t-30 66t-50.5 47.5t-71.5 18q-45 0 -76 -18.5t-50.5 -48.5t-28 -68t-8.5 -77t9 -76t28.5 -66t50 -46.5t74.5 -17.5
q45 0 76.5 18.5t50.5 49t27.5 69t8.5 77.5zM243 647v76h73v-76h-73z" />
    <glyph glyph-name="Gcommaaccent" unicode="&#x122;" horiz-adv-x="715" 
d="M623 34q-59 -17 -116 -28.5t-119 -11.5q-83 0 -145.5 28.5t-104 78.5t-62.5 117.5t-21 146.5q0 74 19.5 141.5t59 118.5t99 81.5t140.5 30.5q46 0 88 -11.5t75 -35t53.5 -60t25.5 -86.5h-70q-12 71 -57.5 104.5t-115.5 33.5q-66 0 -112.5 -27t-76 -71t-43 -99.5
t-13.5 -113.5q0 -63 14.5 -121t46 -102.5t81.5 -71t120 -26.5q43 0 85.5 6t84.5 19v237h-182v54h246v-332zM412 -51l-58 -149h-52l36 149h74z" />
    <glyph glyph-name="gcommaaccent" unicode="&#x123;" horiz-adv-x="589" 
d="M505 505q-1 -26 -2 -46.5t-1.5 -39.5t-0.5 -37.5v-39.5v-179q0 -66 -2 -131t-21.5 -116.5t-65.5 -84t-133 -32.5q-37 0 -72.5 7t-63.5 23.5t-45.5 45t-17.5 71.5h62q0 -29 11 -48.5t29.5 -31.5t42 -17t49.5 -5q61 0 94.5 22t49 57.5t18.5 81t3 92.5q-30 -48 -71 -71
t-98 -23t-98.5 20t-69 54.5t-40.5 80.5t-13 99q0 50 13.5 96.5t40.5 82t68 57t96 21.5q119 0 174 -102q0 23 0.5 46.5t0.5 46.5h63zM441 262q0 36 -10 72.5t-30 66t-50.5 47.5t-71.5 18q-45 0 -76 -18.5t-50.5 -48.5t-28 -68t-8.5 -77t9 -76t28.5 -66t50 -46.5t74.5 -17.5
q45 0 76.5 18.5t50.5 49t27.5 69t8.5 77.5zM225 592l57 144h52l-35 -144h-74z" />
    <glyph glyph-name="Hcircumflex" unicode="&#x124;" horiz-adv-x="742" 
d="M572 0v345h-402v-345h-65v723h65v-324h402v324h65v-723h-65zM465 775l-89 106l-91 -106h-46l101 146h73l98 -146h-46z" />
    <glyph glyph-name="hcircumflex" unicode="&#x125;" horiz-adv-x="574" 
d="M429 0v285q0 35 -3.5 66.5t-16.5 55.5t-38.5 38t-68.5 14t-72.5 -15.5t-47.5 -42t-26 -61t-8 -71.5v-269h-61v723h61v-302q30 45 70 67t94 22q52 0 86 -13.5t54.5 -39.5t29 -63t8.5 -85v-309h-61zM209 775l-89 106l-91 -106h-46l101 146h73l98 -146h-46z" />
    <glyph glyph-name="Hbar" unicode="&#x126;" horiz-adv-x="742" 
d="M572 475h-402v-76h402v76zM572 0v345h-402v-345h-65v723h65v-194h402v194h65v-723h-65z" />
    <glyph glyph-name="hbar" unicode="&#x127;" horiz-adv-x="574" 
d="M429 0v285q0 35 -3.5 66.5t-16.5 55.5t-38.5 38t-68.5 14t-72.5 -15.5t-47.5 -42t-26 -61t-8 -71.5v-269h-61v580h-76v45h76v98h61v-98h244v-45h-244v-159q30 45 70 67t94 22q52 0 86 -13.5t54.5 -39.5t29 -63t8.5 -85v-309h-61z" />
    <glyph glyph-name="Itilde" unicode="&#x128;" horiz-adv-x="275" 
d="M105 0v723h65v-723h-65zM276 897q-3 -16 -10.5 -31t-18 -27t-24.5 -19t-32 -7q-26 0 -51.5 10.5t-51.5 10.5q-35 0 -49 -29h-38q7 35 30 58t60 23q26 0 49 -10.5t49 -10.5q36 0 49 32h38z" />
    <glyph glyph-name="itilde" unicode="&#x129;" horiz-adv-x="235" 
d="M87 0v505h61v-505h-61zM256 712q-3 -16 -10.5 -31t-18 -27t-24.5 -19t-32 -7q-26 0 -51.5 10.5t-51.5 10.5q-35 0 -49 -29h-38q7 35 30 58t60 23q26 0 49 -10.5t49 -10.5q36 0 49 32h38z" />
    <glyph glyph-name="Imacron" unicode="&#x12a;" horiz-adv-x="275" 
d="M105 0v723h65v-723h-65zM16 818v51h245v-51h-245z" />
    <glyph glyph-name="imacron" unicode="&#x12b;" horiz-adv-x="235" 
d="M87 0v505h61v-505h-61zM-4 643v51h245v-51h-245z" />
    <glyph glyph-name="Ibreve" unicode="&#x12c;" horiz-adv-x="275" 
d="M105 0v723h65v-723h-65zM279 902q-6 -54 -44 -86t-100 -32q-59 0 -100 31.5t-43 86.5h38q3 -18 14 -31t26 -22t32 -13.5t33 -4.5q35 0 65 17t43 54h36z" />
    <glyph glyph-name="ibreve" unicode="&#x12d;" horiz-adv-x="235" 
d="M87 0v505h61v-505h-61zM259 710q-6 -54 -44 -86t-100 -32q-59 0 -100 31.5t-43 86.5h38q3 -18 14 -31t26 -22t32 -13.5t33 -4.5q35 0 65 17t43 54h36z" />
    <glyph glyph-name="Iogonek" unicode="&#x12e;" horiz-adv-x="275" 
d="M170 0q-59 -23 -86 -45t-27 -51q0 -26 19.5 -37.5t42.5 -11.5q12 0 21 2.5t20 7.5l8 -26q-35 -18 -75 -18q-16 0 -32.5 3.5t-30 11.5t-22 21t-8.5 32t10 36t27 31t40 25t49 19h-21v723h65v-723v0z" />
    <glyph glyph-name="iogonek" unicode="&#x12f;" horiz-adv-x="235" 
d="M148 0q-58 -23 -85 -45t-27 -51q0 -26 19.5 -37.5t42.5 -11.5q12 0 21 2.5t20 7.5l8 -26q-35 -18 -75 -18q-16 0 -32.5 3.5t-30 11.5t-22 21t-8.5 32t10 36t27 31t40 25t49 19h-18v505h61v-505zM81 647v76h73v-76h-73z" />
    <glyph glyph-name="Idotaccent" unicode="&#x130;" horiz-adv-x="275" 
d="M105 0v723h65v-723h-65zM102 816v76h73v-76h-73z" />
    <glyph glyph-name="dotlessi" unicode="&#x131;" horiz-adv-x="235" 
d="M87 0v505h61v-505h-61z" />
    <glyph glyph-name="Jcircumflex" unicode="&#x134;" horiz-adv-x="494" 
d="M405 210q0 -37 -5.5 -73.5t-27.5 -67.5q-30 -42 -76.5 -59.5t-96.5 -17.5q-38 0 -72 11t-60.5 32t-42 52t-15.5 72v8t1 8h66q0 -3 -0.5 -6t-0.5 -6q0 -27 10 -49t27 -37t40.5 -23t49.5 -8q39 0 65.5 13t42.5 36t23 53.5t7 65.5v509h65v-513zM461 775l-89 106l-91 -106
h-46l101 146h73l98 -146h-46z" />
    <glyph glyph-name="jcircumflex" unicode="&#x135;" horiz-adv-x="235" 
d="M148 -71q0 -34 -6 -56t-20.5 -34.5t-37.5 -17t-56 -4.5q-11 0 -21 0.5t-21 1.5v49q19 -3 39 -3q22 0 34.5 5.5t18.5 16t7.5 25t1.5 33.5v560h61v-576zM206 592l-89 106l-91 -106h-46l101 146h73l98 -146h-46z" />
    <glyph glyph-name="Kcommaaccent" unicode="&#x136;" horiz-adv-x="621" 
d="M528 0l-354 392l322 331h87l-331 -326l365 -397h-89zM105 0v723h65v-723h-65zM358 -51l-58 -149h-52l36 149h74z" />
    <glyph glyph-name="kcommaaccent" unicode="&#x137;" horiz-adv-x="513" 
d="M415 0l-261 286l239 219h82l-245 -218l265 -287h-80zM87 0v723h61v-723h-61zM301 -51l-58 -149h-52l36 149h74z" />
    <glyph glyph-name="kgreenlandic" unicode="&#x138;" horiz-adv-x="512" 
d="M414 0l-261 286l239 219h82l-245 -218l265 -287h-80zM86 0v505h61v-505h-61z" />
    <glyph glyph-name="Lacute" unicode="&#x139;" horiz-adv-x="557" 
d="M105 0v723h65v-669h363v-54h-428zM149 777h-44l90 144h80z" />
    <glyph glyph-name="lacute" unicode="&#x13a;" horiz-adv-x="235" 
d="M87 0v723h61v-723h-61zM105 761h-44l90 144h80z" />
    <glyph glyph-name="Lcommaaccent" unicode="&#x13b;" horiz-adv-x="557" 
d="M105 0v723h65v-669h363v-54h-428zM346 -51l-58 -149h-52l36 149h74z" />
    <glyph glyph-name="lcommaaccent" unicode="&#x13c;" horiz-adv-x="235" 
d="M87 0v723h61v-723h-61zM153 -51l-58 -149h-52l36 149h74z" />
    <glyph glyph-name="Lcaron" unicode="&#x13d;" horiz-adv-x="557" 
d="M105 0v723h65v-669h363v-54h-428zM370 723l-57 -189h-50l31 189h76z" />
    <glyph glyph-name="lcaron" unicode="&#x13e;" horiz-adv-x="235" 
d="M87 0v723h61v-723h-61zM305 723l-57 -189h-50l31 189h76z" />
    <glyph glyph-name="Ldot" unicode="&#x13f;" horiz-adv-x="557" 
d="M105 0v723h65v-669h363v-54h-428zM314 373v76h73v-76h-73z" />
    <glyph glyph-name="ldot" unicode="&#x140;" horiz-adv-x="235" 
d="M87 0v723h61v-723h-61zM198 334v76h73v-76h-73z" />
    <glyph glyph-name="Lslash" unicode="&#x141;" horiz-adv-x="569" 
d="M106 0v332l-77 -46v56l77 46v335h65v-300l196 119v-56l-196 -118v-314h363v-54h-428z" />
    <glyph glyph-name="lslash" unicode="&#x142;" horiz-adv-x="235" 
d="M149 376v-376h-61v337l-92 -58v55l92 59v330h61v-291l92 58v-55z" />
    <glyph glyph-name="Nacute" unicode="&#x143;" horiz-adv-x="751" 
d="M558 0l-392 644v-644h-61v723h88l392 -646v646h61v-723h-88zM363 777h-44l90 144h80z" />
    <glyph glyph-name="nacute" unicode="&#x144;" horiz-adv-x="574" 
d="M429 0v285q0 35 -3.5 66.5t-16.5 55.5t-38.5 38t-68.5 14t-72.5 -15.5t-47.5 -42t-26 -61t-8 -71.5v-269h-61v362q0 36 -1.5 71.5t-1.5 71.5h60l4 -84q31 46 70 67.5t95 21.5q51 0 85.5 -14t54.5 -40t28.5 -63t8.5 -84v-309h-61zM286 592h-44l90 144h80z" />
    <glyph glyph-name="Ncommaaccent" unicode="&#x145;" horiz-adv-x="751" 
d="M558 0l-392 644v-644h-61v723h88l392 -646v646h61v-723h-88zM410 -51l-58 -149h-52l36 149h74z" />
    <glyph glyph-name="ncommaaccent" unicode="&#x146;" horiz-adv-x="574" 
d="M429 0v285q0 35 -3.5 66.5t-16.5 55.5t-38.5 38t-68.5 14t-72.5 -15.5t-47.5 -42t-26 -61t-8 -71.5v-269h-61v362q0 36 -1.5 71.5t-1.5 71.5h60l4 -84q31 46 70 67.5t95 21.5q51 0 85.5 -14t54.5 -40t28.5 -63t8.5 -84v-309h-61zM332 -51l-58 -149h-52l36 149h74z" />
    <glyph glyph-name="Ncaron" unicode="&#x147;" horiz-adv-x="751" 
d="M558 0l-392 644v-644h-61v723h88l392 -646v646h61v-723h-88zM413 777h-80l-98 144h46l93 -106l89 106h46z" />
    <glyph glyph-name="ncaron" unicode="&#x148;" horiz-adv-x="574" 
d="M429 0v285q0 35 -3.5 66.5t-16.5 55.5t-38.5 38t-68.5 14t-72.5 -15.5t-47.5 -42t-26 -61t-8 -71.5v-269h-61v362q0 36 -1.5 71.5t-1.5 71.5h60l4 -84q31 46 70 67.5t95 21.5q51 0 85.5 -14t54.5 -40t28.5 -63t8.5 -84v-309h-61zM338 592h-80l-98 144h46l93 -106l89 106
h46z" />
    <glyph glyph-name="Eng" unicode="&#x14a;" horiz-adv-x="743" 
d="M581 -1l-419 647v-646h-61v723h87l393 -611v611h61v-688q0 -62 -6 -103.5t-22 -67t-43.5 -36.5t-70.5 -11q-11 0 -25 1t-24 3v54q10 -2 19.5 -3.5t20.5 -1.5q48 0 69 21t21 74v34z" />
    <glyph glyph-name="eng" unicode="&#x14b;" horiz-adv-x="575" 
d="M489 -52q0 -39 -7.5 -64.5t-23.5 -40t-41 -20.5t-59 -6q-9 0 -20.5 1t-19.5 3v48q9 -2 18.5 -3t17.5 -1q42 0 58 18.5t16 69.5v332q0 35 -3.5 66.5t-16.5 55.5t-38.5 38t-68.5 14t-72.5 -15.5t-47.5 -42t-26 -61t-8 -71.5v-269h-61v362q0 36 -1.5 71.5t-1.5 71.5h60
l4 -84q31 46 70 67.5t95 21.5q51 0 85.5 -14t54.5 -40t28.5 -63t8.5 -84v-361z" />
    <glyph glyph-name="Omacron" unicode="&#x14c;" horiz-adv-x="745" 
d="M690 369q0 -77 -18 -145.5t-56 -121t-98.5 -83t-145.5 -30.5q-84 0 -144 29.5t-98.5 80.5t-56.5 119t-18 145q0 75 19 142.5t58 118.5t98.5 81.5t141.5 30.5q85 0 145.5 -28t98.5 -77t56 -116.5t18 -145.5zM618 363q0 61 -12 118.5t-40.5 101.5t-76 71t-117.5 27
q-68 0 -114.5 -28t-75.5 -73t-42 -102t-13 -115q0 -59 13 -116.5t42 -102.5t75.5 -73t114.5 -28t115 28t76 73t42 102.5t13 116.5zM249 818v51h245v-51h-245z" />
    <glyph glyph-name="omacron" unicode="&#x14d;" horiz-adv-x="571" 
d="M522 256q0 -53 -15.5 -101.5t-45.5 -85.5t-74 -58.5t-101 -21.5q-59 0 -103.5 21t-74 57t-44.5 84.5t-15 104.5q0 55 15.5 102t45.5 82t74 55t102 20t102.5 -19.5t74 -54.5t44.5 -82.5t15 -102.5zM457 256q0 40 -9.5 78t-30.5 67t-53.5 46.5t-77.5 17.5t-77.5 -17.5
t-53.5 -46.5t-31 -66.5t-10 -78.5q0 -40 9.5 -79.5t30.5 -70.5t53.5 -50.5t78.5 -19.5q45 0 77.5 19.5t53 51t30.5 71t10 78.5zM164 643v51h245v-51h-245z" />
    <glyph glyph-name="Obreve" unicode="&#x14e;" horiz-adv-x="745" 
d="M690 369q0 -77 -18 -145.5t-56 -121t-98.5 -83t-145.5 -30.5q-84 0 -144 29.5t-98.5 80.5t-56.5 119t-18 145q0 75 19 142.5t58 118.5t98.5 81.5t141.5 30.5q85 0 145.5 -28t98.5 -77t56 -116.5t18 -145.5zM618 363q0 61 -12 118.5t-40.5 101.5t-76 71t-117.5 27
q-68 0 -114.5 -28t-75.5 -73t-42 -102t-13 -115q0 -59 13 -116.5t42 -102.5t75.5 -73t114.5 -28t115 28t76 73t42 102.5t13 116.5zM513 902q-6 -54 -44 -86t-100 -32q-59 0 -100 31.5t-43 86.5h38q3 -18 14 -31t26 -22t32 -13.5t33 -4.5q35 0 65 17t43 54h36z" />
    <glyph glyph-name="obreve" unicode="&#x14f;" horiz-adv-x="571" 
d="M522 256q0 -53 -15.5 -101.5t-45.5 -85.5t-74 -58.5t-101 -21.5q-59 0 -103.5 21t-74 57t-44.5 84.5t-15 104.5q0 55 15.5 102t45.5 82t74 55t102 20t102.5 -19.5t74 -54.5t44.5 -82.5t15 -102.5zM457 256q0 40 -9.5 78t-30.5 67t-53.5 46.5t-77.5 17.5t-77.5 -17.5
t-53.5 -46.5t-31 -66.5t-10 -78.5q0 -40 9.5 -79.5t30.5 -70.5t53.5 -50.5t78.5 -19.5q45 0 77.5 19.5t53 51t30.5 71t10 78.5zM428 710q-6 -54 -44 -86t-100 -32q-59 0 -100 31.5t-43 86.5h38q3 -18 14 -31t26 -22t32 -13.5t33 -4.5q35 0 65 17t43 54h36z" />
    <glyph glyph-name="Ohungarumlaut" unicode="&#x150;" horiz-adv-x="745" 
d="M690 369q0 -77 -18 -145.5t-56 -121t-98.5 -83t-145.5 -30.5q-84 0 -144 29.5t-98.5 80.5t-56.5 119t-18 145q0 75 19 142.5t58 118.5t98.5 81.5t141.5 30.5q85 0 145.5 -28t98.5 -77t56 -116.5t18 -145.5zM618 363q0 61 -12 118.5t-40.5 101.5t-76 71t-117.5 27
q-68 0 -114.5 -28t-75.5 -73t-42 -102t-13 -115q0 -59 13 -116.5t42 -102.5t75.5 -73t114.5 -28t115 28t76 73t42 102.5t13 116.5zM453 779h-47l95 142h81zM305 779h-47l95 142h81z" />
    <glyph glyph-name="ohungarumlaut" unicode="&#x151;" horiz-adv-x="571" 
d="M522 256q0 -53 -15.5 -101.5t-45.5 -85.5t-74 -58.5t-101 -21.5q-59 0 -103.5 21t-74 57t-44.5 84.5t-15 104.5q0 55 15.5 102t45.5 82t74 55t102 20t102.5 -19.5t74 -54.5t44.5 -82.5t15 -102.5zM457 256q0 40 -9.5 78t-30.5 67t-53.5 46.5t-77.5 17.5t-77.5 -17.5
t-53.5 -46.5t-31 -66.5t-10 -78.5q0 -40 9.5 -79.5t30.5 -70.5t53.5 -50.5t78.5 -19.5q45 0 77.5 19.5t53 51t30.5 71t10 78.5zM378 594h-47l95 142h81zM230 594h-47l95 142h81z" />
    <glyph glyph-name="OE" unicode="&#x152;" horiz-adv-x="982" 
d="M640 0q-54 0 -106 -4t-106 -4q-183 0 -278 90t-95 276q0 88 23 157.5t68.5 117.5t113.5 73t157 25q50 0 99.5 -4t99.5 -4h299v-58h-332v-262h317v-58h-317v-287h346v-58h-289zM518 663q-24 4 -47.5 6.5t-47.5 2.5q-150 0 -224.5 -82.5t-74.5 -229.5t73 -229t224 -82
q47 0 97 11v603z" />
    <glyph glyph-name="oe" unicode="&#x153;" horiz-adv-x="892" 
d="M493 242v-13.5t1 -13.5q2 -33 10 -64t24.5 -55.5t43 -39.5t65.5 -15q46 0 80 25t47 67q4 13 5 23h67q-1 -7 -2.5 -13.5t-3.5 -13.5q-18 -67 -68.5 -103t-122.5 -36q-54 0 -101.5 24.5t-70.5 74.5q-2 5 -4 10.5t-4 10.5q-4 -11 -11 -23q-27 -50 -71.5 -72.5t-104.5 -22.5
q-58 0 -100 21t-69.5 57t-40.5 83.5t-13 100.5q0 51 13.5 98t41 83.5t69.5 58.5t99 22q61 0 102 -23t70 -71q4 -7 7.5 -14l7.5 -15q22 60 69 89.5t110 29.5q58 0 97 -19t62.5 -52t34 -77t11.5 -94v-28h-350zM779 292v11t-1 11q-2 31 -11.5 58t-27 46.5t-43.5 31t-61 11.5
q-33 0 -57.5 -11.5t-41.5 -31.5t-27 -46t-13 -55q-1 -6 -1.5 -12.5t-0.5 -12.5h285zM428 247q0 38 -7 76t-25 68.5t-48 49.5t-75 19t-75 -19t-48 -49.5t-25.5 -69t-7.5 -76.5t8 -74.5t27 -65t49 -45.5t74 -17q43 0 72.5 18t47.5 47t25.5 65t7.5 73z" />
    <glyph glyph-name="Racute" unicode="&#x154;" horiz-adv-x="659" 
d="M518 0q-18 39 -21.5 85t-7.5 89q-4 45 -9 78t-19.5 54.5t-42.5 32t-77 10.5h-171v-349h-65v723h243q42 0 83 -8.5t73.5 -29t52 -54t19.5 -82.5q0 -71 -37 -111.5t-102 -60.5q29 -5 54 -19.5t38 -43.5t19 -75.5t10.5 -93.5t11.5 -87.5t23 -57.5h-75zM507 542
q0 40 -14.5 65t-38.5 39t-55.5 18.5t-65.5 4.5h-163v-266h158q36 0 68.5 6t57 21.5t39 42.5t14.5 69zM321 777h-44l90 144h80z" />
    <glyph glyph-name="racute" unicode="&#x155;" horiz-adv-x="345" 
d="M331 445q-19 4 -41 4q-41 0 -68 -11.5t-43.5 -32.5t-23.5 -51.5t-7 -67.5v-286h-61v357q0 37 -1 74l-2 74h60l4 -79q28 44 66 63t89 19q7 0 14 -0.5t14 -1.5v-61zM186 592h-44l90 144h80z" />
    <glyph glyph-name="Rcommaaccent" unicode="&#x156;" horiz-adv-x="659" 
d="M518 0q-18 39 -21.5 85t-7.5 89q-4 45 -9 78t-19.5 54.5t-42.5 32t-77 10.5h-171v-349h-65v723h243q42 0 83 -8.5t73.5 -29t52 -54t19.5 -82.5q0 -71 -37 -111.5t-102 -60.5q29 -5 54 -19.5t38 -43.5t19 -75.5t10.5 -93.5t11.5 -87.5t23 -57.5h-75zM507 542
q0 40 -14.5 65t-38.5 39t-55.5 18.5t-65.5 4.5h-163v-266h158q36 0 68.5 6t57 21.5t39 42.5t14.5 69zM367 -51l-58 -149h-52l36 149h74z" />
    <glyph glyph-name="rcommaaccent" unicode="&#x157;" horiz-adv-x="345" 
d="M331 445q-19 4 -41 4q-41 0 -68 -11.5t-43.5 -32.5t-23.5 -51.5t-7 -67.5v-286h-61v357q0 37 -1 74l-2 74h60l4 -79q28 44 66 63t89 19q7 0 14 -0.5t14 -1.5v-61zM153 -51l-58 -149h-52l36 149h74z" />
    <glyph glyph-name="Rcaron" unicode="&#x158;" horiz-adv-x="659" 
d="M518 0q-18 39 -21.5 85t-7.5 89q-4 45 -9 78t-19.5 54.5t-42.5 32t-77 10.5h-171v-349h-65v723h243q42 0 83 -8.5t73.5 -29t52 -54t19.5 -82.5q0 -71 -37 -111.5t-102 -60.5q29 -5 54 -19.5t38 -43.5t19 -75.5t10.5 -93.5t11.5 -87.5t23 -57.5h-75zM507 542
q0 40 -14.5 65t-38.5 39t-55.5 18.5t-65.5 4.5h-163v-266h158q36 0 68.5 6t57 21.5t39 42.5t14.5 69zM371 777h-80l-98 144h46l93 -106l89 106h46z" />
    <glyph glyph-name="rcaron" unicode="&#x159;" horiz-adv-x="345" 
d="M331 445q-19 4 -41 4q-41 0 -68 -11.5t-43.5 -32.5t-23.5 -51.5t-7 -67.5v-286h-61v357q0 37 -1 74l-2 74h60l4 -79q28 44 66 63t89 19q7 0 14 -0.5t14 -1.5v-61zM238 592h-80l-98 144h46l93 -106l89 106h46z" />
    <glyph glyph-name="Sacute" unicode="&#x15a;" horiz-adv-x="617" 
d="M558 197q0 -54 -22 -93t-58 -64t-82.5 -37t-94.5 -12q-50 0 -92 11t-73.5 35t-51.5 61.5t-25 89.5h68q1 -39 16 -66t39 -44t55.5 -24.5t66.5 -7.5q33 0 66.5 7.5t60.5 24t44 43.5t17 65q0 29 -11.5 51t-32 39t-49 30t-63.5 24l-53 17q-44 14 -81 30t-64 38t-42.5 52.5
t-15.5 72.5q0 51 20.5 87t54 59.5t76.5 34.5t88 11q41 0 81.5 -8.5t72 -28t51.5 -52t21 -80.5h-67q-3 33 -16.5 55t-34.5 35.5t-48 19t-57 5.5q-31 0 -62.5 -7.5t-56.5 -23t-41 -41t-16 -61.5q0 -53 40.5 -84.5t124.5 -58.5l60 -19q44 -14 78 -29.5t58 -36.5t37 -50t14 -70z
M304 777h-44l90 144h80z" />
    <glyph glyph-name="sacute" unicode="&#x15b;" horiz-adv-x="480" 
d="M426 144q0 -41 -16.5 -70t-43 -47.5t-61 -27.5t-70.5 -9q-39 0 -72.5 9t-57.5 28.5t-38 49t-14 71.5h60q0 -57 34.5 -84.5t90.5 -27.5q22 0 45 6t41.5 18t30.5 30.5t12 44.5q0 40 -31 60t-81 34l-53 15q-29 8 -54 19t-43.5 26.5t-29 36.5t-10.5 51q0 37 15.5 63.5
t40 43.5t56 25t64.5 8q37 0 68 -8.5t54.5 -26.5t37 -46t14.5 -67h-61q-3 52 -31.5 75.5t-79.5 23.5q-19 0 -39.5 -4.5t-38 -15t-28.5 -26.5t-11 -39q0 -37 28.5 -56.5t75.5 -32.5l57 -16q72 -20 105.5 -50.5t33.5 -83.5zM231 592h-44l90 144h80z" />
    <glyph glyph-name="Scircumflex" unicode="&#x15c;" horiz-adv-x="617" 
d="M558 197q0 -54 -22 -93t-58 -64t-82.5 -37t-94.5 -12q-50 0 -92 11t-73.5 35t-51.5 61.5t-25 89.5h68q1 -39 16 -66t39 -44t55.5 -24.5t66.5 -7.5q33 0 66.5 7.5t60.5 24t44 43.5t17 65q0 29 -11.5 51t-32 39t-49 30t-63.5 24l-53 17q-44 14 -81 30t-64 38t-42.5 52.5
t-15.5 72.5q0 51 20.5 87t54 59.5t76.5 34.5t88 11q41 0 81.5 -8.5t72 -28t51.5 -52t21 -80.5h-67q-3 33 -16.5 55t-34.5 35.5t-48 19t-57 5.5q-31 0 -62.5 -7.5t-56.5 -23t-41 -41t-16 -61.5q0 -53 40.5 -84.5t124.5 -58.5l60 -19q44 -14 78 -29.5t58 -36.5t37 -50t14 -70z
M405 775l-89 106l-91 -106h-46l101 146h73l98 -146h-46z" />
    <glyph glyph-name="scircumflex" unicode="&#x15d;" horiz-adv-x="480" 
d="M426 144q0 -41 -16.5 -70t-43 -47.5t-61 -27.5t-70.5 -9q-39 0 -72.5 9t-57.5 28.5t-38 49t-14 71.5h60q0 -57 34.5 -84.5t90.5 -27.5q22 0 45 6t41.5 18t30.5 30.5t12 44.5q0 40 -31 60t-81 34l-53 15q-29 8 -54 19t-43.5 26.5t-29 36.5t-10.5 51q0 37 15.5 63.5
t40 43.5t56 25t64.5 8q37 0 68 -8.5t54.5 -26.5t37 -46t14.5 -67h-61q-3 52 -31.5 75.5t-79.5 23.5q-19 0 -39.5 -4.5t-38 -15t-28.5 -26.5t-11 -39q0 -37 28.5 -56.5t75.5 -32.5l57 -16q72 -20 105.5 -50.5t33.5 -83.5zM332 592l-89 106l-91 -106h-46l101 146h73l98 -146
h-46z" />
    <glyph glyph-name="Scedilla" unicode="&#x15e;" horiz-adv-x="617" 
d="M558 197q0 -51 -19.5 -89t-52.5 -63t-75.5 -38t-87.5 -15l-11 -43q17 0 35 -1.5t32.5 -8t24 -19.5t9.5 -35q0 -21 -9.5 -34.5t-24 -21.5t-32 -11t-34.5 -3q-28 0 -54 6t-52 17l7 28q22 -10 45.5 -17.5t47.5 -7.5q20 0 35 8t15 31t-14.5 31.5t-35.5 8.5q-16 0 -31 -3
l23 74q-49 0 -91 11.5t-73.5 35.5t-51 61t-24.5 89h68q1 -39 16 -66t39 -44t55.5 -24.5t66.5 -7.5q33 0 66.5 7.5t60.5 24t44 43.5t17 65q0 29 -11.5 51t-32 39t-49 30t-63.5 24l-53 17q-44 14 -81 30t-64 38t-42.5 52.5t-15.5 72.5q0 51 20.5 87t54 59.5t76.5 34.5t88 11
q41 0 81.5 -8.5t72 -28t51.5 -52t21 -80.5h-67q-3 33 -16.5 55t-34.5 35.5t-48 19t-57 5.5q-31 0 -62.5 -7.5t-56.5 -23t-41 -41t-16 -61.5q0 -53 40.5 -84.5t124.5 -58.5l60 -19q44 -14 78 -29.5t58 -36.5t37 -50t14 -70z" />
    <glyph glyph-name="scedilla" unicode="&#x15f;" horiz-adv-x="480" 
d="M342 -115q0 -21 -9.5 -34.5t-24 -21.5t-32 -11t-34.5 -3q-28 0 -54 6t-52 17l7 28q22 -10 45.5 -17.5t47.5 -7.5q20 0 35 8t15 31t-14.5 31.5t-35.5 8.5q-16 0 -31 -3l23 73q-38 1 -70 10.5t-55.5 28.5t-36.5 48.5t-13 70.5h60q0 -57 34.5 -84.5t90.5 -27.5q22 0 45 6
t41.5 18t30.5 30.5t12 44.5q0 40 -31 60t-81 34l-53 15q-29 8 -54 19t-43.5 26.5t-29 36.5t-10.5 51q0 37 15.5 63.5t40 43.5t56 25t64.5 8q37 0 68 -8.5t54.5 -26.5t37 -46t14.5 -67h-61q-3 52 -31.5 75.5t-79.5 23.5q-19 0 -39.5 -4.5t-38 -15t-28.5 -26.5t-11 -39
q0 -37 28.5 -56.5t75.5 -32.5l57 -16q72 -20 105.5 -50.5t33.5 -83.5q0 -38 -14.5 -66t-38.5 -47t-55.5 -28.5t-65.5 -11.5l-11 -42q17 0 35 -1.5t32.5 -8t24 -19.5t9.5 -35z" />
    <glyph glyph-name="Scaron" unicode="&#x160;" horiz-adv-x="617" 
d="M558 197q0 -54 -22 -93t-58 -64t-82.5 -37t-94.5 -12q-50 0 -92 11t-73.5 35t-51.5 61.5t-25 89.5h68q1 -39 16 -66t39 -44t55.5 -24.5t66.5 -7.5q33 0 66.5 7.5t60.5 24t44 43.5t17 65q0 29 -11.5 51t-32 39t-49 30t-63.5 24l-53 17q-44 14 -81 30t-64 38t-42.5 52.5
t-15.5 72.5q0 51 20.5 87t54 59.5t76.5 34.5t88 11q41 0 81.5 -8.5t72 -28t51.5 -52t21 -80.5h-67q-3 33 -16.5 55t-34.5 35.5t-48 19t-57 5.5q-31 0 -62.5 -7.5t-56.5 -23t-41 -41t-16 -61.5q0 -53 40.5 -84.5t124.5 -58.5l60 -19q44 -14 78 -29.5t58 -36.5t37 -50t14 -70z
M354 777h-80l-98 144h46l93 -106l89 106h46z" />
    <glyph glyph-name="scaron" unicode="&#x161;" horiz-adv-x="480" 
d="M426 144q0 -41 -16.5 -70t-43 -47.5t-61 -27.5t-70.5 -9q-39 0 -72.5 9t-57.5 28.5t-38 49t-14 71.5h60q0 -57 34.5 -84.5t90.5 -27.5q22 0 45 6t41.5 18t30.5 30.5t12 44.5q0 40 -31 60t-81 34l-53 15q-29 8 -54 19t-43.5 26.5t-29 36.5t-10.5 51q0 37 15.5 63.5
t40 43.5t56 25t64.5 8q37 0 68 -8.5t54.5 -26.5t37 -46t14.5 -67h-61q-3 52 -31.5 75.5t-79.5 23.5q-19 0 -39.5 -4.5t-38 -15t-28.5 -26.5t-11 -39q0 -37 28.5 -56.5t75.5 -32.5l57 -16q72 -20 105.5 -50.5t33.5 -83.5zM283 592h-80l-98 144h46l93 -106l89 106h46z" />
    <glyph glyph-name="Tcommaaccent" unicode="&#x162;" horiz-adv-x="546" 
d="M305 669v-669h-65v669h-231v54h528v-54h-232zM308 -51l-58 -149h-52l36 149h74z" />
    <glyph glyph-name="tcommaaccent" unicode="&#x163;" horiz-adv-x="325" 
d="M296 1q-18 -2 -35.5 -3.5t-35.5 -1.5q-107 0 -107 108v356h-100v45h100v104l61 27v-131h113v-45h-113v-329q0 -21 2 -37t9.5 -26.5t21.5 -15.5t38 -5q9 0 21.5 2t24.5 4v-52zM186 -51l-58 -149h-52l36 149h74z" />
    <glyph glyph-name="Tcaron" unicode="&#x164;" horiz-adv-x="546" 
d="M305 669v-669h-65v669h-231v54h528v-54h-232zM312 777h-80l-98 144h46l93 -106l89 106h46z" />
    <glyph glyph-name="tcaron" unicode="&#x165;" horiz-adv-x="325" 
d="M296 1q-18 -2 -35.5 -3.5t-35.5 -1.5q-107 0 -107 108v356h-100v45h100v104l61 27v-131h113v-45h-113v-329q0 -21 2 -37t9.5 -26.5t21.5 -15.5t38 -5q9 0 21.5 2t24.5 4v-52zM362 723l-57 -189h-50l31 189h76z" />
    <glyph glyph-name="Tbar" unicode="&#x166;" horiz-adv-x="546" 
d="M517 349h-212v-349h-65v349h-212v54h212v266h-231v54h528v-54h-232v-266h212v-54z" />
    <glyph glyph-name="tbar" unicode="&#x167;" horiz-adv-x="325" 
d="M296 1q-18 -2 -35.5 -3.5t-35.5 -1.5q-107 0 -107 108v216h-100v45h100v95h-100v45h100v104l61 27v-131h113v-45h-113v-95h113v-45h-113v-189q0 -21 2 -37t9.5 -26.5t21.5 -15.5t38 -5q12 0 23.5 2.5t22.5 3.5v-52v0z" />
    <glyph glyph-name="Utilde" unicode="&#x168;" horiz-adv-x="744" 
d="M649 266q0 -65 -19 -116t-54.5 -87t-87 -55t-116.5 -19q-134 0 -205.5 71.5t-71.5 205.5v457h68v-434q0 -42 4.5 -84t28.5 -78q29 -44 77.5 -63.5t98.5 -19.5q60 0 112 26t78 83q14 31 16.5 67t2.5 69v434h68v-457zM511 897q-3 -16 -10.5 -31t-18 -27t-24.5 -19t-32 -7
q-26 0 -51.5 10.5t-51.5 10.5q-35 0 -49 -29h-38q7 35 30 58t60 23q26 0 49 -10.5t49 -10.5q36 0 49 32h38z" />
    <glyph glyph-name="utilde" unicode="&#x169;" horiz-adv-x="574" 
d="M430 0l-2 81q-32 -45 -70 -65.5t-94 -20.5q-51 0 -85.5 13.5t-55.5 39.5t-30 63t-9 85v309h61v-285q0 -35 5 -66.5t19.5 -55.5t39.5 -38t65 -14q43 0 72 16.5t47 43.5t25.5 62t7.5 73v264h61v-354q0 -76 3 -151h-60zM423 712q-3 -16 -10.5 -31t-18 -27t-24.5 -19t-32 -7
q-26 0 -51.5 10.5t-51.5 10.5q-35 0 -49 -29h-38q7 35 30 58t60 23q26 0 49 -10.5t49 -10.5q36 0 49 32h38z" />
    <glyph glyph-name="Umacron" unicode="&#x16a;" horiz-adv-x="744" 
d="M649 266q0 -65 -19 -116t-54.5 -87t-87 -55t-116.5 -19q-134 0 -205.5 71.5t-71.5 205.5v457h68v-434q0 -42 4.5 -84t28.5 -78q29 -44 77.5 -63.5t98.5 -19.5q60 0 112 26t78 83q14 31 16.5 67t2.5 69v434h68v-457zM251 818v51h245v-51h-245z" />
    <glyph glyph-name="umacron" unicode="&#x16b;" horiz-adv-x="574" 
d="M430 0l-2 81q-32 -45 -70 -65.5t-94 -20.5q-51 0 -85.5 13.5t-55.5 39.5t-30 63t-9 85v309h61v-285q0 -35 5 -66.5t19.5 -55.5t39.5 -38t65 -14q43 0 72 16.5t47 43.5t25.5 62t7.5 73v264h61v-354q0 -76 3 -151h-60zM163 643v51h245v-51h-245z" />
    <glyph glyph-name="Ubreve" unicode="&#x16c;" horiz-adv-x="744" 
d="M649 266q0 -65 -19 -116t-54.5 -87t-87 -55t-116.5 -19q-134 0 -205.5 71.5t-71.5 205.5v457h68v-434q0 -42 4.5 -84t28.5 -78q29 -44 77.5 -63.5t98.5 -19.5q60 0 112 26t78 83q14 31 16.5 67t2.5 69v434h68v-457zM515 902q-6 -54 -44 -86t-100 -32q-59 0 -100 31.5
t-43 86.5h38q3 -18 14 -31t26 -22t32 -13.5t33 -4.5q35 0 65 17t43 54h36z" />
    <glyph glyph-name="ubreve" unicode="&#x16d;" horiz-adv-x="574" 
d="M430 0l-2 81q-32 -45 -70 -65.5t-94 -20.5q-51 0 -85.5 13.5t-55.5 39.5t-30 63t-9 85v309h61v-285q0 -35 5 -66.5t19.5 -55.5t39.5 -38t65 -14q43 0 72 16.5t47 43.5t25.5 62t7.5 73v264h61v-354q0 -76 3 -151h-60zM427 710q-6 -54 -44 -86t-100 -32q-59 0 -100 31.5
t-43 86.5h38q3 -18 14 -31t26 -22t32 -13.5t33 -4.5q35 0 65 17t43 54h36z" />
    <glyph glyph-name="Uring" unicode="&#x16e;" horiz-adv-x="744" 
d="M649 266q0 -65 -19 -116t-54.5 -87t-87 -55t-116.5 -19q-134 0 -205.5 71.5t-71.5 205.5v457h68v-434q0 -42 4.5 -84t28.5 -78q29 -44 77.5 -63.5t98.5 -19.5q60 0 112 26t78 83q14 31 16.5 67t2.5 69v434h68v-457zM464 847q0 -38 -26.5 -64t-64.5 -26t-64.5 26t-26.5 64
t26.5 64t64.5 26t64.5 -26t26.5 -64zM430 847q0 26 -16 43t-41 17t-41 -17t-16 -43t16 -43t41 -17t41 17t16 43z" />
    <glyph glyph-name="uring" unicode="&#x16f;" horiz-adv-x="574" 
d="M430 0l-2 81q-32 -45 -70 -65.5t-94 -20.5q-51 0 -85.5 13.5t-55.5 39.5t-30 63t-9 85v309h61v-285q0 -35 5 -66.5t19.5 -55.5t39.5 -38t65 -14q43 0 72 16.5t47 43.5t25.5 62t7.5 73v264h61v-354q0 -76 3 -151h-60zM376 666q0 -38 -26.5 -64t-64.5 -26t-64.5 26
t-26.5 64t26.5 64t64.5 26t64.5 -26t26.5 -64zM342 666q0 26 -16 43t-41 17t-41 -17t-16 -43t16 -43t41 -17t41 17t16 43z" />
    <glyph glyph-name="Uhungarumlaut" unicode="&#x170;" horiz-adv-x="744" 
d="M649 266q0 -65 -19 -116t-54.5 -87t-87 -55t-116.5 -19q-134 0 -205.5 71.5t-71.5 205.5v457h68v-434q0 -42 4.5 -84t28.5 -78q29 -44 77.5 -63.5t98.5 -19.5q60 0 112 26t78 83q14 31 16.5 67t2.5 69v434h68v-457zM465 779h-47l95 142h81zM317 779h-47l95 142h81z" />
    <glyph glyph-name="uhungarumlaut" unicode="&#x171;" horiz-adv-x="574" 
d="M430 0l-2 81q-32 -45 -70 -65.5t-94 -20.5q-51 0 -85.5 13.5t-55.5 39.5t-30 63t-9 85v309h61v-285q0 -35 5 -66.5t19.5 -55.5t39.5 -38t65 -14q43 0 72 16.5t47 43.5t25.5 62t7.5 73v264h61v-354q0 -76 3 -151h-60zM377 594h-47l95 142h81zM229 594h-47l95 142h81z" />
    <glyph glyph-name="Uogonek" unicode="&#x172;" horiz-adv-x="744" 
d="M649 266q0 -118 -61.5 -190t-171.5 -84q-48 -21 -69.5 -41.5t-21.5 -46.5t19.5 -37.5t42.5 -11.5q12 0 21 2.5t20 7.5l8 -26q-35 -18 -75 -18q-16 0 -32.5 3.5t-30 11.5t-22 21t-8.5 32q0 33 26.5 58t67.5 42q-130 3 -198.5 74.5t-68.5 202.5v457h68v-434q0 -42 4.5 -84
t28.5 -78q29 -44 77.5 -63.5t98.5 -19.5q60 0 112 26t78 83q14 31 16.5 67t2.5 69v434h68v-457v0z" />
    <glyph glyph-name="uogonek" unicode="&#x173;" horiz-adv-x="574" 
d="M490 0q-59 -23 -86 -45t-27 -51q0 -26 19.5 -37.5t42.5 -11.5q12 0 21 2.5t20 7.5l8 -26q-35 -18 -75 -18q-16 0 -32.5 3.5t-30 11.5t-22 21t-8.5 32t10 36t27 31t40 25t49 19h-16l-2 81q-32 -45 -70 -65.5t-94 -20.5q-51 0 -85.5 13.5t-55.5 39.5t-30 63t-9 85v309h61
v-285q0 -35 5 -66.5t19.5 -55.5t39.5 -38t65 -14q43 0 72 16.5t47 43.5t25.5 62t7.5 73v264h61v-354q0 -76 3 -151z" />
    <glyph glyph-name="Wcircumflex" unicode="&#x174;" horiz-adv-x="1020" 
d="M811 0h-89l-215 655l-208 -655h-91l-189 723h69l169 -666l212 666h79l221 -666l168 666h64zM599 775l-89 106l-91 -106h-46l101 146h73l98 -146h-46z" />
    <glyph glyph-name="wcircumflex" unicode="&#x175;" horiz-adv-x="820" 
d="M617 0h-55l-151 439l-153 -439h-59l-179 505h69l141 -432l150 432h69l145 -427l144 427h62zM501 592l-89 106l-91 -106h-46l101 146h73l98 -146h-46z" />
    <glyph glyph-name="Ycircumflex" unicode="&#x176;" horiz-adv-x="613" 
d="M339 310v-310h-65v312l-280 413h78l238 -355l235 355h74zM398 775l-89 106l-91 -106h-46l101 146h73l98 -146h-46z" />
    <glyph glyph-name="ycircumflex" unicode="&#x177;" horiz-adv-x="507" 
d="M213 -190h-62l80 193l-212 502h73l169 -423l168 423h61zM351 592l-89 106l-91 -106h-46l101 146h73l98 -146h-46z" />
    <glyph glyph-name="Ydieresis" unicode="&#x178;" horiz-adv-x="613" 
d="M339 310v-310h-65v312l-280 413h78l238 -355l235 355h74zM357 816v76h73v-76h-73zM186 816v76h73v-76h-73z" />
    <glyph glyph-name="Zacute" unicode="&#x179;" horiz-adv-x="565" 
d="M23 0v67l432 601h-403v55h479v-58l-442 -610h453v-55h-519zM283 777h-44l90 144h80z" />
    <glyph glyph-name="zacute" unicode="&#x17a;" horiz-adv-x="445" 
d="M40 0v58l301 397h-293v50h350v-59l-294 -396h301v-50h-365zM214 592h-44l90 144h80z" />
    <glyph glyph-name="Zdotaccent" unicode="&#x17b;" horiz-adv-x="565" 
d="M23 0v67l432 601h-403v55h479v-58l-442 -610h453v-55h-519zM258 816v76h73v-76h-73z" />
    <glyph glyph-name="zdotaccent" unicode="&#x17c;" horiz-adv-x="445" 
d="M40 0v58l301 397h-293v50h350v-59l-294 -396h301v-50h-365zM189 647v76h73v-76h-73z" />
    <glyph glyph-name="Zcaron" unicode="&#x17d;" horiz-adv-x="565" 
d="M23 0v67l432 601h-403v55h479v-58l-442 -610h453v-55h-519zM333 777h-80l-98 144h46l93 -106l89 106h46z" />
    <glyph glyph-name="zcaron" unicode="&#x17e;" horiz-adv-x="445" 
d="M40 0v58l301 397h-293v50h350v-59l-294 -396h301v-50h-365zM266 592h-80l-98 144h46l93 -106l89 106h46z" />
    <glyph glyph-name="florin" unicode="&#x192;" 
d="M313 460h106l-8 -53h-108l-79 -419q-16 -85 -49 -124.5t-87 -39.5q-12 0 -24.5 2t-22.5 4l10 58q13 -3 27 -3q32 0 51 24t30 82l77 416h-92l9 53h93l21 109q6 30 14 60t23 53.5t38.5 38.5t58.5 15q17 0 34.5 -2.5t32.5 -6.5l-8 -56q-11 2 -22.5 4t-22.5 2
q-20 0 -33.5 -7.5t-22.5 -21t-15 -33t-10 -43.5z" />
    <glyph glyph-name="Scommaaccent" unicode="&#x218;" horiz-adv-x="617" 
d="M558 197q0 -54 -22 -93t-58 -64t-82.5 -37t-94.5 -12q-50 0 -92 11t-73.5 35t-51.5 61.5t-25 89.5h68q1 -39 16 -66t39 -44t55.5 -24.5t66.5 -7.5q33 0 66.5 7.5t60.5 24t44 43.5t17 65q0 29 -11.5 51t-32 39t-49 30t-63.5 24l-53 17q-44 14 -81 30t-64 38t-42.5 52.5
t-15.5 72.5q0 51 20.5 87t54 59.5t76.5 34.5t88 11q41 0 81.5 -8.5t72 -28t51.5 -52t21 -80.5h-67q-3 33 -16.5 55t-34.5 35.5t-48 19t-57 5.5q-31 0 -62.5 -7.5t-56.5 -23t-41 -41t-16 -61.5q0 -53 40.5 -84.5t124.5 -58.5l60 -19q44 -14 78 -29.5t58 -36.5t37 -50t14 -70z
M350 -51l-58 -149h-52l36 149h74z" />
    <glyph glyph-name="scommaaccent" unicode="&#x219;" horiz-adv-x="480" 
d="M426 144q0 -41 -16.5 -70t-43 -47.5t-61 -27.5t-70.5 -9q-39 0 -72.5 9t-57.5 28.5t-38 49t-14 71.5h60q0 -57 34.5 -84.5t90.5 -27.5q22 0 45 6t41.5 18t30.5 30.5t12 44.5q0 40 -31 60t-81 34l-53 15q-29 8 -54 19t-43.5 26.5t-29 36.5t-10.5 51q0 37 15.5 63.5
t40 43.5t56 25t64.5 8q37 0 68 -8.5t54.5 -26.5t37 -46t14.5 -67h-61q-3 52 -31.5 75.5t-79.5 23.5q-19 0 -39.5 -4.5t-38 -15t-28.5 -26.5t-11 -39q0 -37 28.5 -56.5t75.5 -32.5l57 -16q72 -20 105.5 -50.5t33.5 -83.5zM279 -51l-58 -149h-52l36 149h74z" />
    <glyph glyph-name="uni021A" unicode="&#x21a;" horiz-adv-x="546" 
d="M305 669v-669h-65v669h-231v54h528v-54h-232zM308 -51l-58 -149h-52l36 149h74z" />
    <glyph glyph-name="uni021B" unicode="&#x21b;" horiz-adv-x="325" 
d="M296 1q-18 -2 -35.5 -3.5t-35.5 -1.5q-107 0 -107 108v356h-100v45h100v104l61 27v-131h113v-45h-113v-329q0 -21 2 -37t9.5 -26.5t21.5 -15.5t38 -5q9 0 21.5 2t24.5 4v-52zM186 -51l-58 -149h-52l36 149h74z" />
    <glyph glyph-name="uni0237" unicode="&#x237;" horiz-adv-x="235" 
d="M148 -71q0 -34 -6 -56t-20.5 -34.5t-37.5 -17t-56 -4.5q-11 0 -21 0.5t-21 1.5v49q19 -3 39 -3q22 0 34.5 5.5t18.5 16t7.5 25t1.5 33.5v560h61v-576v0z" />
    <glyph glyph-name="circumflex" unicode="&#x2c6;" horiz-adv-x="292" 
d="M236 592l-89 106l-91 -106h-46l101 146h73l98 -146h-46z" />
    <glyph glyph-name="caron" unicode="&#x2c7;" horiz-adv-x="292" 
d="M187 592h-80l-98 144h46l93 -106l89 106h46z" />
    <glyph glyph-name="uni02C9" unicode="&#x2c9;" horiz-adv-x="293" 
d="M24 818v51h245v-51h-245z" />
    <glyph glyph-name="breve" unicode="&#x2d8;" horiz-adv-x="293" 
d="M288 710q-6 -54 -44 -86t-100 -32q-59 0 -100 31.5t-43 86.5h38q3 -18 14 -31t26 -22t32 -13.5t33 -4.5q35 0 65 17t43 54h36v0z" />
    <glyph glyph-name="dotaccent" unicode="&#x2d9;" horiz-adv-x="293" 
d="M110 647v76h73v-76h-73z" />
    <glyph glyph-name="ring" unicode="&#x2da;" horiz-adv-x="244" 
d="M213 666q0 -38 -26.5 -64t-64.5 -26t-64.5 26t-26.5 64t26.5 64t64.5 26t64.5 -26t26.5 -64zM179 666q0 26 -16 43t-41 17t-41 -17t-16 -43t16 -43t41 -17t41 17t16 43z" />
    <glyph glyph-name="ogonek" unicode="&#x2db;" horiz-adv-x="293" 
d="M221 0q-58 -23 -85 -45t-27 -51q0 -26 19.5 -37.5t42.5 -11.5q12 0 21 2.5t20 7.5l8 -26q-35 -18 -75 -18q-16 0 -32.5 3.5t-30 11.5t-22 21t-8.5 32t10 36t27 31t40 25t49 19h43v0z" />
    <glyph glyph-name="tilde" unicode="&#x2dc;" horiz-adv-x="293" 
d="M284 712q-3 -16 -10.5 -31t-18 -27t-24.5 -19t-32 -7q-26 0 -51.5 10.5t-51.5 10.5q-35 0 -49 -29h-38q7 35 30 58t60 23q26 0 49 -10.5t49 -10.5q36 0 49 32h38v0z" />
    <glyph glyph-name="hungarumlaut" unicode="&#x2dd;" horiz-adv-x="292" 
d="M208 594h-47l95 142h81zM60 594h-47l95 142h81z" />
    <glyph glyph-name="uni0374" unicode="&#x374;" horiz-adv-x="327" 
d="M135 534h-44l60 190h85z" />
    <glyph glyph-name="uni0375" unicode="&#x375;" horiz-adv-x="327" 
d="M192 0h44l-60 -190h-85z" />
    <glyph glyph-name="uni037E" unicode="&#x37e;" horiz-adv-x="280" 
d="M97 419v86h80v-86h-80zM110 -120h-54l51 206h83z" />
    <glyph glyph-name="tonos" unicode="&#x384;" horiz-adv-x="269" 
d="M149 736h89l-100 -144h-47z" />
    <glyph glyph-name="dieresistonos" unicode="&#x385;" horiz-adv-x="370" 
d="M24 688h73v-76h-73v76zM166 736h87l-71 -144h-48zM273 688h73v-76h-73v76z" />
    <glyph glyph-name="Alphatonos" unicode="&#x386;" horiz-adv-x="693" 
d="M306 723h69l307 -723h-76l-82 202h-366l-78 -202h-69zM501 256l-165 404l-157 -404h322zM138 579h-47l58 144h89z" />
    <glyph glyph-name="anoteleia" unicode="&#x387;" horiz-adv-x="280" 
d="M100 282v86h80v-86h-80z" />
    <glyph glyph-name="Epsilontonos" unicode="&#x388;" horiz-adv-x="602" 
d="M105 723h429v-54h-364v-266h350v-54h-350v-295h379v-54h-444v723zM-72 579h-47l58 144h89z" />
    <glyph glyph-name="Etatonos" unicode="&#x389;" horiz-adv-x="742" 
d="M105 723h65v-324h402v324h65v-723h-65v345h-402v-345h-65v723zM-72 579h-47l58 144h89z" />
    <glyph glyph-name="Iotatonos" unicode="&#x38a;" horiz-adv-x="275" 
d="M105 723h65v-723h-65v723zM-72 579h-47l58 144h89z" />
    <glyph glyph-name="Omicrontonos" unicode="&#x38c;" horiz-adv-x="745" 
d="M372 -11q-84 0 -144 29.5t-98.5 80.5t-56.5 119t-18 145q0 75 19 142.5t58 118.5t98.5 81.5t141.5 30.5q85 0 145.5 -28t98.5 -77t56 -116.5t18 -145.5q0 -77 -18 -145.5t-56 -121t-98.5 -83t-145.5 -30.5zM372 43q68 0 115 28t76 73t42 102.5t13 116.5q0 61 -12 118.5
t-40.5 101.5t-76 71t-117.5 27q-68 0 -114.5 -28t-75.5 -73t-42 -102t-13 -115q0 -59 13 -116.5t42 -102.5t75.5 -73t114.5 -28zM-15 579h-47l58 144h89z" />
    <glyph glyph-name="Upsilontonos" unicode="&#x38e;" horiz-adv-x="613" 
d="M339 310v-310h-65v312l-280 413h78l238 -355l235 355h74zM-152 579h-47l58 144h89z" />
    <glyph glyph-name="Omegatonos" unicode="&#x38f;" horiz-adv-x="743" 
d="M618 376q0 66 -15 122t-45.5 96.5t-77 63.5t-109.5 23q-60 0 -105.5 -23t-76 -64t-46.5 -97t-16 -121q0 -54 12.5 -102t34.5 -88.5t51.5 -73.5t63.5 -57v-55h-235v55h168q-75 49 -121 130t-46 196q0 77 22 142t63 112.5t99.5 74t131.5 26.5q74 0 133 -23.5t100.5 -68.5
t63.5 -111t22 -152q0 -115 -46 -196t-121 -130h168v-55h-235v55q34 24 63.5 57t51.5 73.5t34.5 88.5t12.5 102zM-22 579h-47l58 144h89z" />
    <glyph glyph-name="iotadieresistonos" unicode="&#x390;" horiz-adv-x="277" 
d="M177 -4q-53 0 -73 28t-20 82v399h61v-394q0 -35 9.5 -49.5t36.5 -14.5q11 0 20.5 1t20.5 4v-52q-18 -2 -29 -3t-26 -1zM-16 688h73v-76h-73v76zM126 736h87l-71 -144h-48zM233 688h73v-76h-73v76z" />
    <glyph glyph-name="Alpha" unicode="&#x391;" horiz-adv-x="693" 
d="M306 723h69l307 -723h-76l-82 202h-366l-78 -202h-69zM501 256l-165 404l-157 -404h322z" />
    <glyph glyph-name="Beta" unicode="&#x392;" horiz-adv-x="656" 
d="M324 401q34 0 65 7t53.5 23.5t36 42.5t13.5 65q0 34 -12 58t-32 39t-47.5 22t-57.5 7h-173v-264h154zM105 723h199q31 0 63.5 -1t62.5 -9q59 -17 95.5 -61.5t36.5 -107.5q0 -68 -35.5 -108.5t-98.5 -57.5q75 -10 119.5 -54.5t44.5 -122.5q0 -62 -26 -101.5t-67.5 -61.5
t-92.5 -30t-102 -8h-199v723zM298 58q39 0 79.5 3t72.5 17.5t52.5 43.5t20.5 80q0 45 -15 73.5t-41 45t-60 22.5t-71 6h-166v-291h128z" />
    <glyph glyph-name="Gamma" unicode="&#x393;" horiz-adv-x="555" 
d="M105 723h411v-54h-346v-669h-65v723z" />
    <glyph glyph-name="Delta" unicode="&#x394;" horiz-adv-x="658" 
d="M-3 0l299 723h67l304 -723h-670zM330 658l-243 -603h488z" />
    <glyph glyph-name="Epsilon" unicode="&#x395;" horiz-adv-x="602" 
d="M105 723h429v-54h-364v-266h350v-54h-350v-295h379v-54h-444v723z" />
    <glyph glyph-name="Zeta" unicode="&#x396;" horiz-adv-x="565" 
d="M23 67l432 601h-403v55h479v-58l-442 -610h453v-55h-519v67z" />
    <glyph glyph-name="Eta" unicode="&#x397;" horiz-adv-x="742" 
d="M105 723h65v-324h402v324h65v-723h-65v345h-402v-345h-65v723z" />
    <glyph glyph-name="Theta" unicode="&#x398;" horiz-adv-x="745" 
d="M372 -11q-84 0 -144 29.5t-98.5 80.5t-56.5 119t-18 145q0 75 19 142.5t58 118.5t98.5 81.5t141.5 30.5q85 0 145.5 -28t98.5 -77t56 -116.5t18 -145.5q0 -77 -18 -145.5t-56 -121t-98.5 -83t-145.5 -30.5zM372 43q68 0 115 28t76 73t42 102.5t13 116.5q0 61 -12 118.5
t-40.5 101.5t-76 71t-117.5 27q-68 0 -114.5 -28t-75.5 -73t-42 -102t-13 -115q0 -59 13 -116.5t42 -102.5t75.5 -73t114.5 -28zM240 404h264v-63h-264v63z" />
    <glyph glyph-name="Iota" unicode="&#x399;" horiz-adv-x="275" 
d="M105 723h65v-723h-65v723z" />
    <glyph glyph-name="Kappa" unicode="&#x39a;" horiz-adv-x="621" 
d="M174 392l322 331h87l-331 -326l365 -397h-89zM105 723h65v-723h-65v723z" />
    <glyph glyph-name="Lambda" unicode="&#x39b;" horiz-adv-x="693" 
d="M306 723h69l297 -723h-76l-260 660l-246 -660h-69z" />
    <glyph glyph-name="Mu" unicode="&#x39c;" horiz-adv-x="944" 
d="M775 0v669l-272 -669h-64l-273 669v-669h-61v723h107l261 -645l259 645h107v-723h-64z" />
    <glyph glyph-name="Nu" unicode="&#x39d;" horiz-adv-x="751" 
d="M558 0l-392 644v-644h-61v723h88l392 -646v646h61v-723h-88z" />
    <glyph glyph-name="Xi" unicode="&#x39e;" horiz-adv-x="583" 
d="M52 59h479v-59h-479v59zM82 402h419v-59h-419v59zM52 723h479v-59h-479v59z" />
    <glyph glyph-name="Omicron" unicode="&#x39f;" horiz-adv-x="745" 
d="M372 -11q-84 0 -144 29.5t-98.5 80.5t-56.5 119t-18 145q0 75 19 142.5t58 118.5t98.5 81.5t141.5 30.5q85 0 145.5 -28t98.5 -77t56 -116.5t18 -145.5q0 -77 -18 -145.5t-56 -121t-98.5 -83t-145.5 -30.5zM372 43q68 0 115 28t76 73t42 102.5t13 116.5q0 61 -12 118.5
t-40.5 101.5t-76 71t-117.5 27q-68 0 -114.5 -28t-75.5 -73t-42 -102t-13 -115q0 -59 13 -116.5t42 -102.5t75.5 -73t114.5 -28z" />
    <glyph glyph-name="Pi" unicode="&#x3a0;" horiz-adv-x="742" 
d="M105 723h522v-723h-65v669h-392v-669h-65v723z" />
    <glyph glyph-name="Rho" unicode="&#x3a1;" horiz-adv-x="602" 
d="M105 723h203q118 0 176 -37q44 -28 62.5 -68.5t18.5 -95.5q0 -66 -35 -114t-98 -69q-32 -11 -69.5 -14t-75.5 -3h-117v-322h-65v723zM278 376q29 0 66.5 2.5t65.5 12.5q42 15 63.5 54.5t21.5 82.5q0 45 -14.5 72.5t-40 43t-59 20.5t-70.5 5h-141v-293h108z" />
    <glyph glyph-name="Sigma" unicode="&#x3a3;" horiz-adv-x="569" 
d="M31 58l225 318l-212 289v58h482v-54h-406l216 -290l-239 -325h452v-54h-518v58z" />
    <glyph glyph-name="Tau" unicode="&#x3a4;" horiz-adv-x="546" 
d="M240 669h-231v54h528v-54h-232v-669h-65v669z" />
    <glyph glyph-name="Upsilon" unicode="&#x3a5;" horiz-adv-x="613" 
d="M339 310v-310h-65v312l-280 413h78l238 -355l235 355h74z" />
    <glyph glyph-name="Phi" unicode="&#x3a6;" horiz-adv-x="789" 
d="M362 65q-74 1 -133.5 24t-101.5 63t-64.5 96t-22.5 123q0 72 24 127t67 92.5t102 57.5t129 21v68h65v-68q70 -1 129 -21t102 -57.5t67 -92.5t24 -127q0 -67 -23 -123t-65 -96t-101.5 -63t-132.5 -24v-78h-65v78zM362 615q-124 -2 -186.5 -66.5t-62.5 -178.5
q0 -116 65.5 -182t183.5 -68v495zM427 120q118 2 183.5 68t65.5 182q0 114 -62.5 178.5t-186.5 66.5v-495z" />
    <glyph glyph-name="Chi" unicode="&#x3a7;" horiz-adv-x="638" 
d="M276 376l-253 347h82l212 -306l210 306h74l-245 -348l268 -375h-79l-231 329l-226 -329h-74z" />
    <glyph glyph-name="Psi" unicode="&#x3a8;" horiz-adv-x="785" 
d="M361 130q-60 3 -111.5 18t-89 46t-59 78.5t-21.5 114.5v336h68v-326q0 -66 21.5 -107t53.5 -64t69 -31.5t69 -9.5v538h61v-538q30 1 67.5 10t70.5 32t55 64t22 108v324h68v-335q0 -66 -22.5 -113t-61 -78t-90 -47t-109.5 -19v-131h-61v130z" />
    <glyph glyph-name="Omega" unicode="&#x3a9;" horiz-adv-x="743" 
d="M618 376q0 66 -15 122t-45.5 96.5t-77 63.5t-109.5 23q-60 0 -105.5 -23t-76 -64t-46.5 -97t-16 -121q0 -54 12.5 -102t34.5 -88.5t51.5 -73.5t63.5 -57v-55h-235v55h168q-75 49 -121 130t-46 196q0 77 22 142t63 112.5t99.5 74t131.5 26.5q74 0 133 -23.5t100.5 -68.5
t63.5 -111t22 -152q0 -115 -46 -196t-121 -130h168v-55h-235v55q34 24 63.5 57t51.5 73.5t34.5 88.5t12.5 102z" />
    <glyph glyph-name="Iotadieresis" unicode="&#x3aa;" horiz-adv-x="275" 
d="M105 723h65v-723h-65v723zM187 816v76h73v-76h-73zM16 816v76h73v-76h-73z" />
    <glyph glyph-name="Upsilondieresis" unicode="&#x3ab;" horiz-adv-x="613" 
d="M339 310v-310h-65v312l-280 413h78l238 -355l235 355h74zM357 816v76h73v-76h-73zM186 816v76h73v-76h-73z" />
    <glyph glyph-name="alphatonos" unicode="&#x3ac;" horiz-adv-x="612" 
d="M271 -11q-59 0 -101 22t-69 59.5t-39.5 86t-12.5 102.5q0 48 13 94t40 82t67 58t94 22q61 0 101 -23.5t69 -76.5l3 90h62q-3 -38 -3.5 -75.5t-0.5 -75.5v-234q0 -35 7 -54t33 -19q8 0 15.5 1.5t12.5 3.5v-52l-15 -2.5t-20 -1.5q-47 0 -67.5 21t-27.5 63
q-23 -42 -63 -66.5t-98 -24.5zM279 38q44 0 73.5 19t47.5 50t25.5 68.5t7.5 75.5q0 55 -13.5 95t-36 66.5t-52.5 39.5t-63 13q-44 0 -73.5 -19t-47.5 -49.5t-25.5 -68.5t-7.5 -75q0 -40 9 -78.5t28.5 -69t51 -49t76.5 -18.5zM318 736h89l-100 -144h-47z" />
    <glyph glyph-name="epsilontonos" unicode="&#x3ad;" horiz-adv-x="488" 
d="M239 -11q-102 0 -148 40.5t-46 104.5q0 43 24.5 80t78.5 50q-38 8 -63 35.5t-25 72.5q0 28 10 54t32.5 46t58 31.5t86.5 11.5q95 0 144.5 -37.5t53.5 -94.5h-60q-3 20 -15 35.5t-30.5 26t-42.5 15.5t-50 5q-52 0 -87 -22.5t-35 -73.5q0 -16 6 -30.5t19.5 -25.5
t35.5 -17.5t54 -6.5h69v-47h-79q-62 0 -90 -28.5t-28 -75.5q0 -20 6.5 -38.5t22.5 -32.5t42 -22.5t65 -8.5q69 0 106 27t42 73h57q-2 -40 -21.5 -68t-49.5 -45.5t-67.5 -25.5t-75.5 -8zM294 736h89l-100 -144h-47z" />
    <glyph glyph-name="etatonos" unicode="&#x3ae;" horiz-adv-x="585" 
d="M97 386q0 34 -5 54t-30 20q-6 0 -12 -2v47q8 2 18 2h15q14 0 27 -3.5t23 -13.5t16.5 -26.5t8.5 -42.5q31 46 70 67.5t95 21.5q51 0 85.5 -14t54.5 -40t28.5 -63t8.5 -84v-499h-61v475q0 45 -6 78t-20.5 54.5t-39 31.5t-61.5 10q-43 0 -72.5 -15.5t-47.5 -42t-26 -61
t-8 -71.5v-269h-61v386zM310 736h89l-100 -144h-47z" />
    <glyph glyph-name="iotatonos" unicode="&#x3af;" horiz-adv-x="277" 
d="M177 -4q-53 0 -73 28t-20 82v399h61v-394q0 -35 9.5 -49.5t36.5 -14.5q11 0 20.5 1t20.5 4v-52q-18 -2 -29 -3t-26 -1zM155 736h89l-100 -144h-47z" />
    <glyph glyph-name="upsilondieresistonos" unicode="&#x3b0;" horiz-adv-x="539" 
d="M275 -11q-55 0 -91.5 13.5t-58.5 39.5t-31.5 63.5t-9.5 85.5v314h61v-319q0 -71 29.5 -108.5t103.5 -37.5q46 0 74 18t43.5 52t21 83t5.5 112q0 42 -6.5 90.5t-25.5 109.5h61q32 -80 32 -200q0 -67 -9 -125t-32.5 -100.5t-64 -66.5t-102.5 -24zM120 688h73v-76h-73v76z
M262 736h87l-71 -144h-48zM369 688h73v-76h-73v76z" />
    <glyph glyph-name="alpha" unicode="&#x3b1;" horiz-adv-x="612" 
d="M271 -11q-59 0 -101 22t-69 59.5t-39.5 86t-12.5 102.5q0 48 13 94t40 82t67 58t94 22q61 0 101 -23.5t69 -76.5l3 90h62q-3 -38 -3.5 -75.5t-0.5 -75.5v-234q0 -35 7 -54t33 -19q8 0 15.5 1.5t12.5 3.5v-52l-15 -2.5t-20 -1.5q-47 0 -67.5 21t-27.5 63
q-23 -42 -63 -66.5t-98 -24.5zM279 38q44 0 73.5 19t47.5 50t25.5 68.5t7.5 75.5q0 55 -13.5 95t-36 66.5t-52.5 39.5t-63 13q-44 0 -73.5 -19t-47.5 -49.5t-25.5 -68.5t-7.5 -75q0 -40 9 -78.5t28.5 -69t51 -49t76.5 -18.5z" />
    <glyph glyph-name="beta" unicode="&#x3b2;" horiz-adv-x="579" 
d="M83 489q0 55 10 99.5t34 76t64 49t100 17.5q95 0 142.5 -48t47.5 -129q0 -49 -24.5 -88.5t-74.5 -63.5q28 -5 54.5 -17t47 -34.5t33 -57.5t12.5 -86q0 -46 -14 -85.5t-42 -69t-69 -46.5t-96 -17q-31 0 -56.5 7.5t-45.5 20.5t-35.5 29t-26.5 34v-270h-61v679zM311 36
q76 0 115.5 44.5t39.5 125.5t-41 123t-138 42h-39v53h31q42 0 69 10.5t43 28t22.5 41.5t6.5 51q0 60 -32.5 93t-96.5 33q-70 0 -108.5 -42t-38.5 -141v-242q0 -104 42 -162t125 -58z" />
    <glyph glyph-name="gamma" unicode="&#x3b3;" horiz-adv-x="517" 
d="M224 -190q1 14 2 32q1 16 1.5 38t0.5 49q0 21 -6.5 58.5t-29.5 109.5q-17 51 -37.5 106.5t-43 109.5t-46 103.5t-45.5 88.5h73q49 -94 93.5 -207.5t79.5 -238.5q78 138 111 247.5t29 198.5h60q3 -50 -9 -114t-36 -134.5t-59 -142t-78 -134.5q4 -42 4.5 -83.5t-4.5 -86.5
h-60v0z" />
    <glyph glyph-name="delta" unicode="&#x3b4;" horiz-adv-x="557" 
d="M277 -11q-56 0 -98.5 19.5t-71 51.5t-43.5 74.5t-15 87.5q0 113 51 178.5t135 94.5l-17 10q-33 20 -54.5 44.5t-21.5 57.5q0 36 14 60t37 38.5t51.5 20t57.5 5.5q37 0 76.5 -4t70.5 -12v-56q-22 7 -39 11t-33 6t-34 3t-42 1q-53 0 -75.5 -19t-22.5 -42q0 -14 3.5 -24.5
t14 -21.5t30 -23.5t52.5 -29.5l11 -6q45 -25 81 -50.5t60.5 -57t37.5 -72t13 -94.5q0 -46 -14 -91t-42.5 -80.5t-71.5 -57.5t-101 -22zM280 36q34 0 64 12.5t52 37.5t34.5 62.5t12.5 87.5q0 41 -7.5 73t-24 58t-43.5 48t-65 44l-17 9q-38 -11 -70.5 -29.5t-56 -47.5
t-36.5 -70t-13 -96q0 -38 11 -72.5t32.5 -60.5t53 -41t73.5 -15z" />
    <glyph glyph-name="epsilon" unicode="&#x3b5;" horiz-adv-x="488" 
d="M239 -11q-102 0 -148 40.5t-46 104.5q0 43 24.5 80t78.5 50q-38 8 -63 35.5t-25 72.5q0 28 10 54t32.5 46t58 31.5t86.5 11.5q95 0 144.5 -37.5t53.5 -94.5h-60q-3 20 -15 35.5t-30.5 26t-42.5 15.5t-50 5q-52 0 -87 -22.5t-35 -73.5q0 -16 6 -30.5t19.5 -25.5
t35.5 -17.5t54 -6.5h69v-47h-79q-62 0 -90 -28.5t-28 -75.5q0 -20 6.5 -38.5t22.5 -32.5t42 -22.5t65 -8.5q69 0 106 27t42 73h57q-2 -40 -21.5 -68t-49.5 -45.5t-67.5 -25.5t-75.5 -8z" />
    <glyph glyph-name="zeta" unicode="&#x3b6;" horiz-adv-x="445" 
d="M350 -142q12 31 16 53t4 29q0 27 -16.5 40t-66.5 26l-35 9q-47 12 -84 29.5t-62.5 44.5t-39.5 67t-14 97q0 128 71 236t202 183h-231v51h332v-47q-71 -32 -128.5 -75.5t-98.5 -97t-63 -115.5t-22 -131q0 -48 10 -80t30.5 -53.5t52.5 -35t76 -23.5l22 -5q33 -8 56.5 -15
t39 -17.5t22.5 -25.5t7 -37q0 -26 -7.5 -53t-19.5 -54h-53v0z" />
    <glyph glyph-name="eta" unicode="&#x3b7;" horiz-adv-x="585" 
d="M97 386q0 34 -5 54t-30 20q-6 0 -12 -2v47q8 2 18 2h15q14 0 27 -3.5t23 -13.5t16.5 -26.5t8.5 -42.5q31 46 70 67.5t95 21.5q51 0 85.5 -14t54.5 -40t28.5 -63t8.5 -84v-499h-61v475q0 45 -6 78t-20.5 54.5t-39 31.5t-61.5 10q-43 0 -72.5 -15.5t-47.5 -42t-26 -61
t-8 -71.5v-269h-61v386z" />
    <glyph glyph-name="theta" unicode="&#x3b8;" horiz-adv-x="559" 
d="M281 -11q-60 0 -102 20t-69 65t-39.5 117.5t-12.5 177.5q0 185 52.5 273.5t169.5 88.5q111 0 166 -86t55 -276q0 -110 -13.5 -183.5t-41 -117t-69 -61.5t-96.5 -18zM280 36q46 0 76 20.5t47.5 59t24.5 94.5t7 127h-311q0 -152 35 -226.5t121 -74.5zM435 390
q0 70 -6.5 124.5t-23.5 91.5t-47.5 56t-78.5 19q-43 0 -72.5 -16.5t-48 -52t-26.5 -90.5t-8 -132h311z" />
    <glyph glyph-name="iota" unicode="&#x3b9;" horiz-adv-x="277" 
d="M177 -4q-53 0 -73 28t-20 82v399h61v-394q0 -35 9.5 -49.5t36.5 -14.5q11 0 20.5 1t20.5 4v-52q-18 -2 -29 -3t-26 -1z" />
    <glyph glyph-name="kappa" unicode="&#x3ba;" horiz-adv-x="549" 
d="M85 505h61v-300l179 216q19 22 34 38.5t30 27t32 15.5t39 5h20.5t14.5 -2v-57q-3 0 -7 1q-4 0 -9 0.5t-11 0.5q-15 0 -25.5 -3t-20 -11t-21 -21t-27.5 -32l-66 -79l211 -304h-76l-174 256l-123 -143v-113h-61v505z" />
    <glyph glyph-name="lambda" unicode="&#x3bb;" horiz-adv-x="533" 
d="M234 493l-60 149q-11 28 -19 35t-24 7q-10 0 -20 -2v47q10 2 18 2h14q20 0 34.5 -4t25.5 -13t19 -23.5t16 -36.5l211 -577q7 -19 15.5 -24.5t19.5 -5.5q8 0 19 3v-52q-9 -1 -17.5 -1.5t-13.5 -0.5q-29 0 -50.5 14.5t-34.5 51.5l-126 363l-180 -425h-66z" />
    <glyph glyph-name="mu" unicode="&#x3bc;" horiz-adv-x="577" 
d="M431 0v81q-8 -16 -21.5 -31.5t-32 -27.5t-42.5 -19.5t-51 -7.5q-45 0 -79.5 16t-56.5 48v-249h-61v695h61v-285q0 -38 7 -70t22.5 -55t41 -36t63.5 -13q39 0 67 13.5t45.5 38t26 59t8.5 75.5v273h61v-347q0 -33 0.5 -74.5t2.5 -83.5h-62z" />
    <glyph glyph-name="nu" unicode="&#x3bd;" horiz-adv-x="520" 
d="M30 505h69l172 -448q40 90 67 154t43.5 114t22.5 92t5 88h60q1 -50 -9.5 -105t-31.5 -116.5t-53 -132t-74 -151.5h-70z" />
    <glyph glyph-name="xi" unicode="&#x3be;" horiz-adv-x="461" 
d="M343 -142q7 19 13.5 42.5t6.5 43.5q0 12 -4 21t-14.5 16.5t-28.5 13.5t-45 13l-24 6q-99 25 -145.5 67.5t-46.5 121.5q0 32 8 62t26 55.5t47 44t70 27.5q-62 16 -87 55t-25 87q0 21 5 42.5t16.5 40.5t29 33.5t42.5 21.5h-115v51h347v-47l-60 -4q-39 -2 -77 -6.5t-67 -18
t-47 -40.5t-18 -73q0 -50 34.5 -80.5t123.5 -30.5h73v-51h-44q-65 0 -107.5 -12.5t-67.5 -34.5t-35 -52.5t-10 -65.5q0 -32 10.5 -55t31 -39.5t50.5 -28t68 -19.5l23 -5q35 -8 58.5 -16t38 -19t20.5 -25t6 -33q0 -11 -1 -21t-4 -22.5t-8 -28t-14 -37.5h-53v0z" />
    <glyph glyph-name="omicron" unicode="&#x3bf;" horiz-adv-x="571" 
d="M286 -11q-59 0 -103.5 21t-74 57t-44.5 84.5t-15 104.5q0 55 15.5 102t45.5 82t74 55t102 20t102.5 -19.5t74 -54.5t44.5 -82.5t15 -102.5q0 -53 -15.5 -101.5t-45.5 -85.5t-74 -58.5t-101 -21.5zM286 36q45 0 77.5 19.5t53 51t30.5 71t10 78.5q0 40 -9.5 78t-30.5 67
t-53.5 46.5t-77.5 17.5t-77.5 -17.5t-53.5 -46.5t-31 -66.5t-10 -78.5q0 -40 9.5 -79.5t30.5 -70.5t53.5 -50.5t78.5 -19.5z" />
    <glyph glyph-name="pi" unicode="&#x3c0;" horiz-adv-x="620" 
d="M428 452h-253v-452h-61v452h-76v53h530v-53h-79v-361q0 -23 9 -34t30 -11q11 0 22.5 3t22.5 8v-46q-16 -8 -30.5 -12.5t-32.5 -4.5q-42 0 -62 22.5t-20 75.5v360z" />
    <glyph glyph-name="rho" unicode="&#x3c1;" horiz-adv-x="559" 
d="M58 246q0 66 16 116.5t45.5 84t70.5 51t91 17.5q59 0 102.5 -21.5t71.5 -56.5t41.5 -81.5t13.5 -95.5q0 -51 -15 -99.5t-44 -86.5t-71.5 -61.5t-98.5 -23.5q-58 0 -97 21.5t-65 67.5v-268h-61v436zM276 36q35 0 65.5 13.5t53.5 41t36.5 68t13.5 94.5q0 53 -13 93
t-35 66.5t-52 39.5t-64 13q-35 0 -64.5 -13t-51 -39.5t-34 -67t-12.5 -94.5q0 -38 9 -76t27.5 -69t48.5 -50.5t72 -19.5z" />
    <glyph glyph-name="sigma1" unicode="&#x3c2;" horiz-adv-x="460" 
d="M327 -142q11 31 15.5 52t4.5 28q0 15 -3.5 25.5t-13 18t-26 13.5t-42.5 12q-47 11 -85.5 28.5t-66.5 47t-43 73t-15 107.5q0 58 12 104.5t37.5 79.5t65.5 50.5t95 17.5q84 0 130.5 -36.5t49.5 -108.5h-61q0 27 -10 45t-26.5 29.5t-38 16t-43.5 4.5q-68 0 -106.5 -45.5
t-38.5 -153.5q0 -49 10 -84t30.5 -59t52 -39.5t75.5 -24.5q28 -6 50.5 -12.5t38.5 -16.5t24 -25.5t8 -38.5q0 -31 -8 -56.5t-19 -51.5h-53v0z" />
    <glyph glyph-name="sigma" unicode="&#x3c3;" horiz-adv-x="574" 
d="M270 -11q-54 0 -96 19.5t-70.5 52.5t-43.5 77.5t-15 94.5q0 131 62 201.5t180 70.5h242v-55h-117q41 -35 61 -85t20 -119q0 -47 -13 -93t-40 -82.5t-69 -59t-101 -22.5zM272 36q45 0 75.5 18.5t48.5 49t26 69.5t8 81q0 65 -17 111t-51 80q-3 3 -16 5t-51 2
q-93 0 -138 -51t-45 -160q0 -94 42 -149.5t118 -55.5z" />
    <glyph glyph-name="tau" unicode="&#x3c4;" horiz-adv-x="441" 
d="M278 -4q-19 0 -37 5t-32.5 17t-23 32t-8.5 49v351h-157v55h391v-55h-173v-331q0 -23 5 -37t14 -22t21.5 -10.5t27.5 -2.5q17 0 23.5 1.5t15.5 3.5v-52q-6 -1 -11.5 -1.5t-12.5 -1t-17 -1t-26 -0.5z" />
    <glyph glyph-name="upsilon" unicode="&#x3c5;" horiz-adv-x="539" 
d="M275 -11q-55 0 -91.5 13.5t-58.5 39.5t-31.5 63.5t-9.5 85.5v314h61v-319q0 -71 29.5 -108.5t103.5 -37.5q46 0 74 18t43.5 52t21 83t5.5 112q0 42 -6.5 90.5t-25.5 109.5h61q32 -80 32 -200q0 -67 -9 -125t-32.5 -100.5t-64 -66.5t-102.5 -24z" />
    <glyph glyph-name="phi" unicode="&#x3c6;" horiz-adv-x="683" 
d="M313 -11q-59 3 -109 19t-86.5 47.5t-57 80t-20.5 116.5q0 58 17 105t50.5 81t85 54t120.5 23v121h57v-121q58 -3 108 -19t87 -47.5t57.5 -80t20.5 -116.5q0 -129 -71.5 -193t-201.5 -70v-179h-57v179zM313 467q-57 -3 -96.5 -19.5t-64.5 -44t-36.5 -65.5t-11.5 -84
q0 -60 17.5 -101t46.5 -67t66.5 -38t78.5 -14v433zM370 34q103 5 156 64t53 156q0 58 -16 98t-44.5 65t-66.5 36.5t-82 13.5v-433z" />
    <glyph glyph-name="chi" unicode="&#x3c7;" horiz-adv-x="531" 
d="M231 170l-132 241l-15 25t-12 15t-12.5 7t-15.5 2q-5 0 -8 -0.5t-7 -1.5v47q10 2 18.5 2h12.5q19 0 32.5 -3.5t25 -13.5t23 -28.5t28.5 -49.5l101 -187l154 280h69l-192 -337l159 -287q10 -17 19.5 -20.5t20.5 -3.5q3 0 8 0.5t10 2.5v-52q-9 -1 -17 -1.5t-13 -0.5
q-25 0 -45 9t-39 44l-142 255l-180 -304h-67z" />
    <glyph glyph-name="psi" unicode="&#x3c8;" horiz-adv-x="657" 
d="M300 -10q-121 5 -176 59t-55 154v302h61v-289q0 -87 38.5 -130.5t131.5 -48.5v599h61v-599q58 3 93.5 20.5t54.5 50t25 81.5t6 115q0 42 -6.5 91t-25.5 110h61q32 -80 32 -207q0 -93 -17.5 -151.5t-49.5 -92.5t-76 -47.5t-97 -16.5v-180h-61v180z" />
    <glyph glyph-name="omega" unicode="&#x3c9;" horiz-adv-x="746" 
d="M238 -11q-46 0 -80 17t-56.5 48t-33.5 75t-11 98q0 87 22 155.5t58 122.5h65q-18 -29 -33 -60t-25.5 -66t-16 -76t-5.5 -90q0 -91 31.5 -134t91.5 -43q27 0 46 11.5t31 31.5t17 46.5t5 55.5v191h58v-190q0 -30 5.5 -56.5t17.5 -46.5t31 -31.5t46 -11.5q60 0 91 42.5
t31 133.5q0 49 -5.5 90t-16 76.5t-25 66.5t-32.5 60h65q36 -54 57.5 -122.5t21.5 -155.5q0 -109 -44.5 -173.5t-135.5 -64.5q-53 0 -86 28t-50 79q-16 -51 -49 -79t-86 -28z" />
    <glyph glyph-name="iotadieresis" unicode="&#x3ca;" horiz-adv-x="277" 
d="M177 -4q-53 0 -73 28t-20 82v399h61v-394q0 -35 9.5 -49.5t36.5 -14.5q11 0 20.5 1t20.5 4v-52q-18 -2 -29 -3t-26 -1zM163 647v76h73v-76h-73zM-8 647v76h73v-76h-73z" />
    <glyph glyph-name="upsilondieresis" unicode="&#x3cb;" horiz-adv-x="539" 
d="M275 -11q-55 0 -91.5 13.5t-58.5 39.5t-31.5 63.5t-9.5 85.5v314h61v-319q0 -71 29.5 -108.5t103.5 -37.5q46 0 74 18t43.5 52t21 83t5.5 112q0 42 -6.5 90.5t-25.5 109.5h61q32 -80 32 -200q0 -67 -9 -125t-32.5 -100.5t-64 -66.5t-102.5 -24zM331 647v76h73v-76h-73z
M160 647v76h73v-76h-73z" />
    <glyph glyph-name="omicrontonos" unicode="&#x3cc;" horiz-adv-x="571" 
d="M286 -11q-59 0 -103.5 21t-74 57t-44.5 84.5t-15 104.5q0 55 15.5 102t45.5 82t74 55t102 20t102.5 -19.5t74 -54.5t44.5 -82.5t15 -102.5q0 -53 -15.5 -101.5t-45.5 -85.5t-74 -58.5t-101 -21.5zM286 36q45 0 77.5 19.5t53 51t30.5 71t10 78.5q0 40 -9.5 78t-30.5 67
t-53.5 46.5t-77.5 17.5t-77.5 -17.5t-53.5 -46.5t-31 -66.5t-10 -78.5q0 -40 9.5 -79.5t30.5 -70.5t53.5 -50.5t78.5 -19.5zM329 736h89l-100 -144h-47z" />
    <glyph glyph-name="upsilontonos" unicode="&#x3cd;" horiz-adv-x="539" 
d="M275 -11q-55 0 -91.5 13.5t-58.5 39.5t-31.5 63.5t-9.5 85.5v314h61v-319q0 -71 29.5 -108.5t103.5 -37.5q46 0 74 18t43.5 52t21 83t5.5 112q0 42 -6.5 90.5t-25.5 109.5h61q32 -80 32 -200q0 -67 -9 -125t-32.5 -100.5t-64 -66.5t-102.5 -24zM319 736h89l-100 -144h-47
z" />
    <glyph glyph-name="omegatonos" unicode="&#x3ce;" horiz-adv-x="746" 
d="M238 -11q-46 0 -80 17t-56.5 48t-33.5 75t-11 98q0 87 22 155.5t58 122.5h65q-18 -29 -33 -60t-25.5 -66t-16 -76t-5.5 -90q0 -91 31.5 -134t91.5 -43q27 0 46 11.5t31 31.5t17 46.5t5 55.5v191h58v-190q0 -30 5.5 -56.5t17.5 -46.5t31 -31.5t46 -11.5q60 0 91 42.5
t31 133.5q0 49 -5.5 90t-16 76.5t-25 66.5t-32.5 60h65q36 -54 57.5 -122.5t21.5 -155.5q0 -109 -44.5 -173.5t-135.5 -64.5q-53 0 -86 28t-50 79q-16 -51 -49 -79t-86 -28zM411 736h89l-100 -144h-47z" />
    <glyph glyph-name="uni0400" unicode="&#x400;" horiz-adv-x="602" 
d="M105 723h429v-54h-364v-266h350v-54h-350v-295h379v-54h-444v723zM331 777l-126 144h80l90 -144h-44z" />
    <glyph glyph-name="afii10023" unicode="&#x401;" horiz-adv-x="602" 
d="M105 723h429v-54h-364v-266h350v-54h-350v-295h379v-54h-444v723zM369 816v76h73v-76h-73zM198 816v76h73v-76h-73z" />
    <glyph glyph-name="afii10051" unicode="&#x402;" horiz-adv-x="788" 
d="M490 -11q-8 0 -20 0.5t-20 1.5v51q8 -2 20 -2h20q41 0 74 13.5t56.5 38.5t36.5 59.5t13 75.5q0 33 -10 62t-31.5 50.5t-56 34t-83.5 12.5q-27 0 -55 -4t-53 -10t-45.5 -12t-30.5 -10v-350h-65v669h-231v54h528v-54h-232v-266q10 4 30 10t45.5 12t54 10t57.5 4
q72 0 119 -19.5t74.5 -50t38.5 -68t11 -72.5q0 -57 -17.5 -101.5t-49.5 -75t-77.5 -47t-100.5 -16.5z" />
    <glyph glyph-name="afii10052" unicode="&#x403;" horiz-adv-x="522" 
d="M105 723h408v-54h-343v-669h-65v723zM296 777h-44l90 144h80z" />
    <glyph glyph-name="afii10053" unicode="&#x404;" horiz-adv-x="672" 
d="M371 -10q-82 0 -141.5 30t-98.5 81t-57.5 118t-18.5 142q0 88 19 157.5t57 117.5t96.5 73t136.5 25q45 0 88 -9t77.5 -30.5t57 -56t26.5 -85.5h-70q-3 28 -17.5 52t-38 40.5t-55 26t-67.5 9.5q-63 0 -106.5 -24t-71.5 -63.5t-42 -90t-18 -104.5h331v-54h-332
q2 -55 16.5 -109t44.5 -96.5t76 -69t111 -26.5q34 0 64 10t53.5 27.5t38 41.5t19.5 52h72q-4 -41 -24 -74.5t-53 -58.5t-77.5 -38.5t-95.5 -13.5z" />
    <glyph glyph-name="afii10054" unicode="&#x405;" horiz-adv-x="617" 
d="M301 -9q-50 0 -92 11t-73.5 35t-51.5 61.5t-25 89.5h68q1 -39 16 -66t39 -44t55.5 -24.5t66.5 -7.5q33 0 66.5 7.5t60.5 24t44 43.5t17 65q0 29 -11.5 51t-32 39t-49 30t-63.5 24l-53 17q-44 14 -81 30t-64 38t-42.5 52.5t-15.5 72.5q0 51 20.5 87t54 59.5t76.5 34.5
t88 11q41 0 81.5 -8.5t72 -28t51.5 -52t21 -80.5h-67q-3 33 -16.5 55t-34.5 35.5t-48 19t-57 5.5q-31 0 -62.5 -7.5t-56.5 -23t-41 -41t-16 -61.5q0 -53 40.5 -84.5t124.5 -58.5l60 -19q44 -14 78.5 -29.5t58.5 -36.5t37 -50t13 -70q0 -54 -22 -93t-58 -64t-82.5 -37
t-94.5 -12z" />
    <glyph glyph-name="afii10055" unicode="&#x406;" horiz-adv-x="275" 
d="M105 723h65v-723h-65v723z" />
    <glyph glyph-name="afii10056" unicode="&#x407;" horiz-adv-x="275" 
d="M105 723h65v-723h-65v723zM187 816v76h73v-76h-73zM16 816v76h73v-76h-73z" />
    <glyph glyph-name="afii10057" unicode="&#x408;" horiz-adv-x="494" 
d="M199 -8q-38 0 -72 11t-60.5 32t-42 52t-15.5 72v8t1 8h66q0 -3 -0.5 -6t-0.5 -6q0 -27 10 -49t27 -37t40.5 -23t49.5 -8q39 0 65.5 13t42.5 36t23 53.5t7 65.5v509h65v-513q0 -37 -5.5 -73.5t-27.5 -67.5q-30 -42 -76.5 -59.5t-96.5 -17.5z" />
    <glyph glyph-name="afii10058" unicode="&#x409;" horiz-adv-x="1076" 
d="M52 -4q-4 0 -11.5 0.5t-15 1.5t-13.5 2.5t-9 2.5v53q1 -1 6 -1.5t11 -1t11 -0.5h7q48 0 79 33.5t49.5 111.5t25.5 206.5t7 318.5h429v-319h176q110 0 172.5 -53t62.5 -149q0 -97 -62 -149.5t-173 -52.5h-241v669h-301q0 -167 -6 -292.5t-27.5 -210.5t-63.5 -127.5
t-113 -42.5zM786 54q94 0 138.5 37t44.5 110q0 72 -45.5 110.5t-137.5 38.5h-158v-296h158z" />
    <glyph glyph-name="afii10059" unicode="&#x40a;" horiz-adv-x="1085" 
d="M105 723h65v-319h402v319h65v-319h176q110 0 172.5 -53t62.5 -149q0 -97 -62 -149.5t-173 -52.5h-241v350h-402v-350h-65v723zM795 54q94 0 138.5 37t44.5 110q0 72 -45.5 110.5t-137.5 38.5h-158v-296h158z" />
    <glyph glyph-name="afii10060" unicode="&#x40b;" horiz-adv-x="817" 
d="M240 669h-231v54h528v-54h-232v-257q7 2 29.5 6.5t51.5 9t61 8t60 3.5q51 0 92.5 -10t71.5 -36.5t46.5 -73t16.5 -119.5v-200h-65v211q0 54 -14.5 88t-37.5 53.5t-53 27t-60 7.5q-21 0 -49 -2.5t-56 -6.5t-53 -8.5t-41 -7.5v-362h-65v669z" />
    <glyph glyph-name="afii10061" unicode="&#x40c;" horiz-adv-x="621" 
d="M105 723h65v-723h-65v723zM174 382l322 341h87l-331 -336l365 -387h-89zM326 777h-44l90 144h80z" />
    <glyph glyph-name="uni040D" unicode="&#x40d;" horiz-adv-x="754" 
d="M105 723h65v-632l397 632h82v-723h-65v643l-405 -643h-74v723zM361 777l-126 144h80l90 -144h-44z" />
    <glyph glyph-name="afii10062" unicode="&#x40e;" horiz-adv-x="630" 
d="M283 197l-278 526h77l238 -457l249 457h66l-386 -723h-73zM326 785q-60 0 -90 29.5t-30 78.5h39q5 -26 21 -43t60 -17t60 17t21 43h39q0 -49 -30 -78.5t-90 -29.5z" />
    <glyph glyph-name="afii10145" unicode="&#x40f;" horiz-adv-x="733" 
d="M343 0h-238v723h65v-669h393v669h65v-723h-222v-161h-63v161z" />
    <glyph glyph-name="afii10017" unicode="&#x410;" horiz-adv-x="693" 
d="M306 723h69l307 -723h-76l-82 202h-366l-78 -202h-69zM501 256l-165 404l-157 -404h322z" />
    <glyph glyph-name="afii10018" unicode="&#x411;" horiz-adv-x="656" 
d="M105 723h428v-54h-363v-263h187q115 0 175 -51.5t60 -151.5q0 -203 -235 -203h-252v723zM339 54q94 0 138.5 38.5t44.5 111.5q0 72 -45.5 110t-137.5 38h-169v-298h169z" />
    <glyph glyph-name="afii10019" unicode="&#x412;" horiz-adv-x="656" 
d="M105 723h199q31 0 63.5 -1t62.5 -9q59 -17 95.5 -61.5t36.5 -107.5q0 -68 -35.5 -108.5t-98.5 -57.5q75 -10 119.5 -54.5t44.5 -122.5q0 -62 -26 -101.5t-67.5 -61.5t-92.5 -30t-102 -8h-199v723zM298 58q39 0 79.5 3t72.5 17.5t52.5 43.5t20.5 80q0 45 -15 73.5t-41 45
t-60 22.5t-71 6h-166v-291h128zM324 401q34 0 65 7t53.5 23.5t36 42.5t13.5 65q0 34 -12 58t-32 39t-47.5 22t-57.5 7h-173v-264h154z" />
    <glyph glyph-name="afii10020" unicode="&#x413;" horiz-adv-x="522" 
d="M105 723h408v-54h-343v-669h-65v723z" />
    <glyph glyph-name="afii10021" unicode="&#x414;" horiz-adv-x="750" 
d="M10 54h60q38 52 63.5 112t40.5 139t21.5 181t6.5 237h426v-669h86v-215h-61v161h-582v-161h-61v215zM563 54v615h-300q0 -118 -6.5 -212.5t-21 -169t-37 -132t-53.5 -101.5h418z" />
    <glyph glyph-name="afii10022" unicode="&#x415;" horiz-adv-x="602" 
d="M105 723h429v-54h-364v-266h350v-54h-350v-295h379v-54h-444v723z" />
    <glyph glyph-name="afii10024" unicode="&#x416;" horiz-adv-x="945" 
d="M354 386l-319 337h82l320 -342l-343 -381h-89zM440 723h65v-723h-65v723zM508 381l320 342h82l-319 -337l349 -386h-89z" />
    <glyph glyph-name="afii10025" unicode="&#x417;" horiz-adv-x="618" 
d="M293 -11q-50 0 -94 11.5t-77 35.5t-53 61.5t-22 90.5h70q5 -72 51 -107t125 -35q41 0 75 11.5t58.5 32.5t38 49.5t13.5 63.5q0 32 -12.5 58.5t-34.5 46t-53 30.5t-67 11h-13t-18 -0.5t-19.5 -1t-16.5 -1.5v58q5 0 14.5 -0.5t19.5 -0.5h18.5h12.5q35 0 63.5 10.5t49 29.5
t31.5 45t11 56q0 60 -44.5 96.5t-115.5 36.5q-32 0 -62.5 -6t-54.5 -21t-40 -41t-19 -66h-66q0 47 19.5 82.5t52.5 59.5t76 36t91 12q113 0 173 -50.5t60 -139.5q0 -26 -8.5 -51.5t-25 -47t-40.5 -37.5t-55 -23v-2q33 -6 59.5 -22.5t45 -41t28 -56t9.5 -66.5
q0 -47 -18.5 -85t-52 -65t-80 -42t-103.5 -15z" />
    <glyph glyph-name="afii10026" unicode="&#x418;" horiz-adv-x="754" 
d="M105 723h65v-632l397 632h82v-723h-65v643l-405 -643h-74v723z" />
    <glyph glyph-name="afii10027" unicode="&#x419;" horiz-adv-x="754" 
d="M105 723h65v-632l397 632h82v-723h-65v643l-405 -643h-74v723zM379 785q-60 0 -90 29.5t-30 78.5h39q5 -26 21 -43t60 -17t60 17t21 43h39q0 -49 -30 -78.5t-90 -29.5z" />
    <glyph glyph-name="afii10028" unicode="&#x41a;" horiz-adv-x="621" 
d="M105 723h65v-723h-65v723zM174 382l322 341h87l-331 -336l365 -387h-89z" />
    <glyph glyph-name="afii10029" unicode="&#x41b;" horiz-adv-x="733" 
d="M52 -4q-4 0 -11.5 0.5t-15 1.5t-13.5 2.5t-9 2.5v53q1 -1 6 -1.5t11 -1t11 -0.5h7q48 0 79 33.5t49.5 111.5t25.5 206.5t7 318.5h429v-723h-65v669h-301q0 -167 -6 -292.5t-27.5 -210.5t-63.5 -127.5t-113 -42.5z" />
    <glyph glyph-name="afii10030" unicode="&#x41c;" horiz-adv-x="944" 
d="M105 723h107l261 -645l259 645h107v-723h-64v669l-272 -669h-64l-273 669v-669h-61v723z" />
    <glyph glyph-name="afii10031" unicode="&#x41d;" horiz-adv-x="742" 
d="M105 723h65v-324h402v324h65v-723h-65v345h-402v-345h-65v723z" />
    <glyph glyph-name="afii10032" unicode="&#x41e;" horiz-adv-x="745" 
d="M372 -11q-84 0 -144 29.5t-98.5 80.5t-56.5 119t-18 145q0 75 19 142.5t58 118.5t98.5 81.5t141.5 30.5q85 0 145.5 -28t98.5 -77t56 -116.5t18 -145.5q0 -77 -18 -145.5t-56 -121t-98.5 -83t-145.5 -30.5zM372 44q68 0 115 27.5t76 72.5t42 102.5t13 116.5
q0 61 -12 118.5t-40.5 101.5t-76 71t-117.5 27q-68 0 -114.5 -28t-75.5 -73t-42 -102t-13 -115q0 -59 13 -116t42 -102t75.5 -73t114.5 -28z" />
    <glyph glyph-name="afii10033" unicode="&#x41f;" horiz-adv-x="733" 
d="M105 723h523v-723h-65v669h-393v-669h-65v723z" />
    <glyph glyph-name="afii10034" unicode="&#x420;" horiz-adv-x="602" 
d="M105 723h203q118 0 176 -37q44 -28 62.5 -68.5t18.5 -95.5q0 -66 -35 -114t-98 -69q-32 -11 -69.5 -14t-75.5 -3h-117v-322h-65v723zM278 376q29 0 66.5 2.5t65.5 12.5q42 15 63.5 54.5t21.5 82.5q0 45 -14.5 72.5t-40 43t-59 20.5t-70.5 5h-141v-293h108z" />
    <glyph glyph-name="afii10035" unicode="&#x421;" horiz-adv-x="664" 
d="M361 -10q-82 0 -140 29t-95 79t-54 116.5t-17 140.5q0 76 19 144.5t58 120.5t97.5 83t137.5 31q39 0 79 -9t73 -30.5t56 -57t29 -87.5h-70q-3 33 -18.5 57t-38.5 39.5t-52 23t-59 7.5q-65 0 -110.5 -28t-74.5 -73t-42.5 -101t-13.5 -112q0 -58 11.5 -114.5t39.5 -101.5
t73.5 -72.5t113.5 -27.5q29 0 58 8.5t53 25t40 41t21 56.5h72q-17 -91 -83.5 -139.5t-162.5 -48.5z" />
    <glyph glyph-name="afii10036" unicode="&#x422;" horiz-adv-x="546" 
d="M240 669h-231v54h528v-54h-232v-669h-65v669z" />
    <glyph glyph-name="afii10037" unicode="&#x423;" horiz-adv-x="630" 
d="M283 197l-278 526h77l238 -457l249 457h66l-386 -723h-73z" />
    <glyph glyph-name="afii10038" unicode="&#x424;" horiz-adv-x="795" 
d="M365 69q-74 1 -133.5 23t-101.5 62t-64.5 95t-22.5 122q0 72 24 126t67 90.5t102 55.5t129 20v68h65v-68q70 -1 129 -20t102 -55.5t67 -90.5t24 -126q0 -67 -23 -122t-65 -95t-101.5 -62t-132.5 -23v-78h-65v78zM365 609q-124 -2 -186.5 -63.5t-62.5 -175.5
q0 -116 65.5 -180t183.5 -66v485zM430 124q118 2 183.5 66t65.5 180q0 114 -62.5 175.5t-186.5 63.5v-485z" />
    <glyph glyph-name="afii10039" unicode="&#x425;" horiz-adv-x="638" 
d="M276 376l-253 347h82l212 -306l210 306h74l-245 -348l268 -375h-79l-231 329l-226 -329h-74z" />
    <glyph glyph-name="afii10040" unicode="&#x426;" horiz-adv-x="744" 
d="M647 0h-542v723h65v-669h393v669h65v-669h80v-215h-61v161z" />
    <glyph glyph-name="afii10041" unicode="&#x427;" horiz-adv-x="673" 
d="M503 320q-57 -13 -104 -21t-89 -8q-62 0 -106.5 12t-73.5 41t-42.5 77t-13.5 120v182h65v-193q0 -53 10 -88.5t31 -57t54 -30.5t79 -9q40 0 86.5 7.5t103.5 21.5v349h65v-723h-65v320z" />
    <glyph glyph-name="afii10042" unicode="&#x428;" horiz-adv-x="1077" 
d="M105 723h65v-669h336v669h65v-669h336v669h65v-723h-867v723z" />
    <glyph glyph-name="afii10043" unicode="&#x429;" horiz-adv-x="1088" 
d="M991 0h-886v723h65v-669h336v669h65v-669h336v669h65v-669h80v-215h-61v161z" />
    <glyph glyph-name="afii10044" unicode="&#x42a;" horiz-adv-x="688" 
d="M175 669h-166v54h231v-319h176q110 0 172.5 -53t62.5 -149q0 -97 -62 -149.5t-173 -52.5h-241v669zM398 54q94 0 138.5 37t44.5 110q0 72 -45.5 110.5t-137.5 38.5h-158v-296h158z" />
    <glyph glyph-name="afii10045" unicode="&#x42b;" horiz-adv-x="872" 
d="M105 723h65v-319h176q110 0 172.5 -53t62.5 -149q0 -97 -62 -149.5t-173 -52.5h-241v723zM328 54q94 0 138.5 37t44.5 110q0 72 -45.5 110.5t-137.5 38.5h-158v-296h158zM702 723h65v-723h-65v723z" />
    <glyph glyph-name="afii10046" unicode="&#x42c;" horiz-adv-x="618" 
d="M105 723h65v-319h176q110 0 172.5 -53t62.5 -149q0 -97 -62 -149.5t-173 -52.5h-241v723zM328 54q94 0 138.5 37t44.5 110q0 72 -45.5 110.5t-137.5 38.5h-158v-296h158z" />
    <glyph glyph-name="afii10047" unicode="&#x42d;" horiz-adv-x="672" 
d="M296 -10q-50 0 -93 13.5t-75.5 38.5t-52.5 58.5t-24 74.5h72q4 -28 19 -52t38.5 -41.5t53 -27.5t64.5 -10q65 0 111 26.5t76 69t44.5 96.5t16.5 109h-332v54h331q-4 54 -18 105t-42 90.5t-71.5 64t-106.5 24.5q-36 0 -67.5 -9.5t-55 -27t-38 -41.5t-17.5 -52h-70
q4 51 29 86t62 56.5t80.5 31t84.5 9.5q73 0 129.5 -25.5t95 -74t58 -118t19.5 -157.5q0 -75 -19 -142t-58 -118t-99.5 -81t-144.5 -30z" />
    <glyph glyph-name="afii10048" unicode="&#x42e;" horiz-adv-x="970" 
d="M607 -10q-70 0 -126 24.5t-95.5 70t-61.5 111.5t-24 149h-130v-345h-65v723h65v-324h131q4 77 28 139t64 106t94.5 68t119.5 24q147 0 227.5 -95t80.5 -272q0 -88 -21 -158.5t-60.5 -119.5t-97 -75t-129.5 -26zM607 45q55 0 98.5 22.5t74 64t47 100.5t16.5 131
q0 152 -61.5 235t-174.5 83q-54 0 -97.5 -22.5t-74 -64t-47 -100.5t-16.5 -131t16.5 -131t47 -100.5t74 -64t97.5 -22.5z" />
    <glyph glyph-name="afii10049" unicode="&#x42f;" horiz-adv-x="650" 
d="M253 311q-90 17 -134 68.5t-44 132.5q0 46 13 84.5t43 66.5t79 44t122 16h213v-723h-65v302h-153l-222 -302h-84zM480 356v313h-151q-100 0 -142 -38.5t-42 -112.5q0 -50 17.5 -81.5t47.5 -49.5t69 -24.5t83 -6.5h118z" />
    <glyph glyph-name="afii10065" unicode="&#x430;" horiz-adv-x="536" 
d="M226 -11q-35 0 -66.5 9t-56 27t-39 46t-14.5 66q0 40 14.5 68t39 46.5t56 29t66.5 15.5t70 6t66 1h26q1 9 1 17.5v17.5q0 65 -28 97.5t-95 32.5q-49 0 -80 -19.5t-37 -73.5h-60q0 38 15.5 64.5t40 43t56.5 24t65 7.5q94 0 138.5 -41.5t44.5 -135.5v-150q0 -48 2.5 -93.5
t7.5 -93.5h-56q-2 18 -4 36.5t-4 36.5q-32 -48 -72 -66t-97 -18zM237 33q54 0 84.5 19.5t46 51.5t19 72t3.5 82q-13 1 -25 1.5t-25 0.5q-32 0 -71.5 -2.5t-74 -14.5t-58.5 -36.5t-24 -67.5q0 -26 10.5 -46t28 -33.5t40 -20t46.5 -6.5z" />
    <glyph glyph-name="afii10066" unicode="&#x431;" horiz-adv-x="577" 
d="M295 -10q-65 0 -116 27.5t-82 83.5q-20 36 -28.5 81.5t-8.5 104.5q0 113 16 194t61 132q21 24 45 38t49.5 22t52.5 12t54 7q45 5 78 11t36 20h64q-3 -23 -12.5 -37t-27 -23t-42.5 -14.5t-60 -9.5q-31 -4 -59 -7t-53 -9.5t-47.5 -18.5t-42.5 -33q-16 -17 -27.5 -40
t-19 -47.5t-11 -49t-4.5 -43.5q33 63 82.5 93t112.5 30q54 0 95.5 -20.5t70 -56t43 -82t14.5 -98.5q0 -58 -16.5 -107t-46.5 -84.5t-73 -55.5t-97 -20zM295 39q38 0 69 16t52.5 45t33.5 69.5t12 89.5q0 47 -11.5 85t-33.5 65t-52.5 41.5t-68.5 14.5q-78 0 -124 -56t-46 -153
q0 -101 45 -159t124 -58z" />
    <glyph glyph-name="afii10067" unicode="&#x432;" horiz-adv-x="542" 
d="M87 505h227q71 0 112 -32.5t41 -87.5q0 -42 -23.5 -75t-64.5 -44v-1q26 -4 46.5 -15.5t35 -28.5t22 -37.5t7.5 -42.5q0 -31 -11.5 -57t-31.5 -44.5t-48 -29t-62 -10.5h-250v505zM307 47q57 0 87.5 24t30.5 69q0 46 -31.5 71.5t-92.5 25.5h-153v-190h159zM291 284
q57 0 84 22.5t27 64.5q0 41 -26.5 64t-77.5 23h-150v-174h143z" />
    <glyph glyph-name="afii10068" unicode="&#x433;" horiz-adv-x="428" 
d="M87 505h327v-50h-266v-455h-61v505z" />
    <glyph glyph-name="afii10069" unicode="&#x434;" horiz-adv-x="581" 
d="M10 50h53q31 43 49 86.5t27 96t11 118.5t2 154h335v-455h71v-191h-57v141h-434v-141h-57v191zM426 50v405h-216q0 -60 -2.5 -117t-11 -109.5t-24 -97.5t-41.5 -81h295z" />
    <glyph glyph-name="afii10070" unicode="&#x435;" horiz-adv-x="532" 
d="M271 -11q-58 0 -100 20t-69 54.5t-40 81t-13 99.5q0 54 13.5 103t42 86t71.5 58.5t103 21.5t99.5 -23t63 -61t32.5 -86.5t9 -99.5h-372v-12q0 -38 10.5 -73.5t31.5 -62.5t52.5 -43t73.5 -16q60 0 96.5 33.5t46.5 90.5h58q-16 -85 -69.5 -128t-139.5 -43zM421 288v10
q0 33 -9.5 63.5t-27.5 54t-45.5 37t-63.5 13.5q-38 0 -67 -15t-49 -39.5t-31.5 -57t-14.5 -66.5h308z" />
    <glyph glyph-name="afii10072" unicode="&#x436;" horiz-adv-x="739" 
d="M263 261l-234 244h77l231 -245l-249 -260h-79zM339 505h61v-505h-61v505zM402 260l231 245h77l-234 -244l254 -261h-79z" />
    <glyph glyph-name="afii10073" unicode="&#x437;" horiz-adv-x="495" 
d="M243 -11q-100 0 -150 43.5t-51 126.5h61q3 -56 35.5 -89t104.5 -33q60 0 95 28t35 75q0 51 -32 74t-99 23q-10 0 -24 -0.5t-19 -1.5v50q8 -1 17 -1.5t20 -0.5q60 0 94 28t34 71q0 37 -29.5 63t-86.5 26q-61 0 -95.5 -26t-42.5 -76h-57q8 78 56.5 114t138.5 36
q82 0 129 -34.5t47 -95.5q0 -46 -27.5 -79.5t-74.5 -44.5v-1q50 -6 83 -36t33 -81q0 -75 -53 -116.5t-142 -41.5z" />
    <glyph glyph-name="afii10074" unicode="&#x438;" horiz-adv-x="590" 
d="M87 505h61v-423l285 423h70v-505h-61v423l-285 -423h-70v505z" />
    <glyph glyph-name="afii10075" unicode="&#x439;" horiz-adv-x="590" 
d="M87 505h61v-423l285 423h70v-505h-61v423l-285 -423h-70v505zM297 599q-60 0 -90 29.5t-30 78.5h39q5 -26 21 -43t60 -17t60 17t21 43h39q0 -49 -30 -78.5t-90 -29.5z" />
    <glyph glyph-name="afii10076" unicode="&#x43a;" horiz-adv-x="500" 
d="M90 505h61v-505h-61v505zM152 260l242 245h77l-240 -243l260 -262h-77z" />
    <glyph glyph-name="afii10077" unicode="&#x43b;" horiz-adv-x="581" 
d="M50 -4q-7 0 -20.5 1t-21.5 3v53q6 -1 17 -1.5t16 -0.5q25 0 47 19.5t39 70t27 138.5t10 226h330v-505h-61v455h-212q0 -108 -8.5 -184.5t-22 -127.5t-31.5 -80.5t-37 -44t-38 -18.5t-34 -4z" />
    <glyph glyph-name="afii10078" unicode="&#x43c;" horiz-adv-x="711" 
d="M87 505h102l167 -451l166 451h102v-505h-61v453l-172 -453h-70l-173 453v-453h-61v505z" />
    <glyph glyph-name="afii10079" unicode="&#x43d;" horiz-adv-x="576" 
d="M87 505h61v-220h280v220h61v-505h-61v235h-280v-235h-61v505z" />
    <glyph glyph-name="afii10080" unicode="&#x43e;" horiz-adv-x="571" 
d="M286 -11q-59 0 -103.5 21t-74 57t-44.5 84.5t-15 104.5q0 55 15.5 102t45.5 82t74 55t102 20t102.5 -19.5t74 -54.5t44.5 -82.5t15 -102.5q0 -53 -15.5 -101.5t-45.5 -85.5t-74 -58.5t-101 -21.5zM286 39q45 0 77.5 19.5t53 50t30.5 69.5t10 78q0 40 -9.5 78t-30.5 67
t-53.5 46.5t-77.5 17.5t-77.5 -17.5t-53.5 -46.5t-31 -66.5t-10 -78.5q0 -40 9.5 -79t30.5 -69.5t53.5 -49.5t78.5 -19z" />
    <glyph glyph-name="afii10081" unicode="&#x43f;" horiz-adv-x="570" 
d="M87 505h396v-505h-61v455h-274v-455h-61v505z" />
    <glyph glyph-name="afii10082" unicode="&#x440;" horiz-adv-x="581" 
d="M87 354q0 38 -1 75.5t-3 75.5h62l3 -94q29 54 71 78.5t103 24.5q55 0 94.5 -21t65 -56.5t38 -81.5t12.5 -95q0 -51 -13.5 -99t-41.5 -85.5t-69.5 -60.5t-97.5 -23q-58 0 -94 22.5t-68 69.5v-274h-61v544zM302 41q45 0 76.5 18t51 48t28.5 68t9 78q0 37 -7.5 74.5
t-25 68.5t-47 50.5t-73.5 19.5q-45 0 -77 -19t-51.5 -49.5t-28.5 -69t-9 -77.5q0 -38 7.5 -75.5t25.5 -67.5t47.5 -48.5t73.5 -18.5z" />
    <glyph glyph-name="afii10083" unicode="&#x441;" horiz-adv-x="522" 
d="M285 -11q-59 0 -103 19.5t-73.5 54t-44.5 81.5t-15 103q0 57 15 106.5t45 86t75 58t106 21.5q83 0 135 -43t59 -128h-59q-5 59 -40 91t-94 32q-49 0 -82.5 -18.5t-54.5 -49t-30.5 -70.5t-9.5 -83q0 -40 10 -78.5t31 -68.5t53.5 -48t77.5 -18q58 0 97 33.5t44 92.5h57
q-8 -85 -61.5 -129.5t-137.5 -44.5z" />
    <glyph glyph-name="afii10084" unicode="&#x442;" horiz-adv-x="463" 
d="M201 455h-187v50h435v-50h-187v-455h-61v455z" />
    <glyph glyph-name="afii10085" unicode="&#x443;" horiz-adv-x="507" 
d="M231 3l-212 502h73l169 -423l168 423h61l-277 -695h-62z" />
    <glyph glyph-name="afii10086" unicode="&#x444;" horiz-adv-x="771" 
d="M355 43q-15 -18 -45.5 -34.5t-71.5 -16.5q-45 0 -79.5 19t-58 53t-35.5 82t-12 105q0 59 11.5 107.5t34.5 83t57.5 53t80.5 18.5q38 0 69.5 -16t48.5 -36v262h61v-262q17 20 48.5 36t69.5 16q46 0 81 -18.5t57.5 -53t34 -83t11.5 -107.5q0 -57 -12 -105t-35.5 -82
t-58 -53t-79.5 -19q-42 0 -71.5 16.5t-45.5 34.5v-234h-61v234zM251 41q32 0 61.5 18t42.5 37v315q-14 22 -41.5 37t-57.5 15q-74 0 -106 -55.5t-32 -154.5t32 -155.5t101 -56.5zM519 41q70 0 102 56.5t32 155.5t-32 154.5t-106 55.5q-30 0 -57.5 -15t-41.5 -37v-315
q6 -9 17.5 -19t25 -18t29.5 -13t31 -5z" />
    <glyph glyph-name="afii10087" unicode="&#x445;" horiz-adv-x="506" 
d="M215 258l-185 247h76l150 -208l153 208h69l-187 -247l196 -258h-79l-159 220l-161 -220h-69z" />
    <glyph glyph-name="afii10088" unicode="&#x446;" horiz-adv-x="581" 
d="M501 0h-414v505h61v-455h274v455h61v-455h75v-191h-57v141z" />
    <glyph glyph-name="afii10089" unicode="&#x447;" horiz-adv-x="526" 
d="M378 210q-13 -6 -32 -11t-39.5 -8t-41 -5t-36.5 -2q-85 0 -130 35t-45 123v163h61v-171q0 -60 30.5 -80t93.5 -20q15 0 34.5 2t38.5 5t36.5 7.5t29.5 10.5v246h61v-505h-61v210z" />
    <glyph glyph-name="afii10090" unicode="&#x448;" horiz-adv-x="825" 
d="M87 505h61v-455h234v455h61v-455h234v455h61v-505h-651v505z" />
    <glyph glyph-name="afii10091" unicode="&#x449;" horiz-adv-x="833" 
d="M753 0h-666v505h61v-455h234v455h61v-455h234v455h61v-455h72v-191h-57v141z" />
    <glyph glyph-name="afii10092" unicode="&#x44a;" horiz-adv-x="567" 
d="M144 455h-134v50h195v-197h159q77 0 122 -38t45 -112q0 -72 -43 -115t-118 -43h-226v455zM349 50q54 0 85.5 28.5t31.5 76.5q0 50 -31 76.5t-92 26.5h-138v-208h144z" />
    <glyph glyph-name="afii10093" unicode="&#x44b;" horiz-adv-x="696" 
d="M87 505h61v-197h149q77 0 122 -38t45 -112q0 -72 -43 -115t-118 -43h-216v505zM282 50q54 0 85.5 28.5t31.5 76.5q0 50 -31 76.5t-92 26.5h-128v-208h134zM548 505h61v-505h-61v505z" />
    <glyph glyph-name="afii10094" unicode="&#x44c;" horiz-adv-x="510" 
d="M87 505h61v-197h159q77 0 122 -38t45 -112q0 -72 -43 -115t-118 -43h-226v505zM292 50q54 0 85.5 28.5t31.5 76.5q0 50 -31 76.5t-92 26.5h-138v-208h144z" />
    <glyph glyph-name="afii10095" unicode="&#x44d;" horiz-adv-x="524" 
d="M238 -11q-79 0 -134 41.5t-65 126.5h60q1 -26 12.5 -47.5t30.5 -38t43.5 -25.5t51.5 -9q36 0 66.5 13.5t53 39t36.5 62.5t17 83h-221v50h219q-8 85 -51 135.5t-120 50.5q-60 0 -96.5 -31.5t-41.5 -89.5h-59q7 87 62 128t141 41q51 0 94 -19t73.5 -54.5t47.5 -86
t17 -112.5q0 -56 -15.5 -103t-45.5 -81.5t-74.5 -54t-101.5 -19.5z" />
    <glyph glyph-name="afii10096" unicode="&#x44e;" horiz-adv-x="755" 
d="M480 -10q-50 0 -90.5 17.5t-69.5 49.5t-46.5 77t-20.5 101h-105v-235h-61v505h61v-220h106q4 52 22 94.5t47.5 72.5t69.5 46.5t87 16.5q50 0 91.5 -18t71.5 -51.5t46.5 -81.5t16.5 -108q0 -57 -16.5 -106t-46.5 -84.5t-71.5 -55.5t-91.5 -20zM480 40q35 0 64.5 16t51 45
t33.5 68.5t12 86.5q0 48 -11.5 86.5t-33 66t-51 42t-65.5 14.5t-66 -15t-51.5 -42.5t-33 -66t-11.5 -85.5q0 -49 12 -88.5t33.5 -68t51 -44t65.5 -15.5z" />
    <glyph glyph-name="afii10097" unicode="&#x44f;" horiz-adv-x="533" 
d="M188 214q-60 8 -97 44.5t-37 99.5q0 67 44.5 107t117.5 40h230v-505h-61v213h-126l-157 -213h-76zM385 261v194h-155q-52 0 -81.5 -28t-29.5 -69q0 -46 29.5 -71.5t87.5 -25.5h149z" />
    <glyph glyph-name="uni0450" unicode="&#x450;" horiz-adv-x="532" 
d="M271 -11q-58 0 -100 20t-69 54.5t-40 81t-13 99.5q0 54 13.5 103t42 86t71.5 58.5t103 21.5t99.5 -23t63 -61t32.5 -86.5t9 -99.5h-372v-12q0 -38 10.5 -73.5t31.5 -62.5t52.5 -43t73.5 -16q60 0 96.5 33.5t46.5 90.5h58q-16 -85 -69.5 -128t-139.5 -43zM421 288v10
q0 33 -9.5 63.5t-27.5 54t-45.5 37t-63.5 13.5q-38 0 -67 -15t-49 -39.5t-31.5 -57t-14.5 -66.5h308zM284 592l-126 144h80l90 -144h-44z" />
    <glyph glyph-name="afii10071" unicode="&#x451;" horiz-adv-x="532" 
d="M271 -11q-58 0 -100 20t-69 54.5t-40 81t-13 99.5q0 54 13.5 103t42 86t71.5 58.5t103 21.5t99.5 -23t63 -61t32.5 -86.5t9 -99.5h-372v-12q0 -38 10.5 -73.5t31.5 -62.5t52.5 -43t73.5 -16q60 0 96.5 33.5t46.5 90.5h58q-16 -85 -69.5 -128t-139.5 -43zM421 288v10
q0 33 -9.5 63.5t-27.5 54t-45.5 37t-63.5 13.5q-38 0 -67 -15t-49 -39.5t-31.5 -57t-14.5 -66.5h308zM322 647v76h73v-76h-73zM151 647v76h73v-76h-73z" />
    <glyph glyph-name="afii10099" unicode="&#x452;" horiz-adv-x="574" 
d="M312 -197q-14 0 -31 0.5t-32 2.5v47q8 -1 16.5 -1.5t18.5 -0.5q79 0 112 51t33 148v230q0 35 -3.5 66.5t-16.5 55.5t-38.5 38t-68.5 14t-72.5 -15.5t-47.5 -42t-26 -61t-8 -71.5v-264h-61v596h-94v45h94v82h61v-82h183v-45h-183v-180q30 45 70 67t94 22q52 0 86 -13.5
t54.5 -39.5t29 -63t8.5 -85v-253q0 -39 -7.5 -82.5t-27 -80t-54 -61t-89.5 -24.5z" />
    <glyph glyph-name="afii10100" unicode="&#x453;" horiz-adv-x="428" 
d="M87 505h327v-50h-266v-455h-61v505zM223 592h-44l90 144h80z" />
    <glyph glyph-name="afii10101" unicode="&#x454;" horiz-adv-x="524" 
d="M286 -11q-57 0 -101.5 19.5t-74.5 54t-45.5 81.5t-15.5 103q0 62 17 112.5t47.5 86t73.5 54.5t94 19q86 0 141 -41t62 -128h-59q-5 58 -41.5 89.5t-96.5 31.5q-77 0 -120 -50.5t-51 -135.5h219v-50h-221q3 -46 17 -83t36.5 -62.5t53 -39t66.5 -13.5q27 0 51.5 9
t43.5 25.5t30 38t13 47.5h60q-10 -85 -65 -126.5t-134 -41.5z" />
    <glyph glyph-name="afii10102" unicode="&#x455;" horiz-adv-x="480" 
d="M235 -10q-39 0 -72.5 9t-57.5 28.5t-38 49t-14 71.5h60q0 -57 34.5 -84.5t90.5 -27.5q22 0 45 6t41.5 18t30.5 30.5t12 44.5q0 40 -31 60t-81 34l-53 15q-29 8 -54 19t-43.5 26.5t-29 36.5t-10.5 51q0 37 15.5 63.5t40 43.5t56 25t64.5 8q37 0 68 -8.5t54.5 -26.5t37 -46
t14.5 -67h-61q-3 52 -31.5 75.5t-79.5 23.5q-19 0 -39.5 -4.5t-38 -15t-28.5 -26.5t-11 -39q0 -37 28.5 -56.5t75.5 -32.5l57 -16q72 -20 105.5 -50.5t33.5 -83.5q0 -41 -16.5 -70t-43 -47.5t-61 -27.5t-70.5 -9z" />
    <glyph glyph-name="afii10103" unicode="&#x456;" horiz-adv-x="235" 
d="M87 505h61v-505h-61v505zM81 723h73v-76h-73v76z" />
    <glyph glyph-name="afii10104" unicode="&#x457;" horiz-adv-x="235" 
d="M87 0v505h61v-505h-61zM167 647v76h73v-76h-73zM-4 647v76h73v-76h-73z" />
    <glyph glyph-name="afii10105" unicode="&#x458;" horiz-adv-x="235" 
d="M28 -183q-11 0 -21 0.5t-21 1.5v49q19 -3 39 -3q22 0 34.5 5.5t18.5 16t7.5 25t1.5 33.5v560h61v-576q0 -34 -6 -56t-20.5 -34.5t-37.5 -17t-56 -4.5zM81 723h73v-76h-73v76z" />
    <glyph glyph-name="afii10106" unicode="&#x459;" horiz-adv-x="856" 
d="M638 50q54 0 85.5 28.5t31.5 76.5q0 50 -31 76.5t-92 26.5h-138v-208h144zM494 505v-197h159q77 0 122 -38t45 -112q0 -72 -43 -115t-118 -43h-226v455h-212q0 -108 -8.5 -184.5t-22 -127.5t-31.5 -80.5t-37 -44t-38 -18.5t-34 -4q-7 0 -20.5 1t-21.5 3v53q6 -1 17 -1.5
t16 -0.5q25 0 47 19.5t39 70t27 138.5t10 226h330z" />
    <glyph glyph-name="afii10107" unicode="&#x45a;" horiz-adv-x="851" 
d="M87 505h61v-207h280v207h61v-207h159q77 0 122 -37.5t45 -107.5q0 -69 -43 -111t-118 -42h-226v248h-280v-248h-61v505zM633 50q54 0 85.5 28t31.5 72q0 46 -31 72t-92 26h-138v-198h144z" />
    <glyph glyph-name="afii10108" unicode="&#x45b;" horiz-adv-x="574" 
d="M87 596h-94v45h94v82h61v-82h183v-45h-183v-180q30 45 70 67t94 22q52 0 86 -13.5t54.5 -39.5t29 -63t8.5 -85v-304h-61v280q0 35 -3.5 66.5t-16.5 55.5t-38.5 38t-68.5 14t-72.5 -15.5t-47.5 -42t-26 -61t-8 -71.5v-264h-61v596z" />
    <glyph glyph-name="afii10109" unicode="&#x45c;" horiz-adv-x="500" 
d="M90 505h61v-505h-61v505zM152 260l242 245h77l-240 -243l260 -262h-77zM259 592h-44l90 144h80z" />
    <glyph glyph-name="uni045D" unicode="&#x45d;" horiz-adv-x="590" 
d="M87 505h61v-423l285 423h70v-505h-61v423l-285 -423h-70v505zM306 592l-126 144h80l90 -144h-44z" />
    <glyph glyph-name="afii10110" unicode="&#x45e;" horiz-adv-x="507" 
d="M231 3l-212 502h73l169 -423l168 423h61l-277 -695h-62zM261 599q-60 0 -90 29.5t-30 78.5h39q5 -26 21 -43t60 -17t60 17t21 43h39q0 -49 -30 -78.5t-90 -29.5z" />
    <glyph glyph-name="afii10193" unicode="&#x45f;" horiz-adv-x="570" 
d="M259 0h-172v505h61v-455h274v455h61v-505h-167v-141h-57v141z" />
    <glyph glyph-name="afii10050" unicode="&#x490;" horiz-adv-x="522" 
d="M105 723h345v126h63v-180h-343v-669h-65v723z" />
    <glyph glyph-name="afii10098" unicode="&#x491;" horiz-adv-x="428" 
d="M87 505h271v123h56v-173h-266v-455h-61v505z" />
    <glyph glyph-name="Wgrave" unicode="&#x1e80;" horiz-adv-x="1020" 
d="M811 0h-89l-215 655l-208 -655h-91l-189 723h69l169 -666l212 666h79l221 -666l168 666h64zM525 777l-126 144h80l90 -144h-44z" />
    <glyph glyph-name="wgrave" unicode="&#x1e81;" horiz-adv-x="820" 
d="M617 0h-55l-151 439l-153 -439h-59l-179 505h69l141 -432l150 432h69l145 -427l144 427h62zM422 592l-126 144h80l90 -144h-44z" />
    <glyph glyph-name="Wacute" unicode="&#x1e82;" horiz-adv-x="1020" 
d="M811 0h-89l-215 655l-208 -655h-91l-189 723h69l169 -666l212 666h79l221 -666l168 666h64zM505 777h-44l90 144h80z" />
    <glyph glyph-name="wacute" unicode="&#x1e83;" horiz-adv-x="820" 
d="M617 0h-55l-151 439l-153 -439h-59l-179 505h69l141 -432l150 432h69l145 -427l144 427h62zM401 592h-44l90 144h80z" />
    <glyph glyph-name="Wdieresis" unicode="&#x1e84;" horiz-adv-x="1020" 
d="M811 0h-89l-215 655l-208 -655h-91l-189 723h69l169 -666l212 666h79l221 -666l168 666h64zM556 816v76h73v-76h-73zM385 816v76h73v-76h-73z" />
    <glyph glyph-name="wdieresis" unicode="&#x1e85;" horiz-adv-x="820" 
d="M617 0h-55l-151 439l-153 -439h-59l-179 505h69l141 -432l150 432h69l145 -427l144 427h62zM460 647v76h73v-76h-73zM289 647v76h73v-76h-73z" />
    <glyph glyph-name="Ygrave" unicode="&#x1ef2;" horiz-adv-x="613" 
d="M339 310v-310h-65v312l-280 413h78l238 -355l235 355h74zM321 777l-126 144h80l90 -144h-44z" />
    <glyph glyph-name="ygrave" unicode="&#x1ef3;" horiz-adv-x="507" 
d="M213 -190h-62l80 193l-212 502h73l169 -423l168 423h61zM271 592l-126 144h80l90 -144h-44z" />
    <glyph glyph-name="uni2010" unicode="&#x2010;" horiz-adv-x="329" 
d="M38 241v53h253v-53h-253z" />
    <glyph glyph-name="endash" unicode="&#x2013;" horiz-adv-x="514" 
d="M7 240v42h500v-42h-500z" />
    <glyph glyph-name="emdash" unicode="&#x2014;" horiz-adv-x="1015" 
d="M137 240v42h741v-42h-741z" />
    <glyph glyph-name="afii00208" unicode="&#x2015;" horiz-adv-x="1015" 
d="M137 240v42h741v-42h-741z" />
    <glyph glyph-name="quoteleft" unicode="&#x2018;" horiz-adv-x="293" 
d="M165 517h-82l73 206h54z" />
    <glyph glyph-name="quoteright" unicode="&#x2019;" horiz-adv-x="293" 
d="M137 517h-54l46 206h81z" />
    <glyph glyph-name="quotesinglbase" unicode="&#x201a;" horiz-adv-x="300" 
d="M137 -120h-54l51 206h83z" />
    <glyph glyph-name="quotedblleft" unicode="&#x201c;" horiz-adv-x="489" 
d="M352 517h-84l85 206h53zM166 517h-83l85 206h53z" />
    <glyph glyph-name="quotedblright" unicode="&#x201d;" horiz-adv-x="489" 
d="M321 517h-53l55 206h83zM136 517h-53l54 206h84z" />
    <glyph glyph-name="quotedblbase" unicode="&#x201e;" horiz-adv-x="485" 
d="M323 -120h-55l51 206h83zM137 -120h-54l51 206h83z" />
    <glyph glyph-name="dagger" unicode="&#x2020;" horiz-adv-x="489" 
d="M272 491v-491h-54v491h-176v46h176v185h54v-185h175v-46h-175z" />
    <glyph glyph-name="daggerdbl" unicode="&#x2021;" horiz-adv-x="489" 
d="M274 179v-179h-58v179h-174v46h174v272h-174v46h174v179h58v-179h171v-46h-171v-272h173v-46h-173z" />
    <glyph glyph-name="bullet" unicode="&#x2022;" horiz-adv-x="515" 
d="M438 362q0 -37 -14 -70t-38.5 -57.5t-57.5 -39t-70 -14.5q-38 0 -70.5 14t-57.5 39t-39 57.5t-14 70.5q0 37 14.5 70t39 57.5t57.5 38.5t70 14t70 -14t57.5 -38.5t38.5 -57.5t14 -70z" />
    <glyph glyph-name="ellipsis" unicode="&#x2026;" horiz-adv-x="1014" 
d="M800 0v86h80v-86h-80zM467 0v86h80v-86h-80zM134 0v86h80v-86h-80z" />
    <glyph glyph-name="perthousand" unicode="&#x2030;" horiz-adv-x="1015" 
d="M979 152q0 -33 -9.5 -63t-28 -53t-45.5 -37t-62 -14q-34 0 -60.5 12.5t-44.5 33.5t-27.5 49.5t-9.5 60.5q0 34 8.5 64.5t26.5 53.5t45 36t65 13q36 0 62.5 -11.5t44 -32.5t26.5 -49.5t9 -62.5zM323 580q0 -33 -9.5 -63t-28 -53t-45.5 -37t-62 -14q-34 0 -60.5 12.5
t-44.5 33.5t-27.5 49.5t-9.5 60.5q0 34 8.5 64.5t26.5 53.5t45 36t65 13q36 0 62.5 -11.5t44 -32.5t26.5 -49.5t9 -62.5zM143 -25h-58l442 776h56zM633 152q0 -32 -9.5 -62.5t-27.5 -53.5t-45 -37t-62 -14q-34 0 -60.5 12.5t-44.5 33.5t-27.5 49.5t-9.5 60.5q0 34 8.5 64.5
t26.5 53.5t45 36t65 13q35 0 61.5 -12t44 -33t26.5 -49.5t9 -61.5zM919 155q0 20 -4 38.5t-14 33t-25.5 23t-38.5 8.5q-24 0 -40.5 -9.5t-26.5 -25t-14.5 -35.5t-4.5 -41q0 -20 4 -39.5t14 -35t26 -25t39 -9.5q25 0 41.5 10.5t26 27t13.5 37.5t4 42zM263 583q0 20 -4 38.5
t-14 33t-25.5 23t-38.5 8.5q-24 0 -40.5 -9.5t-26.5 -25t-14.5 -35.5t-4.5 -41q0 -20 4 -39.5t14 -35t26 -25t39 -9.5q25 0 41.5 10.5t26 27t13.5 37.5t4 42zM573 155q0 20 -4 38.5t-14 33t-25.5 23t-38.5 8.5q-24 0 -40.5 -9.5t-26 -25t-14 -35.5t-4.5 -41q0 -20 4 -39.5
t14 -35t25.5 -25t39.5 -9.5q25 0 41.5 10.5t26 27t13 37.5t3.5 42z" />
    <glyph glyph-name="guilsinglleft" unicode="&#x2039;" horiz-adv-x="292" 
d="M171 65l-102 197l102 192h51l-90 -197l91 -192h-52z" />
    <glyph glyph-name="guilsinglright" unicode="&#x203a;" horiz-adv-x="292" 
d="M121 65h-51l90 197l-91 192h52l102 -197z" />
    <glyph glyph-name="uni203D" unicode="&#x203d;" horiz-adv-x="485" 
d="M230 367q21 21 43 40t40 40.5t29.5 47.5t11.5 59q0 34 -12 58.5t-33 40t-49 22.5t-59 7q-26 0 -51 -4.5t-51 -11.5v57q26 5 51.5 8t51.5 3q44 0 83.5 -9.5t69.5 -30.5t47.5 -55t17.5 -84q0 -38 -15 -70.5t-38.5 -61t-51 -53.5t-52.5 -49q-18 -17 -27 -31t-9 -40v-81h-54
l-11 372h73zM159 0v86h80v-86h-80z" />
    <glyph glyph-name="fraction" unicode="&#x2044;" horiz-adv-x="182" 
d="M-100 -25h-58l442 776h56z" />
    <glyph glyph-name="uni2070" unicode="&#x2070;" horiz-adv-x="354" 
d="M324 684q0 -45 -8.5 -85t-26.5 -70t-46 -47.5t-67 -17.5q-41 0 -68.5 17.5t-45 47.5t-25 70.5t-7.5 86.5q0 40 8.5 78t27 66.5t46.5 46t67 17.5q40 0 68 -17.5t45 -46.5t24.5 -67t7.5 -79zM276 678q0 79 -23.5 128t-73.5 49q-52 0 -76.5 -49t-24.5 -127t24.5 -126.5
t72.5 -48.5q51 0 76 48t25 126z" />
    <glyph glyph-name="uni2074" unicode="&#x2074;" horiz-adv-x="354" 
d="M269 564v-95h-47v95h-200v45l191 280h56v-286h66v-39h-66zM223 834l-156 -231h156v231z" />
    <glyph glyph-name="uni2075" unicode="&#x2075;" horiz-adv-x="354" 
d="M324 606q0 -63 -39 -102.5t-104 -39.5q-27 0 -51 6.5t-42 20.5t-29 35.5t-12 51.5h51q1 -37 24.5 -56t58.5 -19q48 0 71.5 30.5t23.5 74.5q0 40 -21.5 69.5t-66.5 29.5q-31 0 -54.5 -16.5t-31.5 -48.5h-47l10 247h238v-41h-193l-8 -145q13 19 35.5 31t54.5 12
q64 0 98 -39.5t34 -100.5z" />
    <glyph glyph-name="uni2076" unicode="&#x2076;" horiz-adv-x="354" 
d="M320 604q0 -29 -9.5 -54.5t-27.5 -44.5t-43 -30t-55 -11q-46 0 -74.5 17t-45 45.5t-22.5 65.5t-6 76q0 44 7 85t24 72.5t46 50t73 18.5q32 0 56 -8.5t40 -23.5t24 -34.5t9 -40.5h-50q-5 32 -23 49.5t-56 17.5q-30 0 -50 -15t-31.5 -39t-16.5 -55t-6 -64q13 27 39 44.5
t68 17.5q31 0 55.5 -11t41 -29.5t25 -44t8.5 -54.5zM272 605q0 20 -5 38.5t-15.5 32t-27 21.5t-38.5 8q-47 0 -71 -29t-24 -73q0 -41 24 -70t67 -29q46 0 68 29.5t22 71.5z" />
    <glyph glyph-name="uni2077" unicode="&#x2077;" horiz-adv-x="354" 
d="M144 469h-52l173 377h-230v43h274v-44z" />
    <glyph glyph-name="uni2078" unicode="&#x2078;" horiz-adv-x="354" 
d="M326 588q0 -31 -12.5 -54t-33.5 -38.5t-48 -23.5t-55 -8t-54.5 7t-47.5 21t-33.5 36.5t-12.5 53.5q0 42 23 67.5t60 37.5q-33 11 -54.5 32.5t-21.5 58.5q0 29 12 51t32.5 36.5t46 21.5t52.5 7q25 0 50.5 -7t45.5 -20.5t32.5 -35t12.5 -49.5q0 -38 -21 -60t-56 -34
q36 -10 59.5 -36t23.5 -64zM274 781q0 38 -28.5 56t-66.5 18q-39 0 -68 -18.5t-29 -58.5q0 -20 8 -33.5t21.5 -22t30.5 -12.5t36 -4q18 0 35.5 4.5t31 14t21.5 23.5t8 33zM278 585q0 21 -8.5 37t-22.5 26t-32.5 15t-38.5 5q-41 0 -70 -21t-29 -62q0 -42 28.5 -62t69.5 -20
q20 0 38.5 5t33 15.5t23 26t8.5 35.5z" />
    <glyph glyph-name="uni2079" unicode="&#x2079;" horiz-adv-x="354" 
d="M318 701q0 -51 -7.5 -94.5t-24.5 -75t-45.5 -49.5t-70.5 -18q-56 0 -90.5 28t-39.5 83h49q3 -33 22.5 -51.5t57.5 -18.5q30 0 50 13.5t32 38t17 59.5t6 77q-14 -33 -43 -48.5t-64 -15.5q-60 0 -96 37t-36 95q0 60 39.5 96.5t101.5 36.5q39 0 66.5 -14.5t44 -40t24 -61
t7.5 -77.5zM264 762q0 40 -23.5 67t-64.5 27q-43 0 -68 -27t-25 -68t22 -67t65 -26q44 0 69 25.5t25 68.5z" />
    <glyph glyph-name="uni2080" unicode="&#x2080;" horiz-adv-x="354" 
d="M324 51q0 -45 -8.5 -85t-26.5 -70t-46 -47.5t-67 -17.5q-41 0 -68.5 17.5t-45 47.5t-25 70.5t-7.5 86.5q0 40 8.5 78t27 66.5t46.5 46t67 17.5q40 0 68 -17.5t45 -46.5t24.5 -67t7.5 -79zM276 45q0 79 -23.5 128t-73.5 49q-52 0 -76.5 -49t-24.5 -127t24.5 -126.5
t72.5 -48.5q51 0 76 48t25 126z" />
    <glyph glyph-name="uni2081" unicode="&#x2081;" horiz-adv-x="354" 
d="M171 -164v366q-23 -19 -45.5 -32.5t-49.5 -25.5v46q16 7 29 14t24 14.5t22 16.5t25 21h43v-420h-48z" />
    <glyph glyph-name="uni2082" unicode="&#x2082;" horiz-adv-x="354" 
d="M40 -164v44l90 86q36 35 60.5 60.5t39 45.5t20.5 37.5t6 36.5q0 35 -21 55t-57 20q-40 0 -62 -23.5t-22 -61.5h-50q1 60 38 93t96 33q54 0 91 -28t37 -84q0 -28 -10.5 -53.5t-29.5 -51.5t-46 -53.5t-61 -58.5l-59 -55h213v-42h-273z" />
    <glyph glyph-name="uni2083" unicode="&#x2083;" horiz-adv-x="354" 
d="M317 -49q0 -57 -40.5 -88.5t-104.5 -31.5q-59 0 -97.5 29.5t-40.5 92.5h48q0 -42 27.5 -62t65.5 -20q43 0 68.5 21.5t25.5 61.5q0 21 -7.5 36t-20.5 24.5t-30 14.5t-36 5q-14 0 -27 -3v44q8 -2 14.5 -2h14.5q35 0 60.5 18.5t25.5 56.5q0 39 -25 56.5t-63 17.5t-61 -19.5
t-27 -58.5h-48q2 57 41 87t96 30q28 0 52.5 -7t43 -21t29 -35.5t10.5 -50.5q0 -37 -20 -60t-51 -33q37 -11 57 -36t20 -67z" />
    <glyph glyph-name="uni2084" unicode="&#x2084;" horiz-adv-x="354" 
d="M269 -69v-95h-47v95h-200v45l191 280h56v-286h66v-39h-66zM223 201l-156 -231h156v231z" />
    <glyph glyph-name="uni2085" unicode="&#x2085;" horiz-adv-x="354" 
d="M324 -27q0 -63 -39 -102.5t-104 -39.5q-27 0 -51 6.5t-42 20.5t-29 35.5t-12 51.5h51q1 -37 24.5 -56t58.5 -19q48 0 71.5 30.5t23.5 74.5q0 40 -21.5 69.5t-66.5 29.5q-31 0 -54.5 -16.5t-31.5 -48.5h-47l10 247h238v-41h-193l-8 -145q13 19 35.5 31t54.5 12
q64 0 98 -39.5t34 -100.5z" />
    <glyph glyph-name="uni2086" unicode="&#x2086;" horiz-adv-x="354" 
d="M320 -29q0 -29 -9.5 -54.5t-27.5 -44.5t-43 -30t-55 -11q-46 0 -74.5 17t-45 45.5t-22.5 65.5t-6 76q0 44 7 85t24 72.5t46 50t73 18.5q32 0 56 -8.5t40 -23.5t24 -34.5t9 -40.5h-50q-5 32 -23 49.5t-56 17.5q-30 0 -50 -15t-31.5 -39t-16.5 -55t-6 -64q13 27 39 44.5
t68 17.5q31 0 55.5 -11t41 -29.5t25 -44t8.5 -54.5zM272 -28q0 20 -5 38.5t-15.5 32t-27 21.5t-38.5 8q-47 0 -71 -29t-24 -73q0 -41 24 -70t67 -29q46 0 68 29.5t22 71.5z" />
    <glyph glyph-name="uni2087" unicode="&#x2087;" horiz-adv-x="354" 
d="M144 -164h-52l173 377h-230v43h274v-44z" />
    <glyph glyph-name="uni2088" unicode="&#x2088;" horiz-adv-x="354" 
d="M326 -45q0 -31 -12.5 -54t-33.5 -38.5t-48 -23.5t-55 -8t-54.5 7t-47.5 21t-33.5 36.5t-12.5 53.5q0 42 23 67.5t60 37.5q-33 11 -54.5 32.5t-21.5 58.5q0 29 12 51t32.5 36.5t46 21.5t52.5 7q25 0 50.5 -7t45.5 -20.5t32.5 -35t12.5 -49.5q0 -38 -21 -60t-56 -34
q36 -10 59.5 -36t23.5 -64zM274 148q0 38 -28.5 56t-66.5 18q-39 0 -68 -18.5t-29 -58.5q0 -20 8 -33.5t21.5 -22t30.5 -12.5t36 -4q18 0 35.5 4.5t31 14t21.5 23.5t8 33zM278 -48q0 21 -8.5 37t-22.5 26t-32.5 15t-38.5 5q-41 0 -70 -21t-29 -62q0 -42 28.5 -62t69.5 -20
q20 0 38.5 5t33 15.5t23 26t8.5 35.5z" />
    <glyph glyph-name="uni2089" unicode="&#x2089;" horiz-adv-x="354" 
d="M318 68q0 -51 -7.5 -94.5t-24.5 -75t-45.5 -49.5t-70.5 -18q-56 0 -90.5 28t-39.5 83h49q3 -33 22.5 -51.5t57.5 -18.5q30 0 50 13.5t32 38t17 59.5t6 77q-14 -33 -43 -48.5t-64 -15.5q-60 0 -96 37t-36 95q0 60 39.5 96.5t101.5 36.5q39 0 66.5 -14.5t44 -40t24 -61
t7.5 -77.5zM264 129q0 40 -23.5 67t-64.5 27q-43 0 -68 -27t-25 -68t22 -67t65 -26q44 0 69 25.5t25 68.5z" />
    <glyph glyph-name="Euro" unicode="&#x20ac;" 
d="M179 285q4 -56 16.5 -100.5t36.5 -76.5t59.5 -49t85.5 -17t84 13.5t59 35.5v-65q-26 -17 -60 -27t-86 -10q-66 0 -112.5 20t-77.5 58t-47.5 93t-21.5 125h-88l12 47h74v46v36h-84l12 47h76q6 55 23.5 105t48 88t76 60t107.5 22q34 0 60 -4.5t46 -12t34 -16.5t23 -17
l-15 -56q-18 19 -53 36t-94 17q-46 0 -79.5 -17t-57 -47t-37 -70.5t-18.5 -87.5h293l-12 -47h-285v-36v-22.5t1 -23.5h260l-12 -47h-247z" />
    <glyph glyph-name="afii61248" unicode="&#x2105;" horiz-adv-x="915" 
d="M879 183q0 -37 -9 -71t-28.5 -60.5t-49.5 -42t-71 -15.5q-40 0 -70 15.5t-49.5 42t-29 60.5t-9.5 70t10 70.5t29.5 61.5t49.5 43t70 16q42 0 71.5 -15.5t48.5 -42t28 -61t9 -71.5zM262 -25h-58l442 776h56zM822 184q0 23 -4.5 48t-15.5 46t-30 35t-47 14q-30 0 -50 -13.5
t-32 -34.5t-17 -47t-5 -51q0 -24 5 -49.5t17 -46t31.5 -34t48.5 -13.5t48 14t30.5 35t16 47t4.5 50zM351 489q-4 -66 -46 -98t-102 -32q-84 0 -126 50.5t-42 133.5q0 42 10.5 77t32 61t53.5 40.5t75 14.5q60 0 99 -31t45 -96h-60q-3 38 -24.5 60.5t-59.5 22.5
q-31 0 -52 -12.5t-33.5 -33t-18 -47t-5.5 -53.5q0 -26 5.5 -51.5t18.5 -46t33 -33.5t49 -13q39 0 62.5 24t25.5 63h60z" />
    <glyph glyph-name="afii61289" unicode="&#x2113;" horiz-adv-x="484" 
d="M412 591q0 -72 -48 -159t-160 -194v-101q0 -52 23 -73.5t58 -21.5q30 0 54.5 14t47.5 40l35 -33q-29 -36 -65.5 -55t-79.5 -19q-63 0 -96.5 37.5t-33.5 113.5v45l-56 -53l-32 38l88 83v295q0 95 38.5 140.5t99.5 45.5q60 0 93.5 -38.5t33.5 -104.5zM204 308
q83 85 118 155.5t35 129.5q0 45 -19.5 68.5t-51.5 23.5q-34 0 -58 -29t-24 -98v-250z" />
    <glyph glyph-name="afii61352" unicode="&#x2116;" horiz-adv-x="1020" 
d="M83 723h72l360 -626v626h62v-723h-79l-352 613v-613h-63v723zM652 207h304v-50h-304v50zM804 269q-69 0 -110.5 44t-41.5 116q0 35 11 64t31 50t47 33t60 12q70 0 112.5 -43.5t42.5 -115.5q0 -36 -11 -65.5t-31 -50.5t-48 -32.5t-62 -11.5zM804 316q42 0 69 31.5t27 81.5
q0 49 -27 80.5t-69 31.5t-69 -31t-27 -79q0 -52 26.5 -83.5t69.5 -31.5z" />
    <glyph glyph-name="uni2117" unicode="&#x2117;" horiz-adv-x="844" 
d="M796 362q0 -80 -28.5 -148t-78.5 -118t-118.5 -78.5t-148.5 -28.5t-148 28t-118 78t-78.5 118.5t-28.5 148.5t28.5 148t78.5 118t118 78t148 28t148.5 -28t118.5 -78t78.5 -118t28.5 -148zM750 362q0 72 -24.5 132.5t-68.5 105t-104 69t-131 24.5t-131 -24.5t-103.5 -69
t-68 -105t-24.5 -132.5t24.5 -133t68 -105t103.5 -69t131 -25t131 25t104 69t68.5 105t24.5 133zM599 447q0 -39 -20 -67.5t-57 -41.5q-17 -6 -36 -8.5t-39 -2.5h-77v-179h-55v419h129q27 0 54 -3t51 -18q26 -17 38 -43.5t12 -55.5zM542 450q0 24 -8 38.5t-21.5 23t-31.5 11
t-38 2.5h-73v-155h56q22 0 43 2.5t37.5 11t26 24t9.5 42.5z" />
    <glyph glyph-name="trademark" unicode="&#x2122;" horiz-adv-x="955" 
d="M771 361v317l-125 -317h-33l-127 317v-317h-49v361h72l121 -294l121 294h69v-361h-49zM262 684v-323h-49v323h-133v38h312v-38h-130z" />
    <glyph glyph-name="uni2126" unicode="&#x2126;" horiz-adv-x="743" 
d="M618 376q0 66 -15 122t-45.5 96.5t-77 63.5t-109.5 23q-60 0 -105.5 -23t-76 -64t-46.5 -97t-16 -121q0 -54 12.5 -102t34.5 -88.5t51.5 -73.5t63.5 -57v-55h-235v55h168q-75 49 -121 130t-46 196q0 77 22 142t63 112.5t99.5 74t131.5 26.5q74 0 133 -23.5t100.5 -68.5
t63.5 -111t22 -152q0 -115 -46 -196t-121 -130h168v-55h-235v55q34 24 63.5 57t51.5 73.5t34.5 88.5t12.5 102z" />
    <glyph glyph-name="estimated" unicode="&#x212e;" horiz-adv-x="600" 
d="M157 259v-181q59 -59 145 -59q63 0 109 28.5t84 91.5l35 -21q-23 -36 -46.5 -61.5t-51 -42t-59.5 -24t-71 -7.5q-59 0 -106.5 21.5t-81.5 59t-52 87.5t-18 108t18 108.5t52 87.5t81.5 58.5t106.5 21.5q58 0 105.5 -20.5t81.5 -57t53 -87t19 -111.5h-404zM448 295v145
q-63 60 -147 60t-144 -60v-145h291z" />
    <glyph glyph-name="onethird" unicode="&#x2153;" horiz-adv-x="890" 
d="M251 -25h-58l442 776h56zM178 303v366q-23 -19 -45.5 -32.5t-49.5 -25.5v46q16 7 29 14t24 14.5t22 16.5t25 21h43v-420h-48zM850 114q0 -30 -13 -52.5t-34.5 -37.5t-48 -22.5t-53.5 -7.5q-59 0 -99 29.5t-42 92.5h48q0 -21 8 -36t21.5 -25.5t30.5 -15.5t36 -5t36.5 5
t31 15.5t22 26t8.5 36.5t-8.5 36t-22 25t-31 15t-36.5 5q-14 0 -27 -3v44q8 -2 14.5 -2h14.5q17 0 33.5 4.5t29 14t20 23.5t7.5 33t-8 33.5t-21 23.5t-29.5 13.5t-33.5 4.5q-82 0 -91 -79h-48q1 30 12.5 52t31 37t44.5 22t52 7q26 0 51 -7t44.5 -21.5t31.5 -36t12 -50.5
q0 -38 -21 -58.5t-54 -34.5q37 -14 59 -38t22 -66z" />
    <glyph glyph-name="twothirds" unicode="&#x2154;" horiz-adv-x="890" 
d="M272 -25h-58l442 776h56zM861 114q0 -30 -13 -52.5t-34.5 -37.5t-48 -22.5t-53.5 -7.5q-59 0 -99 29.5t-42 92.5h48q0 -21 8 -36t21.5 -25.5t30.5 -15.5t36 -5t36.5 5t31 15.5t22 26t8.5 36.5t-8.5 36t-22 25t-31 15t-36.5 5q-14 0 -27 -3v44q8 -2 14.5 -2h14.5
q17 0 33.5 4.5t29 14t20 23.5t7.5 33t-8 33.5t-21 23.5t-29.5 13.5t-33.5 4.5q-82 0 -91 -79h-48q1 30 12.5 52t31 37t44.5 22t52 7q26 0 51 -7t44.5 -21.5t31.5 -36t12 -50.5q0 -38 -21 -58.5t-54 -34.5q37 -14 59 -38t22 -66zM37 303v46q48 41 87.5 79t68 72t44 63
t15.5 51q0 35 -21.5 54t-55.5 19q-39 0 -60.5 -23t-21.5 -61h-52q1 60 38 93t96 33q25 0 48.5 -7t41.5 -21t28.5 -34.5t10.5 -48.5q0 -31 -17.5 -64.5t-46 -68.5t-65.5 -70t-75 -68h210v-44h-273z" />
    <glyph glyph-name="oneeighth" unicode="&#x215b;" horiz-adv-x="890" 
d="M251 -25h-58l442 776h56zM178 303v366q-23 -19 -45.5 -32.5t-49.5 -25.5v46q16 7 29 14t24 14.5t22 16.5t25 21h43v-420h-48zM855 119q0 -31 -12.5 -54.5t-33.5 -39t-48 -23.5t-55 -8t-54.5 7t-47.5 21.5t-33.5 37t-12.5 53.5q0 42 23 67.5t60 37.5q-33 11 -54.5 33
t-21.5 59q0 29 12 51t32.5 36.5t46 21.5t52.5 7q25 0 50.5 -7t45.5 -20.5t32.5 -35t12.5 -49.5q0 -38 -21 -60.5t-56 -34.5q36 -10 59.5 -36t23.5 -64zM803 313q0 38 -28.5 56t-66.5 18q-39 0 -68 -18.5t-29 -58.5q0 -20 8 -34t21.5 -22.5t30.5 -12.5t36 -4q18 0 35.5 4.5
t31 14t21.5 24t8 33.5zM807 116q0 21 -8.5 37t-22.5 26t-32.5 15t-38.5 5q-41 0 -70 -21t-29 -62q0 -42 28.5 -62.5t69.5 -20.5q20 0 38.5 5.5t33 16t23 26t8.5 35.5z" />
    <glyph glyph-name="threeeighths" unicode="&#x215c;" horiz-adv-x="890" 
d="M254 -25h-58l442 776h56zM855 119q0 -31 -12.5 -54.5t-33.5 -39t-48 -23.5t-55 -8t-54.5 7t-47.5 21.5t-33.5 37t-12.5 53.5q0 42 23 67.5t60 37.5q-33 11 -54.5 33t-21.5 59q0 29 12 51t32.5 36.5t46 21.5t52.5 7q25 0 50.5 -7t45.5 -20.5t32.5 -35t12.5 -49.5
q0 -38 -21 -60.5t-56 -34.5q36 -10 59.5 -36t23.5 -64zM803 313q0 38 -28.5 56t-66.5 18q-39 0 -68 -18.5t-29 -58.5q0 -20 8 -34t21.5 -22.5t30.5 -12.5t36 -4q18 0 35.5 4.5t31 14t21.5 24t8 33.5zM807 116q0 21 -8.5 37t-22.5 26t-32.5 15t-38.5 5q-41 0 -70 -21t-29 -62
q0 -42 28.5 -62.5t69.5 -20.5q20 0 38.5 5.5t33 16t23 26t8.5 35.5zM322 417q0 -30 -13 -52.5t-34.5 -37.5t-48 -22.5t-53.5 -7.5q-59 0 -99 29.5t-42 92.5h48q0 -21 8 -36t21.5 -25.5t30.5 -15.5t36 -5t36.5 5t31 15.5t22 26t8.5 36.5t-8.5 36t-22 25t-31 15t-36.5 5
q-14 0 -27 -3v44q8 -2 14.5 -2h14.5q17 0 33.5 4.5t29 14t20 23.5t7.5 33t-8 33.5t-21 23.5t-29.5 13.5t-33.5 4.5q-82 0 -91 -79h-48q1 30 12.5 52t31 37t44.5 22t52 7q26 0 51 -7t44.5 -21.5t31.5 -36t12 -50.5q0 -38 -21 -58.5t-54 -34.5q37 -14 59 -38t22 -66z" />
    <glyph glyph-name="fiveeighths" unicode="&#x215d;" horiz-adv-x="890" 
d="M254 -25h-58l442 776h56zM855 119q0 -31 -12.5 -54.5t-33.5 -39t-48 -23.5t-55 -8t-54.5 7t-47.5 21.5t-33.5 37t-12.5 53.5q0 42 23 67.5t60 37.5q-33 11 -54.5 33t-21.5 59q0 29 12 51t32.5 36.5t46 21.5t52.5 7q25 0 50.5 -7t45.5 -20.5t32.5 -35t12.5 -49.5
q0 -38 -21 -60.5t-56 -34.5q36 -10 59.5 -36t23.5 -64zM803 313q0 38 -28.5 56t-66.5 18q-39 0 -68 -18.5t-29 -58.5q0 -20 8 -34t21.5 -22.5t30.5 -12.5t36 -4q18 0 35.5 4.5t31 14t21.5 24t8 33.5zM807 116q0 21 -8.5 37t-22.5 26t-32.5 15t-38.5 5q-41 0 -70 -21t-29 -62
q0 -42 28.5 -62.5t69.5 -20.5q20 0 38.5 5.5t33 16t23 26t8.5 35.5zM327 440q0 -31 -10.5 -57.5t-29 -45.5t-45 -29.5t-58.5 -10.5q-27 0 -51 6.5t-42 21t-29 36t-12 51.5h51q1 -37 24.5 -56.5t58.5 -19.5q47 0 71 31t24 75q0 40 -21.5 69.5t-66.5 29.5q-31 0 -54.5 -16.5
t-31.5 -48.5h-47l10 247h238v-41h-193l-8 -145q13 19 35.5 31t54.5 12q64 0 98 -39.5t34 -100.5z" />
    <glyph glyph-name="seveneighths" unicode="&#x215e;" horiz-adv-x="890" 
d="M254 -25h-58l442 776h56zM855 119q0 -31 -12.5 -54.5t-33.5 -39t-48 -23.5t-55 -8t-54.5 7t-47.5 21.5t-33.5 37t-12.5 53.5q0 42 23 67.5t60 37.5q-33 11 -54.5 33t-21.5 59q0 29 12 51t32.5 36.5t46 21.5t52.5 7q25 0 50.5 -7t45.5 -20.5t32.5 -35t12.5 -49.5
q0 -38 -21 -60.5t-56 -34.5q36 -10 59.5 -36t23.5 -64zM803 313q0 38 -28.5 56t-66.5 18q-39 0 -68 -18.5t-29 -58.5q0 -20 8 -34t21.5 -22.5t30.5 -12.5t36 -4q18 0 35.5 4.5t31 14t21.5 24t8 33.5zM807 116q0 21 -8.5 37t-22.5 26t-32.5 15t-38.5 5q-41 0 -70 -21t-29 -62
q0 -42 28.5 -62.5t69.5 -20.5q20 0 38.5 5.5t33 16t23 26t8.5 35.5zM223 303h-52l173 376h-230v44h274v-45z" />
    <glyph glyph-name="partialdiff" unicode="&#x2202;" horiz-adv-x="544" 
d="M258 430q58 0 99.5 -23.5t69.5 -63.5v21q0 58 -12.5 114.5t-36.5 101t-60 72t-82 27.5q-38 0 -69.5 -11.5t-65.5 -32.5l-23 49q35 23 75 36.5t88 13.5q63 0 110 -33t77.5 -86.5t46 -120t15.5 -132.5q0 -93 -19.5 -163.5t-54 -117t-80.5 -70t-99 -23.5q-49 0 -85.5 17.5
t-60.5 46t-36 66t-12 77.5q0 52 16.5 95.5t45 74.5t68 48t85.5 17zM241 42q32 0 61.5 13.5t53.5 42.5t41 73.5t25 106.5q-23 42 -62.5 69.5t-90.5 27.5q-32 0 -61.5 -12.5t-51.5 -36t-35 -57t-13 -74.5q0 -32 9 -60t26 -48.5t41.5 -32.5t56.5 -12z" />
    <glyph glyph-name="uni2206" unicode="&#x2206;" horiz-adv-x="658" 
d="M-3 0l299 723h67l304 -723h-670zM330 658l-243 -603h488z" />
    <glyph glyph-name="product" unicode="&#x220f;" horiz-adv-x="727" 
d="M579 -204v933h-431v-933h-62v988h555v-988h-62z" />
    <glyph glyph-name="summation" unicode="&#x2211;" horiz-adv-x="619" 
d="M41 -204v51l321 443l-307 442v52h514v-55h-438l306 -438l-321 -440h464v-55h-539z" />
    <glyph glyph-name="minus" unicode="&#x2212;" horiz-adv-x="676" 
d="M88 216v54h500v-54h-500z" />
    <glyph glyph-name="uni2215" unicode="&#x2215;" horiz-adv-x="182" 
d="M-100 -25h-58l442 776h56z" />
    <glyph glyph-name="uni2219" unicode="&#x2219;" horiz-adv-x="280" 
d="M100 282v86h80v-86h-80z" />
    <glyph glyph-name="radical" unicode="&#x221a;" horiz-adv-x="579" 
d="M319 -204h-67l-148 371l-52 -21l-18 40l108 45l139 -356l227 909h64z" />
    <glyph glyph-name="infinity" unicode="&#x221e;" horiz-adv-x="765" 
d="M564 101q-23 0 -43.5 6.5t-41.5 20t-44.5 34t-50.5 48.5q-45 -47 -90 -78t-97 -31q-32 0 -58.5 11t-45.5 30.5t-30 46.5t-11 60q0 30 11.5 56.5t31.5 46.5t48 32t61 12q47 0 87.5 -27.5t92.5 -81.5q22 22 44 42t45.5 35t48 23.5t50.5 8.5q31 0 58 -11t46 -30.5t30 -46.5
t11 -59q0 -30 -11.5 -57t-31.5 -47.5t-48 -32t-62 -11.5zM563 153q21 0 38 7.5t30 20.5t20 30t7 37q0 42 -25 68.5t-65 26.5q-20 0 -39 -8t-37.5 -21t-36.5 -30t-35 -35q47 -49 78.5 -72.5t64.5 -23.5zM202 153q36 0 71.5 26.5t73.5 68.5q-25 25 -44 43.5t-35.5 29.5
t-31.5 16.5t-31 5.5q-41 0 -67 -28t-26 -67q0 -42 25 -68.5t65 -26.5z" />
    <glyph glyph-name="integral" unicode="&#x222b;" horiz-adv-x="462" 
d="M264 5q0 -108 -32.5 -157t-100.5 -49q-14 0 -28 2t-22 5l8 47q15 -5 32 -5q44 0 60.5 37t16.5 122v570q0 108 32.5 157t100.5 49q14 0 28 -2t22 -5l-8 -47q-15 5 -32 5q-44 0 -60.5 -37t-16.5 -122v-570z" />
    <glyph glyph-name="approxequal" unicode="&#x2248;" horiz-adv-x="676" 
d="M599 230q-3 -26 -11 -50t-22.5 -43t-36 -30t-50.5 -11q-32 0 -68 10.5t-73 24.5q-39 14 -75 26.5t-64 12.5q-35 0 -55.5 -24.5t-25.5 -56.5h-42q4 26 12.5 50.5t23 43t36 30t51.5 11.5q31 0 66.5 -10.5t72.5 -24.5q39 -14 75.5 -26t63.5 -12q37 0 56 23t26 56h40z
M599 397q-3 -26 -11 -50t-22.5 -43t-36 -30t-50.5 -11q-32 0 -68 10.5t-73 24.5q-39 14 -75 26.5t-64 12.5q-35 0 -55.5 -24.5t-25.5 -56.5h-42q4 26 12.5 50.5t23 43t36 30t51.5 11.5q31 0 66.5 -10.5t72.5 -24.5q39 -14 75.5 -26t63.5 -12q37 0 56 23t26 56h40z" />
    <glyph glyph-name="notequal" unicode="&#x2260;" horiz-adv-x="676" 
d="M300 122l-76 -142l-46 25l62 117h-152v54h181l70 133h-251v54h281l77 146l47 -25l-65 -121h160v-54h-188l-71 -133h259v-54h-288z" />
    <glyph glyph-name="lessequal" unicode="&#x2264;" horiz-adv-x="676" 
d="M88 288v59l500 191v-59l-425 -161l425 -161v-59zM88 0v54h500v-54h-500z" />
    <glyph glyph-name="greaterequal" unicode="&#x2265;" horiz-adv-x="676" 
d="M88 98v59l425 161l-425 161v59l500 -191v-59zM88 0v54h500v-54h-500z" />
    <glyph glyph-name="lozenge" unicode="&#x25ca;" horiz-adv-x="546" 
d="M303 -30h-61l-196 392l197 391h61l196 -391zM273 688l-157 -326l158 -327l157 327z" />
    <glyph glyph-name="uniF001" unicode="&#xf001;" horiz-adv-x="549" 
d="M301 680q-7 1 -16.5 1.5t-18.5 0.5q-28 0 -45 -5.5t-26 -17t-12 -30t-3 -44.5v-80h112v-45h-112v-460h-61v460h-102v45h102v75q0 30 3.5 57t16 47.5t36 33t63.5 12.5q31 0 63 -3v-47zM396 647v76h73v-76h-73zM402 0v505h61v-505h-61z" />
    <glyph glyph-name="uniF002" unicode="&#xf002;" horiz-adv-x="549" 
d="M301 680q-7 1 -16.5 1.5t-18.5 0.5q-28 0 -45 -5.5t-26 -17t-12 -30t-3 -44.5v-80h112v-45h-112v-460h-61v460h-102v45h102v75q0 30 3.5 57t16 47.5t36 33t63.5 12.5q31 0 63 -3v-47zM402 0v723h61v-723h-61z" />
    <glyph glyph-name="uniF8FF" unicode="&#xf8ff;" horiz-adv-x="512" 
d="M222 117v67h56v-67h-56zM223 234v17q0 27 3 46.5t10 35t18 29t28 29.5q16 16 26 28t15 22t7 19t2 20q0 36 -22.5 57.5t-53.5 21.5t-53.5 -22t-28.5 -73l-50 8q7 72 44 104.5t91 32.5q27 0 49.5 -9t39 -25t26 -39.5t9.5 -51.5q0 -17 -2.5 -32.5t-9.5 -30.5t-19.5 -30
t-31.5 -33q-16 -14 -25.5 -25t-15 -22t-7 -23.5t-1.5 -29.5v-24h-48zM462 50v617h-412v-617h412zM512 718v-718h-512v718h512z" />
    <glyph glyph-name="glyph373" horiz-adv-x="293" 
d="M157 777l-126 144h80l90 -144h-44z" />
    <glyph glyph-name="glyph374" horiz-adv-x="292" 
d="M135 777h-44l90 144h80z" />
    <glyph glyph-name="glyph375" horiz-adv-x="292" 
d="M236 775l-89 106l-91 -106h-46l101 146h73l98 -146h-46z" />
    <glyph glyph-name="glyph376" horiz-adv-x="292" 
d="M187 777h-80l-98 144h46l93 -106l89 106h46z" />
    <glyph glyph-name="glyph377" horiz-adv-x="233" 
d="M190 723l-57 -189h-50l31 189h76z" />
    <glyph glyph-name="glyph378" horiz-adv-x="293" 
d="M284 897q-3 -16 -10.5 -31t-18 -27t-24.5 -19t-32 -7q-26 0 -51.5 10.5t-51.5 10.5q-35 0 -49 -29h-38q7 35 30 58t60 23q26 0 49 -10.5t49 -10.5q36 0 49 32h38v0z" />
    <glyph glyph-name="glyph379" horiz-adv-x="292" 
d="M195 816v76h73v-76h-73zM24 816v76h73v-76h-73z" />
    <glyph glyph-name="glyph380" horiz-adv-x="293" 
d="M24 818v51h245v-51h-245z" />
    <glyph glyph-name="glyph382" horiz-adv-x="293" 
d="M288 902q-6 -54 -44 -86t-100 -32q-59 0 -100 31.5t-43 86.5h38q3 -18 14 -31t26 -22t32 -13.5t33 -4.5q35 0 65 17t43 54h36v0z" />
    <glyph glyph-name="glyph383" horiz-adv-x="244" 
d="M213 847q0 -38 -26.5 -64t-64.5 -26t-64.5 26t-26.5 64t26.5 64t64.5 26t64.5 -26t26.5 -64zM179 847q0 26 -16 43t-41 17t-41 -17t-16 -43t16 -43t41 -17t41 17t16 43z" />
    <glyph glyph-name="glyph384" horiz-adv-x="292" 
d="M208 779h-47l95 142h81zM60 779h-47l95 142h81z" />
    <glyph glyph-name="glyph385" horiz-adv-x="293" 
d="M110 816v76h73v-76h-73z" />
    <glyph glyph-name="glyph386" horiz-adv-x="233" 
d="M154 -51l-58 -149h-52l36 149h74z" />
    <glyph glyph-name="glyph387" horiz-adv-x="588" 
d="M244 592l57 144h52l-35 -144h-74z" />
    <glyph glyph-name="zero.dnom" horiz-adv-x="354" 
d="M324 215q0 -45 -8.5 -85t-26.5 -70t-46 -47.5t-67 -17.5q-41 0 -68.5 17.5t-45 47.5t-25 70.5t-7.5 86.5q0 40 8.5 78t27 66.5t46.5 46t67 17.5q40 0 68 -17.5t45 -46.5t24.5 -67t7.5 -79zM276 209q0 79 -23.5 128t-73.5 49q-52 0 -76.5 -49t-24.5 -127t24.5 -126.5
t72.5 -48.5q51 0 76 48t25 126z" />
    <glyph glyph-name="one.dnom" horiz-adv-x="354" 
d="M171 0v366q-23 -19 -45.5 -32.5t-49.5 -25.5v46q16 7 29 14t24 14.5t22 16.5t25 21h43v-420h-48z" />
    <glyph glyph-name="two.dnom" horiz-adv-x="354" 
d="M40 0v44l90 86q36 35 60.5 60.5t39 45.5t20.5 37.5t6 36.5q0 35 -21 55t-57 20q-40 0 -62 -23.5t-22 -61.5h-50q1 60 38 93t96 33q54 0 91 -28t37 -84q0 -28 -10.5 -53.5t-29.5 -51.5t-46 -53.5t-61 -58.5l-59 -55h213v-42h-273z" />
    <glyph glyph-name="three.dnom" horiz-adv-x="354" 
d="M317 115q0 -57 -40.5 -88.5t-104.5 -31.5q-59 0 -97.5 29.5t-40.5 92.5h48q0 -42 27.5 -62t65.5 -20q43 0 68.5 21.5t25.5 61.5q0 21 -7.5 36t-20.5 24.5t-30 14.5t-36 5q-14 0 -27 -3v44q8 -2 14.5 -2h14.5q35 0 60.5 18.5t25.5 56.5q0 39 -25 56.5t-63 17.5t-61 -19.5
t-27 -58.5h-48q2 57 41 87t96 30q28 0 52.5 -7t43 -21t29 -35.5t10.5 -50.5q0 -37 -20 -60t-51 -33q37 -11 57 -36t20 -67z" />
    <glyph glyph-name="four.dnom" horiz-adv-x="354" 
d="M269 95v-95h-47v95h-200v45l191 280h56v-286h66v-39h-66zM223 365l-156 -231h156v231z" />
    <glyph glyph-name="five.dnom" horiz-adv-x="354" 
d="M324 137q0 -63 -39 -102.5t-104 -39.5q-27 0 -51 6.5t-42 20.5t-29 35.5t-12 51.5h51q1 -37 24.5 -56t58.5 -19q48 0 71.5 30.5t23.5 74.5q0 40 -21.5 69.5t-66.5 29.5q-31 0 -54.5 -16.5t-31.5 -48.5h-47l10 247h238v-41h-193l-8 -145q13 19 35.5 31t54.5 12
q64 0 98 -39.5t34 -100.5z" />
    <glyph glyph-name="six.dnom" horiz-adv-x="354" 
d="M320 135q0 -29 -9.5 -54.5t-27.5 -44.5t-43 -30t-55 -11q-46 0 -74.5 17t-45 45.5t-22.5 65.5t-6 76q0 44 7 85t24 72.5t46 50t73 18.5q32 0 56 -8.5t40 -23.5t24 -34.5t9 -40.5h-50q-5 32 -23 49.5t-56 17.5q-30 0 -50 -15t-31.5 -39t-16.5 -55t-6 -64q13 27 39 44.5
t68 17.5q31 0 55.5 -11t41 -29.5t25 -44t8.5 -54.5zM272 136q0 20 -5 38.5t-15.5 32t-27 21.5t-38.5 8q-47 0 -71 -29t-24 -73q0 -41 24 -70t67 -29q46 0 68 29.5t22 71.5z" />
    <glyph glyph-name="seven.dnom" horiz-adv-x="354" 
d="M144 0h-52l173 377h-230v43h274v-44z" />
    <glyph glyph-name="eight.dnom" horiz-adv-x="354" 
d="M326 119q0 -31 -12.5 -54t-33.5 -38.5t-48 -23.5t-55 -8t-54.5 7t-47.5 21t-33.5 36.5t-12.5 53.5q0 42 23 67.5t60 37.5q-33 11 -54.5 32.5t-21.5 58.5q0 29 12 51t32.5 36.5t46 21.5t52.5 7q25 0 50.5 -7t45.5 -20.5t32.5 -35t12.5 -49.5q0 -38 -21 -60t-56 -34
q36 -10 59.5 -36t23.5 -64zM274 312q0 38 -28.5 56t-66.5 18q-39 0 -68 -18.5t-29 -58.5q0 -20 8 -33.5t21.5 -22t30.5 -12.5t36 -4q18 0 35.5 4.5t31 14t21.5 23.5t8 33zM278 116q0 21 -8.5 37t-22.5 26t-32.5 15t-38.5 5q-41 0 -70 -21t-29 -62q0 -42 28.5 -62t69.5 -20
q20 0 38.5 5t33 15.5t23 26t8.5 35.5z" />
    <glyph glyph-name="nine.dnom" horiz-adv-x="354" 
d="M318 232q0 -51 -7.5 -94.5t-24.5 -75t-45.5 -49.5t-70.5 -18q-56 0 -90.5 28t-39.5 83h49q3 -33 22.5 -51.5t57.5 -18.5q30 0 50 13.5t32 38t17 59.5t6 77q-14 -33 -43 -48.5t-64 -15.5q-60 0 -96 37t-36 95q0 60 39.5 96.5t101.5 36.5q39 0 66.5 -14.5t44 -40t24 -61
t7.5 -77.5zM264 293q0 40 -23.5 67t-64.5 27q-43 0 -68 -27t-25 -68t22 -67t65 -26q44 0 69 25.5t25 68.5z" />
    <glyph glyph-name="zero.frac" horiz-adv-x="354" 
d="M324 518q0 -45 -8.5 -85t-26.5 -70t-46 -47.5t-67 -17.5q-41 0 -68.5 17.5t-45 47.5t-25 70.5t-7.5 86.5q0 40 8.5 78t27 66.5t46.5 46t67 17.5q40 0 68 -17.5t45 -46.5t24.5 -67t7.5 -79zM276 512q0 79 -23.5 128t-73.5 49q-52 0 -76.5 -49t-24.5 -127t24.5 -126.5
t72.5 -48.5q51 0 76 48t25 126z" />
    <glyph glyph-name="one.frac" horiz-adv-x="354" 
d="M171 303v366q-23 -19 -45.5 -32.5t-49.5 -25.5v46q16 7 29 14t24 14.5t22 16.5t25 21h43v-420h-48z" />
    <glyph glyph-name="two.frac" horiz-adv-x="354" 
d="M40 303v44l90 86q36 35 60.5 60.5t39 45.5t20.5 37.5t6 36.5q0 35 -21 55t-57 20q-40 0 -62 -23.5t-22 -61.5h-50q1 60 38 93t96 33q54 0 91 -28t37 -84q0 -28 -10.5 -53.5t-29.5 -51.5t-46 -53.5t-61 -58.5l-59 -55h213v-42h-273z" />
    <glyph glyph-name="three.frac" horiz-adv-x="354" 
d="M317 418q0 -57 -40.5 -88.5t-104.5 -31.5q-59 0 -97.5 29.5t-40.5 92.5h48q0 -42 27.5 -62t65.5 -20q43 0 68.5 21.5t25.5 61.5q0 21 -7.5 36t-20.5 24.5t-30 14.5t-36 5q-14 0 -27 -3v44q8 -2 14.5 -2h14.5q35 0 60.5 18.5t25.5 56.5q0 39 -25 56.5t-63 17.5t-61 -19.5
t-27 -58.5h-48q2 57 41 87t96 30q28 0 52.5 -7t43 -21t29 -35.5t10.5 -50.5q0 -37 -20 -60t-51 -33q37 -11 57 -36t20 -67z" />
    <glyph glyph-name="four.frac" horiz-adv-x="354" 
d="M269 398v-95h-47v95h-200v45l191 280h56v-286h66v-39h-66zM223 668l-156 -231h156v231z" />
    <glyph glyph-name="five.frac" horiz-adv-x="354" 
d="M324 440q0 -63 -39 -102.5t-104 -39.5q-27 0 -51 6.5t-42 20.5t-29 35.5t-12 51.5h51q1 -37 24.5 -56t58.5 -19q48 0 71.5 30.5t23.5 74.5q0 40 -21.5 69.5t-66.5 29.5q-31 0 -54.5 -16.5t-31.5 -48.5h-47l10 247h238v-41h-193l-8 -145q13 19 35.5 31t54.5 12
q64 0 98 -39.5t34 -100.5z" />
    <glyph glyph-name="six.frac" horiz-adv-x="354" 
d="M320 438q0 -29 -9.5 -54.5t-27.5 -44.5t-43 -30t-55 -11q-46 0 -74.5 17t-45 45.5t-22.5 65.5t-6 76q0 44 7 85t24 72.5t46 50t73 18.5q32 0 56 -8.5t40 -23.5t24 -34.5t9 -40.5h-50q-5 32 -23 49.5t-56 17.5q-30 0 -50 -15t-31.5 -39t-16.5 -55t-6 -64q13 27 39 44.5
t68 17.5q31 0 55.5 -11t41 -29.5t25 -44t8.5 -54.5zM272 439q0 20 -5 38.5t-15.5 32t-27 21.5t-38.5 8q-47 0 -71 -29t-24 -73q0 -41 24 -70t67 -29q46 0 68 29.5t22 71.5z" />
    <glyph glyph-name="seven.frac" horiz-adv-x="354" 
d="M144 303h-52l173 377h-230v43h274v-44z" />
    <glyph glyph-name="eight.frac" horiz-adv-x="354" 
d="M326 422q0 -31 -12.5 -54t-33.5 -38.5t-48 -23.5t-55 -8t-54.5 7t-47.5 21t-33.5 36.5t-12.5 53.5q0 42 23 67.5t60 37.5q-33 11 -54.5 32.5t-21.5 58.5q0 29 12 51t32.5 36.5t46 21.5t52.5 7q25 0 50.5 -7t45.5 -20.5t32.5 -35t12.5 -49.5q0 -38 -21 -60t-56 -34
q36 -10 59.5 -36t23.5 -64zM274 615q0 38 -28.5 56t-66.5 18q-39 0 -68 -18.5t-29 -58.5q0 -20 8 -33.5t21.5 -22t30.5 -12.5t36 -4q18 0 35.5 4.5t31 14t21.5 23.5t8 33zM278 419q0 21 -8.5 37t-22.5 26t-32.5 15t-38.5 5q-41 0 -70 -21t-29 -62q0 -42 28.5 -62t69.5 -20
q20 0 38.5 5t33 15.5t23 26t8.5 35.5z" />
    <glyph glyph-name="nine.frac" horiz-adv-x="354" 
d="M318 535q0 -51 -7.5 -94.5t-24.5 -75t-45.5 -49.5t-70.5 -18q-56 0 -90.5 28t-39.5 83h49q3 -33 22.5 -51.5t57.5 -18.5q30 0 50 13.5t32 38t17 59.5t6 77q-14 -33 -43 -48.5t-64 -15.5q-60 0 -96 37t-36 95q0 60 39.5 96.5t101.5 36.5q39 0 66.5 -14.5t44 -40t24 -61
t7.5 -77.5zM264 596q0 40 -23.5 67t-64.5 27q-43 0 -68 -27t-25 -68t22 -67t65 -26q44 0 69 25.5t25 68.5z" />
    <glyph glyph-name="glyph620" horiz-adv-x="269" 
d="M138 579h-47l58 144h89z" />
    <glyph glyph-name="uni000D.aalt" horiz-adv-x="246" 
d="M147 133h-48l-10 413h69zM85 0v83h76v-83h-76z" />
    <glyph glyph-name="dollar.sc" horiz-adv-x="469" 
d="M215 -69v63q-168 8 -174 152h59q2 -45 28 -72.5t87 -32.5v210q-33 9 -63.5 20.5t-54 28.5t-37 41.5t-13.5 60.5q0 66 46.5 102.5t121.5 40.5v64h40v-64q71 -4 115 -35t47 -94h-57q-4 42 -32.5 60.5t-72.5 21.5v-203q37 -11 68.5 -22.5t55 -29t36.5 -41.5t13 -59
q0 -71 -47 -107.5t-126 -41.5v-63h-40zM372 141q0 41 -29 62t-88 37v-199q53 5 85 30t32 70zM103 405q0 -39 27.5 -60.5t84.5 -37.5v191q-49 -3 -80.5 -25t-31.5 -68z" />
    <glyph glyph-name="percent.aalt" horiz-adv-x="746" 
d="M216 -18h-57l361 585h55zM292 410q0 -28 -7.5 -54t-23.5 -46t-40.5 -32t-58.5 -12q-33 0 -57.5 12t-40.5 32t-24 46t-8 54t8 54t24 46.5t41 33t58 12.5q34 0 58.5 -12t40.5 -32t23 -46.5t7 -55.5zM238 411q0 16 -3.5 34t-11.5 33t-22 25t-36 10q-23 0 -38 -9.5t-24 -24.5
t-12.5 -33.5t-3.5 -36.5q0 -17 3.5 -35t12.5 -33t23.5 -24.5t36.5 -9.5t37 10t23 25t11.5 33.5t3.5 35.5zM713 139q0 -28 -7.5 -54t-23.5 -46t-40.5 -32t-58.5 -12q-33 0 -57.5 12t-40.5 32t-24 46t-8 54t8 54t24 46.5t41 33t58 12.5q34 0 58.5 -12t40.5 -32t23 -46.5
t7 -55.5zM659 140q0 16 -3.5 34t-11.5 33t-22 25t-36 10q-23 0 -38 -9.5t-24 -24.5t-12.5 -33.5t-3.5 -36.5q0 -17 3.5 -35t12.5 -33t23.5 -24.5t36.5 -9.5t37 10t23 25t11.5 33.5t3.5 35.5z" />
    <glyph glyph-name="ampersand.aalt" horiz-adv-x="568" 
d="M452 268v-268h-175q-124 0 -181 36.5t-57 118.5q0 65 39.5 97.5t100.5 42.5q-57 9 -85.5 40t-28.5 81q0 38 17.5 64.5t45 43.5t62 25t68.5 8t59.5 -3.5t49.5 -9.5v-50q-28 7 -49.5 10t-47.5 3q-27 0 -52.5 -5t-45.5 -16t-32.5 -29t-12.5 -45q0 -33 17.5 -52.5t43.5 -29
t56 -12.5t55 -3h96v123h57v-123h103v-47h-103zM395 268h-98q-98 0 -148 -24.5t-50 -87.5q0 -33 13.5 -54t39 -32.5t61.5 -15.5t81 -4h101v218z" />
    <glyph glyph-name="zero.sc" horiz-adv-x="474" 
d="M426 277q0 -45 -8.5 -95.5t-30 -93.5t-58 -71t-92.5 -28q-57 0 -94 28t-58 71t-29 93.5t-8 95.5t8 94t29 90.5t58 68.5t94 27q55 0 91.5 -27t58.5 -68.5t30.5 -91t8.5 -93.5zM365 277q0 38 -6 79t-20.5 74.5t-39 55.5t-61.5 22q-40 0 -65 -21.5t-39 -55t-19 -74.5t-5 -80
q0 -40 5 -82t19 -77t39 -57.5t65 -22.5q37 0 61.5 22.5t39 57.5t20.5 77.5t6 81.5z" />
    <glyph glyph-name="one.sc" horiz-adv-x="474" 
d="M225 0v481q-28 -25 -59 -41.5t-66 -32.5v55q39 16 70 36t61 48h53v-546h-59z" />
    <glyph glyph-name="two.sc" horiz-adv-x="474" 
d="M52 0v53l153 145q63 60 100.5 109t37.5 101q0 48 -29.5 74t-80.5 26t-82.5 -29.5t-31.5 -83.5h-61q1 38 14.5 68t37 51t55.5 32t70 11q36 0 67 -10t53.5 -29t35 -46.5t12.5 -62.5q0 -57 -38 -113.5t-101 -114.5l-140 -130h285v-51h-357z" />
    <glyph glyph-name="three.sc" horiz-adv-x="474" 
d="M426 149q0 -39 -15.5 -69t-42 -50.5t-61.5 -30.5t-74 -10q-81 0 -131.5 40t-57.5 116h61q5 -52 40 -79.5t89 -27.5q66 0 99 32t33 82q0 52 -35 80t-95 28h-20t-19 -1v51q8 -1 19 -1h18q51 0 85.5 25t34.5 73q0 47 -31 74t-88 27q-51 0 -85.5 -26t-36.5 -75h-61
q2 35 17 63t40 47.5t57.5 29.5t69.5 10q36 0 68 -9t56.5 -27.5t39 -46t14.5 -64.5q0 -46 -26.5 -78.5t-74.5 -46.5q22 -5 42.5 -15t36 -26.5t25 -40t9.5 -54.5z" />
    <glyph glyph-name="four.sc" horiz-adv-x="474" 
d="M354 122v-122h-57v122h-264v58l248 366h73v-377h88v-47h-88zM297 484l-211 -315h211v315z" />
    <glyph glyph-name="five.sc" horiz-adv-x="474" 
d="M424 179q0 -42 -14 -77t-38.5 -60t-59.5 -39t-77 -14q-36 0 -67 8.5t-54 26.5t-37 45t-15 64h61q4 -48 34 -71.5t78 -23.5q32 0 56.5 11t40.5 30t24 44t8 54q0 28 -7 52.5t-22 42.5t-38 28.5t-55 10.5q-41 0 -72 -20.5t-41 -62.5h-58l13 318h313v-49h-259l-11 -197
q23 32 56.5 46t70.5 14q42 0 74 -14t53.5 -38t32 -57t10.5 -72z" />
    <glyph glyph-name="six.sc" horiz-adv-x="474" 
d="M423 174q0 -38 -13 -71.5t-36 -59t-56.5 -40t-73.5 -14.5q-38 0 -67 9t-50 25.5t-35.5 40.5t-24.5 53q-8 25 -13 61t-5 73q0 49 7 103t28 99t60 74.5t103 29.5q34 0 63.5 -8.5t51 -25.5t34.5 -44t14 -63h-60q-3 42 -26.5 67.5t-77.5 25.5q-40 0 -66.5 -19.5t-42 -53
t-22 -77.5t-7.5 -93q20 45 59 66t86 21q41 0 73 -13.5t53.5 -37.5t32.5 -57t11 -71zM363 173q0 56 -30 94t-89 38q-28 0 -51.5 -10.5t-41 -28.5t-27 -42.5t-9.5 -52.5q0 -27 8.5 -51t25 -42.5t40.5 -29t55 -10.5q54 0 86.5 37t32.5 98z" />
    <glyph glyph-name="seven.sc" horiz-adv-x="474" 
d="M196 0h-65l227 497h-304v49h361v-50z" />
    <glyph glyph-name="eight.sc" horiz-adv-x="474" 
d="M429 146q0 -40 -16 -69.5t-42 -49t-60 -29t-71 -9.5t-72 9t-62 28t-43.5 48t-16.5 70q0 51 28 87.5t82 51.5q-41 11 -70 42.5t-29 81.5q0 38 15 66t40 47t58 28t68 9t67.5 -9t58 -27.5t40.5 -46.5t15 -66q0 -47 -26.5 -79.5t-72.5 -45.5q48 -13 78.5 -48t30.5 -89z
M358 405q0 52 -35 79t-85 27q-25 0 -46.5 -6.5t-38 -20t-26 -33t-9.5 -45.5q0 -24 9.5 -42.5t26 -31t38.5 -19t46 -6.5t45.5 6.5t38 19t26.5 31t10 41.5zM369 148q0 28 -11 49t-29 35t-42 21.5t-50 7.5t-49.5 -7.5t-41.5 -21.5t-28.5 -35t-10.5 -49q0 -26 10 -46.5t28 -34.5
t41.5 -21.5t50.5 -7.5q59 0 95.5 29t36.5 81z" />
    <glyph glyph-name="nine.sc" horiz-adv-x="474" 
d="M424 296q0 -49 -6.5 -103t-27.5 -99.5t-60.5 -75t-105.5 -29.5q-74 0 -122.5 36.5t-50.5 106.5h61q3 -45 31 -70t81 -25q45 0 72.5 21.5t42.5 56.5t20.5 79t5.5 89q-17 -42 -56.5 -63t-87.5 -21q-42 0 -74 13.5t-53.5 37.5t-33 56.5t-11.5 69.5t13.5 70t37.5 57.5
t57.5 39t74.5 14.5q36 0 64.5 -9t49.5 -24.5t35.5 -37t23.5 -45.5q9 -25 14 -59.5t5 -85.5zM358 378q0 22 -7 45t-22.5 42t-39.5 31t-57 12q-30 0 -53 -11t-38.5 -29.5t-23.5 -42t-8 -48.5q0 -24 7 -47.5t21.5 -41.5t37 -29t54.5 -11q29 0 53 10.5t41 28.5t26 41.5t9 49.5z
" />
    <glyph glyph-name="question.aalt" horiz-adv-x="426" 
d="M348 424q0 -21 -5.5 -40.5t-19 -40t-36 -43.5t-56.5 -51q-12 -10 -19.5 -17.5t-11.5 -15t-5 -16.5t-1 -21v-46h-56v47q0 20 2.5 34.5t9.5 26.5t17.5 23.5t27.5 25.5q29 24 47 42t27.5 33t13 29t3.5 30q0 38 -33 61t-87 23q-21 0 -40 -2.5t-42 -8.5v50q23 5 44.5 7.5
t42.5 2.5q36 0 68 -7t56.5 -23t38.5 -41.5t14 -61.5zM130 0v83h76v-83h-76z" />
    <glyph glyph-name="a.sc" horiz-adv-x="564" 
d="M423 150h-288l-63 -150h-64l239 546h62l247 -546h-68zM156 200h245l-124 287z" />
    <glyph glyph-name="B.aalt" horiz-adv-x="541" 
d="M488 153q0 -47 -17.5 -76.5t-47 -46.5t-68 -23.5t-79.5 -6.5h-185v546h195q80 0 129.5 -34.5t49.5 -102.5q0 -48 -25.5 -79t-69.5 -44q18 -3 39 -11t38.5 -23t29 -39t11.5 -60zM426 156q0 32 -11 52t-30.5 31.5t-45.5 16t-57 4.5h-130v-210h117q88 0 122.5 25t34.5 81z
M404 405q0 48 -34 69.5t-94 21.5h-124v-189h116q29 0 54 5t43 16.5t28.5 30.5t10.5 46z" />
    <glyph glyph-name="C.aalt" horiz-adv-x="546" 
d="M502 136q-14 -72 -69 -109.5t-137 -37.5q-67 0 -113.5 23t-76 61.5t-43 89.5t-13.5 107q0 54 14 105.5t44.5 92t78.5 65t115 24.5q36 0 69.5 -8t60.5 -25.5t44.5 -44.5t21.5 -66h-64q-5 27 -17 45t-29.5 29t-39 15.5t-46.5 4.5q-51 0 -86.5 -20.5t-58.5 -54t-33.5 -76
t-10.5 -85.5q0 -47 10.5 -88.5t33 -73.5t58 -50.5t84.5 -18.5q51 0 87 22t51 74h65v0z" />
    <glyph glyph-name="D.aalt" horiz-adv-x="603" 
d="M554 276q0 -81 -24.5 -133.5t-66.5 -84.5q-43 -32 -100.5 -45t-124.5 -13h-147v546h165q120 0 195 -46q48 -32 75.5 -86.5t27.5 -137.5zM492 275q0 131 -77 184q-56 38 -155 38h-108v-447h89q61 0 104.5 9.5t74.5 34.5q72 57 72 181z" />
    <glyph glyph-name="E.aalt" horiz-adv-x="498" 
d="M91 0v546h352v-49h-291v-188h280v-49h-280v-210h303v-50h-364z" />
    <glyph glyph-name="F.aalt" horiz-adv-x="460" 
d="M152 497v-188h265v-49h-265v-260h-61v546h338v-49h-277z" />
    <glyph glyph-name="G.aalt" horiz-adv-x="577" 
d="M513 24q-19 -7 -43 -12.5t-50 -10t-52.5 -7t-51.5 -2.5q-70 0 -120 22t-82.5 60.5t-48 90t-15.5 110.5q0 57 15.5 108t47.5 89.5t80.5 61.5t114.5 23q39 0 73 -9t60 -27.5t43 -47t22 -66.5h-61q-8 51 -45.5 75.5t-94.5 24.5q-50 0 -86.5 -19.5t-60 -52t-34.5 -74
t-11 -85.5q0 -47 11 -89t35.5 -74.5t63.5 -51.5t95 -19q34 0 68.5 4.5t66.5 15.5v170h-144v49h204v-257v0z" />
    <glyph glyph-name="H.aalt" horiz-adv-x="618" 
d="M466 0v258h-314v-258h-61v546h61v-239h314v239h61v-546h-61z" />
    <glyph glyph-name="I.aalt" horiz-adv-x="243" 
d="M91 0v546h61v-546h-61z" />
    <glyph glyph-name="J.aalt" horiz-adv-x="418" 
d="M340 157q0 -37 -10 -68t-31 -53t-53 -34.5t-75 -12.5q-32 0 -60.5 8.5t-50 25t-34 40.5t-12.5 55q0 5 0.5 9t0.5 8h63q-1 -5 -1 -8v-8q0 -40 26 -59t68 -19q60 0 84 33t24 86v386h61v-389v0z" />
    <glyph glyph-name="K.aalt" horiz-adv-x="519" 
d="M152 0h-61v546h61v-546zM407 546h78l-262 -248l289 -298h-82l-277 295z" />
    <glyph glyph-name="L.aalt" horiz-adv-x="456" 
d="M91 0v546h61v-496h290v-50h-351z" />
    <glyph glyph-name="M.aalt" horiz-adv-x="773" 
d="M625 0v491l-210 -491h-57l-212 491v-491h-55v546h91l206 -486l204 486h90v-546h-57z" />
    <glyph glyph-name="N.aalt" horiz-adv-x="623" 
d="M456 0l-310 474v-474h-55v546h75l310 -473v473h56v-546h-76z" />
    <glyph glyph-name="o.sc" horiz-adv-x="612" 
d="M562 275q0 -56 -15.5 -107.5t-47 -91.5t-79.5 -63.5t-112 -23.5q-65 0 -113.5 23.5t-80.5 63t-48 91t-16 107.5q0 57 15.5 108t48 90t81 62t114.5 23q67 0 115 -22.5t78.5 -61.5t45 -90t14.5 -108zM499 275q0 44 -10 85.5t-32.5 74t-59 52.5t-89.5 20q-52 0 -89 -20
t-60.5 -53t-34.5 -74.5t-11 -84.5q0 -42 11 -84t34 -75.5t60 -54.5t90 -21q52 0 88 21t59 55t33.5 75.5t10.5 83.5z" />
    <glyph glyph-name="P.aalt" horiz-adv-x="499" 
d="M467 391q0 -48 -23 -85t-64 -54q-27 -12 -65.5 -17t-75.5 -5h-87v-230h-61v546h169q37 0 73.5 -5.5t67.5 -23.5q66 -38 66 -126zM406 393q0 32 -10.5 51.5t-30.5 32.5q-19 12 -46.5 16t-62.5 4h-104v-218h82q28 0 58.5 2.5t53.5 12.5q60 26 60 99z" />
    <glyph glyph-name="Q.aalt" horiz-adv-x="612" 
d="M481 0q-26 0 -53.5 -0.5t-50.5 -2.5q-36 -3 -72 -3q-65 0 -113 23t-79.5 61.5t-47 89t-15.5 105.5q0 58 15.5 109.5t47.5 90.5t80.5 61.5t114.5 22.5t113.5 -22t79 -59.5t46.5 -88t15 -107.5q0 -36 -7 -71.5t-22 -67.5t-39 -58.5t-58 -43.5q25 2 54.5 2.5t52.5 0.5h35
v-42h-97zM499 275q0 45 -10 86.5t-32.5 74t-59 52t-89.5 19.5t-90 -20t-60.5 -53t-34 -74.5t-10.5 -84.5q0 -40 10.5 -81t33.5 -74t60.5 -54t90.5 -21q52 0 88.5 20.5t59 53.5t33 74t10.5 82z" />
    <glyph glyph-name="R.aalt" horiz-adv-x="543" 
d="M428 0q-11 23 -17 48.5t-10 67.5q-4 40 -9.5 67t-17.5 43t-32 22.5t-53 6.5h-137v-255h-61v546h202q44 0 77.5 -8t58.5 -26q22 -17 35 -41.5t13 -57.5q0 -54 -27 -86.5t-78 -46.5q23 -5 38.5 -14.5t26 -27t16 -44t8.5 -64.5q3 -42 10 -73t24 -57h-67zM417 406
q0 50 -37 70.5t-97 20.5h-131v-193h136q28 0 51.5 6t40.5 18.5t27 31.5t10 46z" />
    </font>
</defs>
</svg>
