<svg xmlns="http://www.w3.org/2000/svg" viewBox="0 0 40.118 40.027">
  <defs>
    <style>
      .cls-1 {
        fill: #9e9e9e;
      }
    </style>
  </defs>
  <g id="Group_2693" transform="translate(-5572.717 6866)">
    <g id="icons_04" transform="translate(5572.717 -6865.973)">
      <path id="Path_1742" class="cls-1" d="M199.118,57.14h2.991a4.623,4.623,0,0,0,3.447-1.021l.141-.165a4.8,4.8,0,0,1-1.531-.675,3.473,3.473,0,0,1-2.033.487h-3.015V51.59h2.826a4.421,4.421,0,0,1-.024-.455,5.232,5.232,0,0,1,.086-.934h-4.451v5.6H196.3V57.14h1.256v1.036H196.3v1.358h1.256v2.379h1.554V59.535h6.775V58.176H199.11V57.14Z" transform="translate(-180.889 -46.259)"/>
      <path id="Path_1743" class="cls-1" d="M39.49,13.441H37a5.891,5.891,0,0,0,.385-1.829l-1.256-.063a4.632,4.632,0,0,1-4.64,4.42H27.87a9.806,9.806,0,0,0,2.112-6.1,10.5,10.5,0,0,0-.173-1.853h3.666V6.76H25.963a1.939,1.939,0,0,1,0-3.878H31.49A4.639,4.639,0,0,1,36.13,7.4l1.256-.031A5.974,5.974,0,0,0,37.032,5.5H39.49a.628.628,0,0,0,0-1.256H36.4a6.009,6.009,0,0,0-.785-.95,5.867,5.867,0,0,0-4.122-1.68h-5.53a3.459,3.459,0,0,0-.408.024l.008-.016A9.881,9.881,0,0,0,14.045,17.664H12.93a2.7,2.7,0,0,0-2.693,2.693v2.237H8.628a5.867,5.867,0,0,0-4.122,1.68,5.675,5.675,0,0,0-.785.95H.628a.628.628,0,0,0,0,1.256H3.085a5.974,5.974,0,0,0-.353,1.868l1.256.031a4.639,4.639,0,0,1,4.64-4.522h7.254a1.939,1.939,0,1,1,0,3.878H8.369v1.256h1.868v7.945H8.628a4.638,4.638,0,0,1-4.64-4.42l-1.256.063a5.891,5.891,0,0,0,.385,1.829H.628a.628.628,0,0,0,0,1.256H3.784a5.9,5.9,0,0,0,4.844,2.528h1.766A2.7,2.7,0,0,0,12.938,40h17.72a2.7,2.7,0,0,0,2.693-2.693V19.07H32.094V37.3a1.437,1.437,0,0,1-1.437,1.437H12.93A1.437,1.437,0,0,1,11.494,37.3V28.985h4.389a3.2,3.2,0,0,0,3.1-2.426h1.083A1.558,1.558,0,0,0,21.621,25V19.63a9.9,9.9,0,0,0,5.15-2.473,6.032,6.032,0,0,0,.919.071h3.8A5.9,5.9,0,0,0,36.334,14.7H39.49a.63.63,0,0,0,.628-.628.637.637,0,0,0-.628-.631ZM12.93,18.913h1.413v3.674h-2.85V20.349A1.442,1.442,0,0,1,12.93,18.913ZM20.365,25a.3.3,0,0,1-.3.3H19.038a3.2,3.2,0,0,0-3.156-2.709h-.275v-3.67h.542a9.851,9.851,0,0,0,3.965.832h.251Zm-.251-6.516A8.616,8.616,0,1,1,24.1,2.23a3.2,3.2,0,0,0,1.861,5.794H28.53a8.635,8.635,0,0,1-8.416,10.465Z"/>
      <rect id="Rectangle_985" class="cls-1" width="5.025" height="1.256" transform="translate(25.107 31.89)"/>
      <rect id="Rectangle_986" class="cls-1" width="5.025" height="1.256" transform="translate(25.107 35.266)"/>
    </g>
  </g>
</svg>
