<svg xmlns="http://www.w3.org/2000/svg" viewBox="0 0 40 40">
  <defs>
    <style>
      .cls-1 {
        fill: #9e9e9e;
      }
    </style>
  </defs>
  <g id="Group_2691" transform="translate(-5003.717 6866)">
    <g id="Group_2689" transform="translate(4588.717 -8984)">
      <path id="Path_901" class="cls-1" d="M33.558,17.426V16.132a3.225,3.225,0,0,0-3.221-3.221H25.822v-8.4H19.367V3.221A3.225,3.225,0,0,0,16.146,0H9.677A3.225,3.225,0,0,0,6.456,3.221V4.515H0V36.132H14.191V40H40V17.426Zm3.964,1.28L35.1,20.647l2.423,1.941H33.489A3.234,3.234,0,0,0,30.323,20H23.868A3.245,3.245,0,0,0,20.7,22.588H16.669l2.423-1.941-2.423-1.941H37.522Zm1.184.7v2.478l-1.542-1.239ZM33.558,27.1a.647.647,0,1,1-.647-.647A.655.655,0,0,1,33.558,27.1ZM32.14,22.588H22.051a1.939,1.939,0,0,1,1.817-1.294h6.456A1.92,1.92,0,0,1,32.14,22.588ZM21.941,27.1a.647.647,0,1,1-.647-.647A.646.646,0,0,1,21.941,27.1Zm-4.914-6.456-1.542,1.239V19.408Zm4.914-3.221V16.132a1.939,1.939,0,0,1,1.941-1.941h.647v3.221H21.941Zm8.383-3.235a1.939,1.939,0,0,1,1.941,1.941v1.294H25.809V14.205h4.515ZM24.515,8.975,22.973,7.736,24.515,6.5ZM7.736,3.221A1.939,1.939,0,0,1,9.677,1.28h6.456a1.939,1.939,0,0,1,1.941,1.941V4.515H7.749L7.736,3.221Zm0,2.588H23.317L20.895,7.749,23.317,9.69H19.284A3.234,3.234,0,0,0,16.118,7.1H9.677A3.245,3.245,0,0,0,6.511,9.69H2.491L4.914,7.749,2.491,5.809H7.736Zm11.617,8.383a.647.647,0,1,1-.647-.647A.646.646,0,0,1,19.353,14.191Zm-1.4-4.515H7.86A1.939,1.939,0,0,1,9.677,8.383h6.456A1.953,1.953,0,0,1,17.949,9.677ZM7.736,14.191a.647.647,0,1,1-.647-.647A.646.646,0,0,1,7.736,14.191Zm-4.9-6.456L1.294,8.975V6.5Zm-1.542,27.1V10.97H6.456v1.4a1.941,1.941,0,1,0,1.294,0v-1.4H18.073v1.4a1.941,1.941,0,1,0,1.294,0v-1.4h5.162v1.941h-.647a3.225,3.225,0,0,0-3.221,3.221v1.294H14.205V34.852L1.294,34.838Zm37.412,3.868H15.485V23.868h5.162v1.4a1.941,1.941,0,1,0,1.294,0v-1.4H32.264v1.4a1.941,1.941,0,1,0,1.294,0v-1.4H38.72l-.014,14.838Z" transform="translate(415 2118)"/>
    </g>
  </g>
</svg>
