<svg xmlns="http://www.w3.org/2000/svg" viewBox="0 0 34.707 40">
  <defs>
    <style>
      .cls-1 {
        fill: #9e9e9e;
      }
    </style>
  </defs>
  <g id="Group_2690" transform="translate(-4730.717 6866)">
    <g id="Group_2688" transform="translate(4440.086 -8984)">
      <path id="Path_873" class="cls-1" d="M33.281,2.619A35.163,35.163,0,0,1,20.171.1L19.925,0l-.233.1A35.233,35.233,0,0,1,6.568,2.619H5.142V16.112H1.933A1.931,1.931,0,0,0,0,18.046V28.975a1.931,1.931,0,0,0,1.933,1.934H7.72a16.732,16.732,0,0,0,6.13,5.773L19.925,40,26,36.682a16.685,16.685,0,0,0,8.708-14.659V2.619ZM1.289,28.975V18.046a.644.644,0,0,1,.644-.644H7.72a.644.644,0,0,1,.644.644V28.975a.644.644,0,0,1-.644.645H1.933A.644.644,0,0,1,1.289,28.975ZM9.64,19.321a4.077,4.077,0,0,0,3.853-4.073v-3.3a1.6,1.6,0,1,1,3.209,0v4.045a2.054,2.054,0,0,0,2.057,2.057h4.717A2.23,2.23,0,0,1,25.7,20.267v7.117a2.221,2.221,0,0,1-2.221,2.221H14a1.529,1.529,0,0,1-1.262-.672,2.8,2.8,0,0,0-2.331-1.248H9.64V19.321Zm23.778,2.688a15.387,15.387,0,0,1-8.036,13.534l-5.458,2.989-5.458-2.976a15.376,15.376,0,0,1-5.513-5.1,1.977,1.977,0,0,0,.686-1.344,14.19,14.19,0,0,0,5.444,5.321l4.854,2.647,4.854-2.647a14.131,14.131,0,0,0,7.364-12.41V12.259h-1.3v9.75a12.828,12.828,0,0,1-6.692,11.272l-4.237,2.3-4.237-2.3a12.756,12.756,0,0,1-4.47-4.073,1.578,1.578,0,0,1,.466.439,2.8,2.8,0,0,0,2.331,1.248H23.49A3.517,3.517,0,0,0,27,27.384V20.267a3.517,3.517,0,0,0-3.51-3.51H18.773a.781.781,0,0,1-.782-.782V11.944a2.893,2.893,0,1,0-5.787,0v3.318a2.783,2.783,0,0,1-2.578,2.77,1.877,1.877,0,0,0-.644-1.4V6.4A38.822,38.822,0,0,0,19.911,4.128,39.015,39.015,0,0,0,30.854,6.4v.713h1.289V5.183l-.617-.027a38.038,38.038,0,0,1-11.382-2.3l-.219-.082-.219.082a37.617,37.617,0,0,1-11.382,2.3l-.617.027V16.126H6.418V3.908h.151A36.494,36.494,0,0,0,19.925,1.385,36.44,36.44,0,0,0,33.281,3.908h.151l-.014,18.1Z" transform="translate(290.631 2118)"/>
      <rect id="Rectangle_827" class="cls-1" width="1.289" height="1.289" transform="translate(321.484 2127.695)"/>
      <rect id="Rectangle_828" class="cls-1" width="4.498" height="1.289" transform="translate(293.195 2145.042)"/>
    </g>
  </g>
</svg>
