<svg xmlns="http://www.w3.org/2000/svg" viewBox="0 0 40.014 40">
  <defs>
    <style>
      .cls-1 {
        fill: #9e9e9e;
      }
    </style>
  </defs>
  <g id="Group_2692" transform="translate(-5291.717 6867)">
    <g id="Group_985" transform="translate(4742.717 -8985)">
      <path id="Path_881" class="cls-1" d="M38.06,31.606h-.647v-7.1H34.771l-.647-6.453H28.387V12.26H25.126c.014-.22.028-.427.028-.647a9.633,9.633,0,0,0-2.711-6.7l.454-.454,1.156,1.156.908-.908-3.22-3.234-.908.908,1.156,1.156-.5.5a9.7,9.7,0,0,0-5.366-2.078v-.66h1.94V0h-5.16V1.293h1.94v.674A9.6,9.6,0,0,0,9.481,4.045l-.5-.5,1.156-1.156-.922-.922L6,4.706l.908.908L8.063,4.458l.454.454a9.608,9.608,0,0,0-2.711,6.7c0,.22.014.427.028.647H2.587V31.606H1.94a1.94,1.94,0,0,0,0,3.88H5.82a4.513,4.513,0,0,0,9.026,0h12.26a4.513,4.513,0,0,0,9.026,0h1.94a1.938,1.938,0,0,0,1.94-1.94A1.959,1.959,0,0,0,38.06,31.606Zm-5.1-12.26.523,5.16H28.387v-5.16ZM15.48,3.22A8.38,8.38,0,1,1,7.1,11.613,8.386,8.386,0,0,1,15.48,3.22ZM2.587,34.18H1.94a.647.647,0,0,1,0-1.293h.647Zm7.733,4.513a3.22,3.22,0,1,1,3.22-3.22A3.224,3.224,0,0,1,10.32,38.693Zm4.321-4.513A4.509,4.509,0,0,0,6,34.18H3.867V13.54H6a9.678,9.678,0,0,0,18.961,0h2.133V34.18Zm16.966,4.513a3.22,3.22,0,1,1,3.22-3.22A3.224,3.224,0,0,1,31.606,38.693ZM36.12,34.18h-.193a4.516,4.516,0,0,0-4.321-3.22,4.466,4.466,0,0,0-3.22,1.362V25.8h7.747v5.807L36.12,34.18Zm1.94,0h-.647V32.886h.647a.646.646,0,0,1,.647.647A.655.655,0,0,1,38.06,34.18Z" transform="translate(549 2118)"/>
      <path id="Path_882" class="cls-1" d="M62.84,243.8a1.94,1.94,0,1,0,1.94,1.94A1.938,1.938,0,0,0,62.84,243.8Zm0,2.573a.647.647,0,1,1,.647-.647A.646.646,0,0,1,62.84,246.373Z" transform="translate(496.48 1907.746)"/>
      <path id="Path_883" class="cls-1" d="M217.54,243.8a1.94,1.94,0,1,0,1.94,1.94A1.938,1.938,0,0,0,217.54,243.8Zm0,2.573a.647.647,0,1,1,.647-.647A.646.646,0,0,1,217.54,246.373Z" transform="translate(363.066 1907.746)"/>
      <path id="Path_884" class="cls-1" d="M79.168,45.333a1.94,1.94,0,1,0,1.94-1.94,2.258,2.258,0,0,0-.316.028L77.077,39.1l-.977.839,3.536,4.128A2.042,2.042,0,0,0,79.168,45.333Zm2.587,0a.647.647,0,1,1-.647-.647A.646.646,0,0,1,81.755,45.333Z" transform="translate(483.371 2084.28)"/>
      <path id="Path_885" class="cls-1" d="M67.408,61.965l.11-1.28a5.792,5.792,0,0,1-3.853-9.632L62.7,50.2a7.071,7.071,0,0,0,4.706,11.765Z" transform="translate(496.48 2074.707)"/>
    </g>
  </g>
</svg>
